ISO-10303-21;
HEADER;
/* Generated by software containing ST-Developer
 * from STEP Tools, Inc. (www.steptools.com) 
 */

FILE_DESCRIPTION(
/* description */ (''),
/* implementation_level */ '2;1');

FILE_NAME(
/* name */ 'side_panel_x1.step',
/* time_stamp */ '2025-05-09T23:15:34+02:00',
/* author */ (''),
/* organization */ (''),
/* preprocessor_version */ 'ST-DEVELOPER v20.1',
/* originating_system */ 'Autodesk Translation Framework v14.4.0.0',
/* authorisation */ '');

FILE_SCHEMA (('AUTOMOTIVE_DESIGN { 1 0 10303 214 3 1 1 }'));
ENDSEC;

DATA;
#10=MECHANICAL_DESIGN_GEOMETRIC_PRESENTATION_REPRESENTATION('',(#13),#521);
#11=SHAPE_REPRESENTATION_RELATIONSHIP('SRR','None',#528,#12);
#12=ADVANCED_BREP_SHAPE_REPRESENTATION('',(#14),#520);
#13=STYLED_ITEM('',(#538),#14);
#14=MANIFOLD_SOLID_BREP('Body23',#309);
#15=CYLINDRICAL_SURFACE('',#335,2.);
#16=CYLINDRICAL_SURFACE('',#339,2.);
#17=CYLINDRICAL_SURFACE('',#345,2.);
#18=CYLINDRICAL_SURFACE('',#346,2.00000000000003);
#19=CIRCLE('',#330,2.);
#20=CIRCLE('',#331,2.);
#21=CIRCLE('',#332,2.);
#22=CIRCLE('',#333,2.00000000000003);
#23=CIRCLE('',#336,2.);
#24=CIRCLE('',#340,2.);
#25=CIRCLE('',#342,2.00000000000003);
#26=CIRCLE('',#343,2.);
#27=FACE_OUTER_BOUND('',#43,.T.);
#28=FACE_OUTER_BOUND('',#44,.T.);
#29=FACE_OUTER_BOUND('',#45,.T.);
#30=FACE_OUTER_BOUND('',#46,.T.);
#31=FACE_OUTER_BOUND('',#47,.T.);
#32=FACE_OUTER_BOUND('',#48,.T.);
#33=FACE_OUTER_BOUND('',#49,.T.);
#34=FACE_OUTER_BOUND('',#50,.T.);
#35=FACE_OUTER_BOUND('',#51,.T.);
#36=FACE_OUTER_BOUND('',#52,.T.);
#37=FACE_OUTER_BOUND('',#53,.T.);
#38=FACE_OUTER_BOUND('',#54,.T.);
#39=FACE_OUTER_BOUND('',#55,.T.);
#40=FACE_OUTER_BOUND('',#56,.T.);
#41=FACE_OUTER_BOUND('',#57,.T.);
#42=FACE_OUTER_BOUND('',#58,.T.);
#43=EDGE_LOOP('',(#197,#198,#199,#200));
#44=EDGE_LOOP('',(#201,#202,#203,#204));
#45=EDGE_LOOP('',(#205,#206,#207,#208));
#46=EDGE_LOOP('',(#209,#210,#211,#212));
#47=EDGE_LOOP('',(#213,#214,#215,#216));
#48=EDGE_LOOP('',(#217,#218,#219,#220));
#49=EDGE_LOOP('',(#221,#222,#223,#224,#225,#226,#227,#228,#229,#230,#231,
#232,#233,#234));
#50=EDGE_LOOP('',(#235,#236,#237,#238));
#51=EDGE_LOOP('',(#239,#240,#241,#242));
#52=EDGE_LOOP('',(#243,#244,#245,#246));
#53=EDGE_LOOP('',(#247,#248,#249,#250));
#54=EDGE_LOOP('',(#251,#252,#253,#254));
#55=EDGE_LOOP('',(#255,#256,#257,#258,#259,#260,#261,#262,#263,#264,#265,
#266,#267,#268));
#56=EDGE_LOOP('',(#269,#270,#271,#272));
#57=EDGE_LOOP('',(#273,#274,#275,#276));
#58=EDGE_LOOP('',(#277,#278,#279,#280));
#59=LINE('',#435,#93);
#60=LINE('',#437,#94);
#61=LINE('',#439,#95);
#62=LINE('',#440,#96);
#63=LINE('',#444,#97);
#64=LINE('',#446,#98);
#65=LINE('',#448,#99);
#66=LINE('',#449,#100);
#67=LINE('',#453,#101);
#68=LINE('',#455,#102);
#69=LINE('',#457,#103);
#70=LINE('',#458,#104);
#71=LINE('',#462,#105);
#72=LINE('',#464,#106);
#73=LINE('',#466,#107);
#74=LINE('',#467,#108);
#75=LINE('',#469,#109);
#76=LINE('',#470,#110);
#77=LINE('',#473,#111);
#78=LINE('',#475,#112);
#79=LINE('',#476,#113);
#80=LINE('',#480,#114);
#81=LINE('',#484,#115);
#82=LINE('',#487,#116);
#83=LINE('',#489,#117);
#84=LINE('',#493,#118);
#85=LINE('',#494,#119);
#86=LINE('',#497,#120);
#87=LINE('',#501,#121);
#88=LINE('',#502,#122);
#89=LINE('',#505,#123);
#90=LINE('',#506,#124);
#91=LINE('',#512,#125);
#92=LINE('',#515,#126);
#93=VECTOR('',#351,10.);
#94=VECTOR('',#352,10.);
#95=VECTOR('',#353,10.);
#96=VECTOR('',#354,10.);
#97=VECTOR('',#357,10.);
#98=VECTOR('',#358,10.);
#99=VECTOR('',#359,10.);
#100=VECTOR('',#360,10.);
#101=VECTOR('',#363,10.);
#102=VECTOR('',#364,10.);
#103=VECTOR('',#365,10.);
#104=VECTOR('',#366,10.);
#105=VECTOR('',#369,10.);
#106=VECTOR('',#370,10.);
#107=VECTOR('',#371,10.);
#108=VECTOR('',#372,10.);
#109=VECTOR('',#375,10.);
#110=VECTOR('',#376,10.);
#111=VECTOR('',#379,10.);
#112=VECTOR('',#380,10.);
#113=VECTOR('',#381,10.);
#114=VECTOR('',#386,10.);
#115=VECTOR('',#389,10.);
#116=VECTOR('',#392,10.);
#117=VECTOR('',#393,10.);
#118=VECTOR('',#398,10.);
#119=VECTOR('',#399,10.);
#120=VECTOR('',#402,10.);
#121=VECTOR('',#407,10.);
#122=VECTOR('',#408,10.);
#123=VECTOR('',#411,10.);
#124=VECTOR('',#412,10.);
#125=VECTOR('',#421,10.);
#126=VECTOR('',#426,10.);
#127=VERTEX_POINT('',#433);
#128=VERTEX_POINT('',#434);
#129=VERTEX_POINT('',#436);
#130=VERTEX_POINT('',#438);
#131=VERTEX_POINT('',#442);
#132=VERTEX_POINT('',#443);
#133=VERTEX_POINT('',#445);
#134=VERTEX_POINT('',#447);
#135=VERTEX_POINT('',#451);
#136=VERTEX_POINT('',#452);
#137=VERTEX_POINT('',#454);
#138=VERTEX_POINT('',#456);
#139=VERTEX_POINT('',#460);
#140=VERTEX_POINT('',#461);
#141=VERTEX_POINT('',#463);
#142=VERTEX_POINT('',#465);
#143=VERTEX_POINT('',#472);
#144=VERTEX_POINT('',#474);
#145=VERTEX_POINT('',#479);
#146=VERTEX_POINT('',#481);
#147=VERTEX_POINT('',#483);
#148=VERTEX_POINT('',#485);
#149=VERTEX_POINT('',#488);
#150=VERTEX_POINT('',#492);
#151=VERTEX_POINT('',#496);
#152=VERTEX_POINT('',#500);
#153=VERTEX_POINT('',#504);
#154=VERTEX_POINT('',#510);
#155=EDGE_CURVE('',#127,#128,#59,.T.);
#156=EDGE_CURVE('',#127,#129,#60,.T.);
#157=EDGE_CURVE('',#129,#130,#61,.T.);
#158=EDGE_CURVE('',#128,#130,#62,.T.);
#159=EDGE_CURVE('',#131,#132,#63,.T.);
#160=EDGE_CURVE('',#132,#133,#64,.T.);
#161=EDGE_CURVE('',#133,#134,#65,.F.);
#162=EDGE_CURVE('',#134,#131,#66,.F.);
#163=EDGE_CURVE('',#135,#136,#67,.T.);
#164=EDGE_CURVE('',#136,#137,#68,.F.);
#165=EDGE_CURVE('',#138,#137,#69,.F.);
#166=EDGE_CURVE('',#138,#135,#70,.T.);
#167=EDGE_CURVE('',#139,#140,#71,.T.);
#168=EDGE_CURVE('',#140,#141,#72,.T.);
#169=EDGE_CURVE('',#142,#141,#73,.T.);
#170=EDGE_CURVE('',#142,#139,#74,.T.);
#171=EDGE_CURVE('',#133,#142,#75,.T.);
#172=EDGE_CURVE('',#141,#134,#76,.T.);
#173=EDGE_CURVE('',#137,#143,#77,.F.);
#174=EDGE_CURVE('',#144,#143,#78,.T.);
#175=EDGE_CURVE('',#138,#144,#79,.F.);
#176=EDGE_CURVE('',#127,#139,#19,.T.);
#177=EDGE_CURVE('',#132,#145,#80,.T.);
#178=EDGE_CURVE('',#146,#145,#20,.T.);
#179=EDGE_CURVE('',#146,#147,#81,.T.);
#180=EDGE_CURVE('',#148,#147,#21,.T.);
#181=EDGE_CURVE('',#148,#135,#82,.T.);
#182=EDGE_CURVE('',#149,#144,#83,.T.);
#183=EDGE_CURVE('',#149,#129,#22,.T.);
#184=EDGE_CURVE('',#150,#148,#84,.T.);
#185=EDGE_CURVE('',#136,#150,#85,.T.);
#186=EDGE_CURVE('',#147,#151,#86,.T.);
#187=EDGE_CURVE('',#151,#150,#23,.T.);
#188=EDGE_CURVE('',#152,#146,#87,.T.);
#189=EDGE_CURVE('',#151,#152,#88,.T.);
#190=EDGE_CURVE('',#145,#153,#89,.T.);
#191=EDGE_CURVE('',#153,#131,#90,.T.);
#192=EDGE_CURVE('',#153,#152,#24,.T.);
#193=EDGE_CURVE('',#130,#154,#25,.T.);
#194=EDGE_CURVE('',#143,#154,#91,.T.);
#195=EDGE_CURVE('',#140,#128,#26,.T.);
#196=EDGE_CURVE('',#154,#149,#92,.T.);
#197=ORIENTED_EDGE('',*,*,#155,.F.);
#198=ORIENTED_EDGE('',*,*,#156,.T.);
#199=ORIENTED_EDGE('',*,*,#157,.T.);
#200=ORIENTED_EDGE('',*,*,#158,.F.);
#201=ORIENTED_EDGE('',*,*,#159,.T.);
#202=ORIENTED_EDGE('',*,*,#160,.T.);
#203=ORIENTED_EDGE('',*,*,#161,.T.);
#204=ORIENTED_EDGE('',*,*,#162,.T.);
#205=ORIENTED_EDGE('',*,*,#163,.T.);
#206=ORIENTED_EDGE('',*,*,#164,.T.);
#207=ORIENTED_EDGE('',*,*,#165,.F.);
#208=ORIENTED_EDGE('',*,*,#166,.T.);
#209=ORIENTED_EDGE('',*,*,#167,.T.);
#210=ORIENTED_EDGE('',*,*,#168,.T.);
#211=ORIENTED_EDGE('',*,*,#169,.F.);
#212=ORIENTED_EDGE('',*,*,#170,.T.);
#213=ORIENTED_EDGE('',*,*,#171,.T.);
#214=ORIENTED_EDGE('',*,*,#169,.T.);
#215=ORIENTED_EDGE('',*,*,#172,.T.);
#216=ORIENTED_EDGE('',*,*,#161,.F.);
#217=ORIENTED_EDGE('',*,*,#173,.T.);
#218=ORIENTED_EDGE('',*,*,#174,.F.);
#219=ORIENTED_EDGE('',*,*,#175,.F.);
#220=ORIENTED_EDGE('',*,*,#165,.T.);
#221=ORIENTED_EDGE('',*,*,#176,.T.);
#222=ORIENTED_EDGE('',*,*,#170,.F.);
#223=ORIENTED_EDGE('',*,*,#171,.F.);
#224=ORIENTED_EDGE('',*,*,#160,.F.);
#225=ORIENTED_EDGE('',*,*,#177,.T.);
#226=ORIENTED_EDGE('',*,*,#178,.F.);
#227=ORIENTED_EDGE('',*,*,#179,.T.);
#228=ORIENTED_EDGE('',*,*,#180,.F.);
#229=ORIENTED_EDGE('',*,*,#181,.T.);
#230=ORIENTED_EDGE('',*,*,#166,.F.);
#231=ORIENTED_EDGE('',*,*,#175,.T.);
#232=ORIENTED_EDGE('',*,*,#182,.F.);
#233=ORIENTED_EDGE('',*,*,#183,.T.);
#234=ORIENTED_EDGE('',*,*,#156,.F.);
#235=ORIENTED_EDGE('',*,*,#184,.F.);
#236=ORIENTED_EDGE('',*,*,#185,.F.);
#237=ORIENTED_EDGE('',*,*,#163,.F.);
#238=ORIENTED_EDGE('',*,*,#181,.F.);
#239=ORIENTED_EDGE('',*,*,#180,.T.);
#240=ORIENTED_EDGE('',*,*,#186,.T.);
#241=ORIENTED_EDGE('',*,*,#187,.T.);
#242=ORIENTED_EDGE('',*,*,#184,.T.);
#243=ORIENTED_EDGE('',*,*,#188,.F.);
#244=ORIENTED_EDGE('',*,*,#189,.F.);
#245=ORIENTED_EDGE('',*,*,#186,.F.);
#246=ORIENTED_EDGE('',*,*,#179,.F.);
#247=ORIENTED_EDGE('',*,*,#190,.F.);
#248=ORIENTED_EDGE('',*,*,#177,.F.);
#249=ORIENTED_EDGE('',*,*,#159,.F.);
#250=ORIENTED_EDGE('',*,*,#191,.F.);
#251=ORIENTED_EDGE('',*,*,#178,.T.);
#252=ORIENTED_EDGE('',*,*,#190,.T.);
#253=ORIENTED_EDGE('',*,*,#192,.T.);
#254=ORIENTED_EDGE('',*,*,#188,.T.);
#255=ORIENTED_EDGE('',*,*,#193,.T.);
#256=ORIENTED_EDGE('',*,*,#194,.F.);
#257=ORIENTED_EDGE('',*,*,#173,.F.);
#258=ORIENTED_EDGE('',*,*,#164,.F.);
#259=ORIENTED_EDGE('',*,*,#185,.T.);
#260=ORIENTED_EDGE('',*,*,#187,.F.);
#261=ORIENTED_EDGE('',*,*,#189,.T.);
#262=ORIENTED_EDGE('',*,*,#192,.F.);
#263=ORIENTED_EDGE('',*,*,#191,.T.);
#264=ORIENTED_EDGE('',*,*,#162,.F.);
#265=ORIENTED_EDGE('',*,*,#172,.F.);
#266=ORIENTED_EDGE('',*,*,#168,.F.);
#267=ORIENTED_EDGE('',*,*,#195,.T.);
#268=ORIENTED_EDGE('',*,*,#158,.T.);
#269=ORIENTED_EDGE('',*,*,#196,.T.);
#270=ORIENTED_EDGE('',*,*,#182,.T.);
#271=ORIENTED_EDGE('',*,*,#174,.T.);
#272=ORIENTED_EDGE('',*,*,#194,.T.);
#273=ORIENTED_EDGE('',*,*,#195,.F.);
#274=ORIENTED_EDGE('',*,*,#167,.F.);
#275=ORIENTED_EDGE('',*,*,#176,.F.);
#276=ORIENTED_EDGE('',*,*,#155,.T.);
#277=ORIENTED_EDGE('',*,*,#193,.F.);
#278=ORIENTED_EDGE('',*,*,#157,.F.);
#279=ORIENTED_EDGE('',*,*,#183,.F.);
#280=ORIENTED_EDGE('',*,*,#196,.F.);
#281=PLANE('',#323);
#282=PLANE('',#324);
#283=PLANE('',#325);
#284=PLANE('',#326);
#285=PLANE('',#327);
#286=PLANE('',#328);
#287=PLANE('',#329);
#288=PLANE('',#334);
#289=PLANE('',#337);
#290=PLANE('',#338);
#291=PLANE('',#341);
#292=PLANE('',#344);
#293=ADVANCED_FACE('',(#27),#281,.T.);
#294=ADVANCED_FACE('',(#28),#282,.F.);
#295=ADVANCED_FACE('',(#29),#283,.F.);
#296=ADVANCED_FACE('',(#30),#284,.F.);
#297=ADVANCED_FACE('',(#31),#285,.F.);
#298=ADVANCED_FACE('',(#32),#286,.F.);
#299=ADVANCED_FACE('',(#33),#287,.T.);
#300=ADVANCED_FACE('',(#34),#288,.F.);
#301=ADVANCED_FACE('',(#35),#15,.F.);
#302=ADVANCED_FACE('',(#36),#289,.F.);
#303=ADVANCED_FACE('',(#37),#290,.F.);
#304=ADVANCED_FACE('',(#38),#16,.F.);
#305=ADVANCED_FACE('',(#39),#291,.F.);
#306=ADVANCED_FACE('',(#40),#292,.F.);
#307=ADVANCED_FACE('',(#41),#17,.T.);
#308=ADVANCED_FACE('',(#42),#18,.T.);
#309=CLOSED_SHELL('',(#293,#294,#295,#296,#297,#298,#299,#300,#301,#302,
#303,#304,#305,#306,#307,#308));
#310=DERIVED_UNIT_ELEMENT(#312,1.);
#311=DERIVED_UNIT_ELEMENT(#523,-3.);
#312=(
MASS_UNIT()
NAMED_UNIT(*)
SI_UNIT(.KILO.,.GRAM.)
);
#313=DERIVED_UNIT((#310,#311));
#314=MEASURE_REPRESENTATION_ITEM('density measure',
POSITIVE_RATIO_MEASURE(1188.),#313);
#315=PROPERTY_DEFINITION_REPRESENTATION(#320,#317);
#316=PROPERTY_DEFINITION_REPRESENTATION(#321,#318);
#317=REPRESENTATION('material name',(#319),#520);
#318=REPRESENTATION('density',(#314),#520);
#319=DESCRIPTIVE_REPRESENTATION_ITEM('PMMA Plastic','PMMA Plastic');
#320=PROPERTY_DEFINITION('material property','material name',#530);
#321=PROPERTY_DEFINITION('material property','density of part',#530);
#322=AXIS2_PLACEMENT_3D('',#431,#347,#348);
#323=AXIS2_PLACEMENT_3D('',#432,#349,#350);
#324=AXIS2_PLACEMENT_3D('',#441,#355,#356);
#325=AXIS2_PLACEMENT_3D('',#450,#361,#362);
#326=AXIS2_PLACEMENT_3D('',#459,#367,#368);
#327=AXIS2_PLACEMENT_3D('',#468,#373,#374);
#328=AXIS2_PLACEMENT_3D('',#471,#377,#378);
#329=AXIS2_PLACEMENT_3D('',#477,#382,#383);
#330=AXIS2_PLACEMENT_3D('',#478,#384,#385);
#331=AXIS2_PLACEMENT_3D('',#482,#387,#388);
#332=AXIS2_PLACEMENT_3D('',#486,#390,#391);
#333=AXIS2_PLACEMENT_3D('',#490,#394,#395);
#334=AXIS2_PLACEMENT_3D('',#491,#396,#397);
#335=AXIS2_PLACEMENT_3D('',#495,#400,#401);
#336=AXIS2_PLACEMENT_3D('',#498,#403,#404);
#337=AXIS2_PLACEMENT_3D('',#499,#405,#406);
#338=AXIS2_PLACEMENT_3D('',#503,#409,#410);
#339=AXIS2_PLACEMENT_3D('',#507,#413,#414);
#340=AXIS2_PLACEMENT_3D('',#508,#415,#416);
#341=AXIS2_PLACEMENT_3D('',#509,#417,#418);
#342=AXIS2_PLACEMENT_3D('',#511,#419,#420);
#343=AXIS2_PLACEMENT_3D('',#513,#422,#423);
#344=AXIS2_PLACEMENT_3D('',#514,#424,#425);
#345=AXIS2_PLACEMENT_3D('',#516,#427,#428);
#346=AXIS2_PLACEMENT_3D('',#517,#429,#430);
#347=DIRECTION('axis',(0.,0.,1.));
#348=DIRECTION('refdir',(1.,0.,0.));
#349=DIRECTION('center_axis',(-2.75351355699727E-12,2.56168219947654E-13,
-1.));
#350=DIRECTION('ref_axis',(-1.,-2.38754762009004E-13,2.75351355699721E-12));
#351=DIRECTION('',(1.,2.38588228556485E-13,-2.75351355699721E-12));
#352=DIRECTION('',(-2.39104862218696E-13,1.,2.56168219948313E-13));
#353=DIRECTION('',(1.,2.38907635129199E-13,-2.75156312357567E-12));
#354=DIRECTION('',(-2.39104862218696E-13,1.,2.56168219948313E-13));
#355=DIRECTION('center_axis',(-1.1074097142328E-33,2.55099249257736E-13,
-1.));
#356=DIRECTION('ref_axis',(-1.27675647832285E-15,1.,2.55099249257736E-13));
#357=DIRECTION('',(-1.,6.86784030184914E-14,1.75198101576471E-26));
#358=DIRECTION('',(1.27675647832283E-15,-1.,-2.55099249257736E-13));
#359=DIRECTION('',(-1.,2.12467748550208E-29,1.10740971965284E-33));
#360=DIRECTION('',(-2.12467748550208E-29,-1.,-2.55099249257736E-13));
#361=DIRECTION('center_axis',(-1.1074097142328E-33,2.55099249257736E-13,
-1.));
#362=DIRECTION('ref_axis',(-1.27675647832285E-15,1.,2.55099249257736E-13));
#363=DIRECTION('',(1.,-7.08988490677363E-14,-1.80862442778268E-26));
#364=DIRECTION('',(-2.12467748550208E-29,-1.,-2.55099249257736E-13));
#365=DIRECTION('',(-1.,2.12467748550208E-29,1.10740971965284E-33));
#366=DIRECTION('',(1.27675647832283E-15,-1.,-2.55099249257736E-13));
#367=DIRECTION('center_axis',(1.15555796276176E-33,-2.60532405807184E-13,
1.));
#368=DIRECTION('ref_axis',(1.27675647832286E-15,-1.,-2.60532405807184E-13));
#369=DIRECTION('',(1.,2.38907635129199E-13,-2.75156312357567E-12));
#370=DIRECTION('',(1.27675647832285E-15,-1.,-2.60532405807184E-13));
#371=DIRECTION('',(1.,3.99677411205166E-30,-1.20370621524202E-33));
#372=DIRECTION('',(-1.27675647832285E-15,1.,2.60532405807184E-13));
#373=DIRECTION('center_axis',(2.12467748550208E-29,1.,2.54947484509169E-13));
#374=DIRECTION('ref_axis',(1.96297013677126E-28,-2.54947484509169E-13,1.));
#375=DIRECTION('',(-1.96298194762229E-28,2.5494748450917E-13,-1.));
#376=DIRECTION('',(1.96298242910478E-28,-2.5494748450917E-13,1.));
#377=DIRECTION('center_axis',(-2.12467748550208E-29,-1.,-2.55319606700704E-13));
#378=DIRECTION('ref_axis',(-1.96791564913543E-28,2.55319606700704E-13,-1.));
#379=DIRECTION('',(-4.81482540343991E-35,-2.55319606700704E-13,1.));
#380=DIRECTION('',(1.,-2.12467748550208E-29,-1.15555796829724E-33));
#381=DIRECTION('',(1.96772123095896E-28,-2.55319606700704E-13,1.));
#382=DIRECTION('center_axis',(-1.,-1.27675647832283E-15,-1.29208838802064E-28));
#383=DIRECTION('ref_axis',(-1.27675647832283E-15,1.,4.22656658154493E-21));
#384=DIRECTION('center_axis',(-1.,-1.27675647832284E-15,-1.29208838802064E-28));
#385=DIRECTION('ref_axis',(-2.11385135161451E-12,0.707106781186732,-0.707106781186363));
#386=DIRECTION('',(-2.14784727181947E-28,2.69427703578903E-13,-1.));
#387=DIRECTION('center_axis',(-1.,-1.27675647832283E-15,-1.29208838802064E-28));
#388=DIRECTION('ref_axis',(-1.60777467769211E-12,-0.707106781186372,-0.707106781186724));
#389=DIRECTION('',(-1.27675647832287E-15,1.,2.68865565338744E-13));
#390=DIRECTION('center_axis',(-1.,-1.27675647832286E-15,-1.29208838802064E-28));
#391=DIRECTION('ref_axis',(-1.50728876033646E-12,0.707106781186724,-0.707106781186372));
#392=DIRECTION('',(2.11913872621799E-28,-2.67179150617632E-13,1.));
#393=DIRECTION('',(-1.27675647832285E-15,1.,2.60532405807184E-13));
#394=DIRECTION('center_axis',(-1.,-1.27675647832284E-15,-1.29208838802064E-28));
#395=DIRECTION('ref_axis',(-1.77643664296836E-12,-0.707106781186366,-0.707106781186729));
#396=DIRECTION('center_axis',(7.08988490677363E-14,1.,2.67179150617632E-13));
#397=DIRECTION('ref_axis',(-2.24528164185035E-12,2.67179150617791E-13,-1.));
#398=DIRECTION('',(-1.,7.08988490671365E-14,2.24514329630106E-12));
#399=DIRECTION('',(4.81482434025124E-35,2.67179150617632E-13,-1.));
#400=DIRECTION('center_axis',(1.,-7.08988490671365E-14,-2.24514329630106E-12));
#401=DIRECTION('ref_axis',(-1.50728876033646E-12,0.707106781186724,-0.707106781186372));
#402=DIRECTION('',(1.,-7.08988490671365E-14,-2.24514329630106E-12));
#403=DIRECTION('center_axis',(1.,1.43252092795182E-29,4.81482486096809E-35));
#404=DIRECTION('ref_axis',(-1.50728876033646E-12,0.707106781186724,-0.707106781186372));
#405=DIRECTION('center_axis',(-2.24514329630104E-12,2.5504945658785E-13,
-1.));
#406=DIRECTION('ref_axis',(-7.04270042822431E-14,-1.,-2.55049456587692E-13));
#407=DIRECTION('',(-1.,6.86784030178865E-14,2.24514329630106E-12));
#408=DIRECTION('',(2.46536444469849E-29,-1.,-2.68865565338741E-13));
#409=DIRECTION('center_axis',(-6.86784030184914E-14,-1.,-2.69427703578903E-13));
#410=DIRECTION('ref_axis',(2.24528164185035E-12,-2.69427703579057E-13,1.));
#411=DIRECTION('',(1.,-6.86784030178865E-14,-2.24514329630106E-12));
#412=DIRECTION('',(-4.81482501600008E-35,-2.69427703578903E-13,1.));
#413=DIRECTION('center_axis',(1.,-6.86784030178865E-14,-2.24514329630106E-12));
#414=DIRECTION('ref_axis',(-1.60777467769211E-12,-0.707106781186372,-0.707106781186724));
#415=DIRECTION('center_axis',(1.,-2.12467748550208E-29,4.81482486096809E-35));
#416=DIRECTION('ref_axis',(-1.60777467769211E-12,-0.707106781186372,-0.707106781186724));
#417=DIRECTION('center_axis',(-1.,2.12467748550208E-29,-4.81482486096809E-35));
#418=DIRECTION('ref_axis',(-4.81482486096809E-35,2.01948391736579E-28,1.));
#419=DIRECTION('center_axis',(1.,-1.09183396875541E-29,4.81482486096809E-35));
#420=DIRECTION('ref_axis',(-1.77643664296836E-12,-0.707106781186366,-0.707106781186729));
#421=DIRECTION('',(1.27675647832285E-15,-1.,-2.60532405807184E-13));
#422=DIRECTION('center_axis',(1.,-1.09183396875541E-29,4.81482486096809E-35));
#423=DIRECTION('ref_axis',(-2.11385135161451E-12,0.707106781186732,-0.707106781186363));
#424=DIRECTION('center_axis',(1.15555796276176E-33,-2.60532405807184E-13,
1.));
#425=DIRECTION('ref_axis',(1.27675647832286E-15,-1.,-2.60532405807184E-13));
#426=DIRECTION('',(-1.,-2.38907635129199E-13,2.75156312357567E-12));
#427=DIRECTION('center_axis',(-1.,-2.38907635129199E-13,2.75156312357567E-12));
#428=DIRECTION('ref_axis',(-2.11385135161451E-12,0.707106781186732,-0.707106781186363));
#429=DIRECTION('center_axis',(-1.,-2.38907635129199E-13,2.75156312357567E-12));
#430=DIRECTION('ref_axis',(-1.77643664296836E-12,-0.707106781186366,-0.707106781186729));
#431=CARTESIAN_POINT('',(0.,0.,0.));
#432=CARTESIAN_POINT('Origin',(334.999992370655,-416.714723256806,-93.0469468873898));
#433=CARTESIAN_POINT('',(331.999992370655,-416.714723256807,-93.0469468873815));
#434=CARTESIAN_POINT('',(334.999992370655,-416.714723256806,-93.0469468873898));
#435=CARTESIAN_POINT('',(335.89257488159,-416.714723256806,-93.0469468873922));
#436=CARTESIAN_POINT('',(331.999992370655,-269.914723256807,-93.0469468873438));
#437=CARTESIAN_POINT('',(331.999992370655,-416.714723256807,-93.0469468873815));
#438=CARTESIAN_POINT('',(334.999992370655,-269.914723256806,-93.0469468873521));
#439=CARTESIAN_POINT('',(331.999574881555,-269.914723256807,-93.0469468873438));
#440=CARTESIAN_POINT('',(334.999992370655,-416.714723256806,-93.0469468873898));
#441=CARTESIAN_POINT('Origin',(331.999992370654,-560.000000000139,360.095999999996));
#442=CARTESIAN_POINT('',(334.999992370655,-416.277818268944,360.096000000032));
#443=CARTESIAN_POINT('',(331.999992370655,-416.277818268943,360.096000000033));
#444=CARTESIAN_POINT('',(333.500079068922,-416.277818268943,360.096000000033));
#445=CARTESIAN_POINT('',(331.999992370654,-560.000000000139,360.095999999996));
#446=CARTESIAN_POINT('',(331.999992370655,-464.000000000115,360.09600000002));
#447=CARTESIAN_POINT('',(334.999992370654,-560.000000000121,360.095999999996));
#448=CARTESIAN_POINT('',(331.999992370654,-560.000000000129,360.095999999996));
#449=CARTESIAN_POINT('',(334.999992370655,-464.000000000115,360.09600000002));
#450=CARTESIAN_POINT('Origin',(331.999992370654,-560.000000000139,360.095999999996));
#451=CARTESIAN_POINT('',(331.999992370655,-269.677818268943,360.09600000007));
#452=CARTESIAN_POINT('',(334.999992370655,-269.677818268943,360.09600000007));
#453=CARTESIAN_POINT('',(333.500079068968,-269.677818268943,360.09600000007));
#454=CARTESIAN_POINT('',(334.999992370655,-126.000000000052,360.096000000106));
#455=CARTESIAN_POINT('',(334.999992370655,-464.000000000115,360.09600000002));
#456=CARTESIAN_POINT('',(331.999992370655,-126.000000000052,360.096000000106));
#457=CARTESIAN_POINT('',(331.999992370654,-126.000000000052,360.096000000106));
#458=CARTESIAN_POINT('',(331.999992370655,-464.000000000115,360.09600000002));
#459=CARTESIAN_POINT('Origin',(331.999992370654,-175.999999999928,-93.9039999999068));
#460=CARTESIAN_POINT('',(331.999992370655,-416.907664884146,-93.9039999999696));
#461=CARTESIAN_POINT('',(334.999992370655,-416.907664884145,-93.9039999999779));
#462=CARTESIAN_POINT('',(331.999574881588,-416.907664884146,-93.9039999999696));
#463=CARTESIAN_POINT('',(334.999992370654,-560.000000000006,-93.9040000000049));
#464=CARTESIAN_POINT('',(334.999992370654,-182.999999999909,-93.9039999999088));
#465=CARTESIAN_POINT('',(331.999992370654,-560.000000000006,-93.9040000000049));
#466=CARTESIAN_POINT('',(331.999992370654,-560.000000000006,-93.9040000000049));
#467=CARTESIAN_POINT('',(331.999992370654,-182.999999999909,-93.9039999999088));
#468=CARTESIAN_POINT('Origin',(331.999992370655,-560.000000000004,-128.904000000005));
#469=CARTESIAN_POINT('',(331.999992370654,-560.000000000109,240.973354245283));
#470=CARTESIAN_POINT('',(334.999992370654,-560.000000000109,310.973354245283));
#471=CARTESIAN_POINT('Origin',(331.999992370655,-126.00000000003,275.096000000106));
#472=CARTESIAN_POINT('',(334.999992370654,-125.999999999936,-93.903999999894));
#473=CARTESIAN_POINT('',(334.999992370655,-126.000000000004,174.096000000106));
#474=CARTESIAN_POINT('',(331.999992370654,-125.999999999936,-93.903999999894));
#475=CARTESIAN_POINT('',(331.999992370654,-125.999999999936,-93.9039999998938));
#476=CARTESIAN_POINT('',(331.999992370655,-126.000000000004,174.096000000106));
#477=CARTESIAN_POINT('Origin',(331.999992370655,-368.000000000017,73.0960000000441));
#478=CARTESIAN_POINT('Origin',(331.99999237021,-418.714723256807,-93.046946887382));
#479=CARTESIAN_POINT('',(331.999992370655,-416.277818268933,322.182579453072));
#480=CARTESIAN_POINT('',(331.999992370655,-416.277818268899,196.589289726548));
#481=CARTESIAN_POINT('',(331.999992370655,-414.277818268933,320.182579453073));
#482=CARTESIAN_POINT('Origin',(331.999992371211,-414.277818268933,322.182579453073));
#483=CARTESIAN_POINT('',(331.999992370655,-271.677818268932,320.182579453111));
#484=CARTESIAN_POINT('',(331.999992370655,-315.998909134508,320.182579453099));
#485=CARTESIAN_POINT('',(331.999992370655,-269.677818268933,322.18257945311));
#486=CARTESIAN_POINT('Origin',(331.999992371221,-271.677818268933,322.182579453109));
#487=CARTESIAN_POINT('',(331.999992370655,-269.677818268904,212.389289726588));
#488=CARTESIAN_POINT('',(331.999992370655,-269.721781629468,-93.9039999999313));
#489=CARTESIAN_POINT('',(331.999992370654,-182.999999999909,-93.9039999999088));
#490=CARTESIAN_POINT('Origin',(331.999992370174,-267.914723256807,-93.0469468873433));
#491=CARTESIAN_POINT('Origin',(335.000165767262,-269.677818268941,351.782579453105));
#492=CARTESIAN_POINT('',(334.999992370655,-269.677818268933,322.182579453103));
#493=CARTESIAN_POINT('',(335.000165767195,-269.677818268933,322.182579453103));
#494=CARTESIAN_POINT('',(334.999992370655,-269.677818268904,212.389289726588));
#495=CARTESIAN_POINT('Origin',(335.000165767195,-271.677818268933,322.182579453103));
#496=CARTESIAN_POINT('',(334.999992370655,-271.677818268933,320.182579453104));
#497=CARTESIAN_POINT('',(335.00016576719,-271.677818268933,320.182579453103));
#498=CARTESIAN_POINT('Origin',(334.999992371221,-271.677818268933,322.182579453103));
#499=CARTESIAN_POINT('Origin',(335.000165767181,-410.577818268932,320.182579453067));
#500=CARTESIAN_POINT('',(334.999992370655,-414.277818268933,320.182579453066));
#501=CARTESIAN_POINT('',(335.00016576718,-414.277818268933,320.182579453066));
#502=CARTESIAN_POINT('',(334.999992370655,-315.998909134508,320.182579453092));
#503=CARTESIAN_POINT('Origin',(335.00016576718,-416.277818268933,320.182579453066));
#504=CARTESIAN_POINT('',(334.999992370655,-416.277818268933,322.182579453066));
#505=CARTESIAN_POINT('',(335.000165767185,-416.277818268933,322.182579453066));
#506=CARTESIAN_POINT('',(334.999992370655,-416.2778182689,196.589289726548));
#507=CARTESIAN_POINT('Origin',(335.000165767185,-414.277818268933,322.182579453066));
#508=CARTESIAN_POINT('Origin',(334.999992371211,-414.277818268933,322.182579453066));
#509=CARTESIAN_POINT('Origin',(334.999992370655,-368.000000000017,73.0960000000441));
#510=CARTESIAN_POINT('',(334.999992370654,-269.721781629471,-93.9039999999314));
#511=CARTESIAN_POINT('Origin',(334.999992370174,-267.914723256806,-93.0469468873516));
#512=CARTESIAN_POINT('',(334.999992370654,-182.999999999909,-93.9039999999088));
#513=CARTESIAN_POINT('Origin',(334.99999237021,-418.714723256806,-93.0469468873902));
#514=CARTESIAN_POINT('Origin',(331.999992370654,-175.999999999928,-93.9039999999068));
#515=CARTESIAN_POINT('',(331.999574881553,-269.721781629468,-93.9039999999313));
#516=CARTESIAN_POINT('Origin',(331.999574881591,-418.714723256807,-93.046946887382));
#517=CARTESIAN_POINT('Origin',(331.999574881555,-267.914723256807,-93.0469468873433));
#518=UNCERTAINTY_MEASURE_WITH_UNIT(LENGTH_MEASURE(0.01),#522,
'DISTANCE_ACCURACY_VALUE',
'Maximum model space distance between geometric entities at asserted c
onnectivities');
#519=UNCERTAINTY_MEASURE_WITH_UNIT(LENGTH_MEASURE(0.01),#522,
'DISTANCE_ACCURACY_VALUE',
'Maximum model space distance between geometric entities at asserted c
onnectivities');
#520=(
GEOMETRIC_REPRESENTATION_CONTEXT(3)
GLOBAL_UNCERTAINTY_ASSIGNED_CONTEXT((#518))
GLOBAL_UNIT_ASSIGNED_CONTEXT((#522,#524,#525))
REPRESENTATION_CONTEXT('','3D')
);
#521=(
GEOMETRIC_REPRESENTATION_CONTEXT(3)
GLOBAL_UNCERTAINTY_ASSIGNED_CONTEXT((#519))
GLOBAL_UNIT_ASSIGNED_CONTEXT((#522,#524,#525))
REPRESENTATION_CONTEXT('','3D')
);
#522=(
LENGTH_UNIT()
NAMED_UNIT(*)
SI_UNIT(.MILLI.,.METRE.)
);
#523=(
LENGTH_UNIT()
NAMED_UNIT(*)
SI_UNIT($,.METRE.)
);
#524=(
NAMED_UNIT(*)
PLANE_ANGLE_UNIT()
SI_UNIT($,.RADIAN.)
);
#525=(
NAMED_UNIT(*)
SI_UNIT($,.STERADIAN.)
SOLID_ANGLE_UNIT()
);
#526=SHAPE_DEFINITION_REPRESENTATION(#527,#528);
#527=PRODUCT_DEFINITION_SHAPE('',$,#530);
#528=SHAPE_REPRESENTATION('',(#322),#520);
#529=PRODUCT_DEFINITION_CONTEXT('part definition',#534,'design');
#530=PRODUCT_DEFINITION('side_panel','side_panel (1) (1)',#531,#529);
#531=PRODUCT_DEFINITION_FORMATION('',$,#536);
#532=PRODUCT_RELATED_PRODUCT_CATEGORY('side_panel (1) (1)',
'side_panel (1) (1)',(#536));
#533=APPLICATION_PROTOCOL_DEFINITION('international standard',
'automotive_design',2009,#534);
#534=APPLICATION_CONTEXT(
'Core Data for Automotive Mechanical Design Process');
#535=PRODUCT_CONTEXT('part definition',#534,'mechanical');
#536=PRODUCT('side_panel','side_panel (1) (1)',$,(#535));
#537=PRESENTATION_STYLE_ASSIGNMENT((#539));
#538=PRESENTATION_STYLE_ASSIGNMENT((#540));
#539=SURFACE_STYLE_USAGE(.BOTH.,#541);
#540=SURFACE_STYLE_USAGE(.BOTH.,#542);
#541=SURFACE_SIDE_STYLE('',(#543));
#542=SURFACE_SIDE_STYLE('',(#544));
#543=SURFACE_STYLE_FILL_AREA(#545);
#544=SURFACE_STYLE_FILL_AREA(#546);
#545=FILL_AREA_STYLE('Acrylic (Clear)',(#547));
#546=FILL_AREA_STYLE('Opaque(245,245,246)',(#548));
#547=FILL_AREA_STYLE_COLOUR('Acrylic (Clear)',#549);
#548=FILL_AREA_STYLE_COLOUR('Opaque(245,245,246)',#550);
#549=COLOUR_RGB('Acrylic (Clear)',0.964705882352941,0.964705882352941,0.952941176470588);
#550=COLOUR_RGB('Opaque(245,245,246)',0.96078431372549,0.96078431372549,
0.964705882352941);
ENDSEC;
END-ISO-10303-21;
