ISO-10303-21;
HEADER;
/* Generated by software containing ST-Developer
 * from STEP Tools, Inc. (www.steptools.com) 
 */

FILE_DESCRIPTION(
/* description */ (''),
/* implementation_level */ '2;1');

FILE_NAME(
/* name */ 'back_inner_panel_x1.step',
/* time_stamp */ '2025-05-10T13:52:41+02:00',
/* author */ (''),
/* organization */ (''),
/* preprocessor_version */ 'ST-DEVELOPER v20.1',
/* originating_system */ 'Autodesk Translation Framework v14.4.0.0',
/* authorisation */ '');

FILE_SCHEMA (('AUTOMOTIVE_DESIGN { 1 0 10303 214 3 1 1 }'));
ENDSEC;

DATA;
#10=MECHANICAL_DESIGN_GEOMETRIC_PRESENTATION_REPRESENTATION('',(#13),#385);
#11=SHAPE_REPRESENTATION_RELATIONSHIP('SRR','None',#392,#12);
#12=ADVANCED_BREP_SHAPE_REPRESENTATION('',(#14),#384);
#13=STYLED_ITEM('',(#401),#14);
#14=MANIFOLD_SOLID_BREP('Body1',#229);
#15=PLANE('',#246);
#16=PLANE('',#250);
#17=PLANE('',#251);
#18=PLANE('',#252);
#19=PLANE('',#253);
#20=PLANE('',#254);
#21=PLANE('',#255);
#22=PLANE('',#256);
#23=PLANE('',#257);
#24=PLANE('',#258);
#25=FACE_OUTER_BOUND('',#37,.T.);
#26=FACE_OUTER_BOUND('',#38,.T.);
#27=FACE_OUTER_BOUND('',#39,.T.);
#28=FACE_OUTER_BOUND('',#40,.T.);
#29=FACE_OUTER_BOUND('',#41,.T.);
#30=FACE_OUTER_BOUND('',#42,.T.);
#31=FACE_OUTER_BOUND('',#43,.T.);
#32=FACE_OUTER_BOUND('',#44,.T.);
#33=FACE_OUTER_BOUND('',#45,.T.);
#34=FACE_OUTER_BOUND('',#46,.T.);
#35=FACE_OUTER_BOUND('',#47,.T.);
#36=FACE_OUTER_BOUND('',#48,.T.);
#37=EDGE_LOOP('',(#155,#156,#157,#158));
#38=EDGE_LOOP('',(#159,#160,#161,#162));
#39=EDGE_LOOP('',(#163,#164,#165,#166));
#40=EDGE_LOOP('',(#167,#168,#169,#170));
#41=EDGE_LOOP('',(#171,#172,#173,#174));
#42=EDGE_LOOP('',(#175,#176,#177,#178));
#43=EDGE_LOOP('',(#179,#180,#181,#182));
#44=EDGE_LOOP('',(#183,#184,#185,#186,#187,#188,#189,#190,#191,#192));
#45=EDGE_LOOP('',(#193,#194,#195,#196,#197,#198,#199,#200,#201,#202));
#46=EDGE_LOOP('',(#203,#204,#205,#206));
#47=EDGE_LOOP('',(#207,#208,#209,#210));
#48=EDGE_LOOP('',(#211,#212,#213,#214));
#49=LINE('',#325,#75);
#50=LINE('',#328,#76);
#51=LINE('',#331,#77);
#52=LINE('',#333,#78);
#53=LINE('',#334,#79);
#54=LINE('',#340,#80);
#55=LINE('',#343,#81);
#56=LINE('',#345,#82);
#57=LINE('',#346,#83);
#58=LINE('',#349,#84);
#59=LINE('',#351,#85);
#60=LINE('',#352,#86);
#61=LINE('',#355,#87);
#62=LINE('',#357,#88);
#63=LINE('',#358,#89);
#64=LINE('',#361,#90);
#65=LINE('',#363,#91);
#66=LINE('',#364,#92);
#67=LINE('',#367,#93);
#68=LINE('',#369,#94);
#69=LINE('',#370,#95);
#70=LINE('',#373,#96);
#71=LINE('',#375,#97);
#72=LINE('',#376,#98);
#73=LINE('',#378,#99);
#74=LINE('',#379,#100);
#75=VECTOR('',#265,10.);
#76=VECTOR('',#268,10.);
#77=VECTOR('',#271,10.);
#78=VECTOR('',#272,10.);
#79=VECTOR('',#273,10.);
#80=VECTOR('',#280,10.);
#81=VECTOR('',#283,10.);
#82=VECTOR('',#284,10.);
#83=VECTOR('',#285,10.);
#84=VECTOR('',#288,10.);
#85=VECTOR('',#289,10.);
#86=VECTOR('',#290,10.);
#87=VECTOR('',#293,10.);
#88=VECTOR('',#294,10.);
#89=VECTOR('',#295,10.);
#90=VECTOR('',#298,10.);
#91=VECTOR('',#299,10.);
#92=VECTOR('',#300,10.);
#93=VECTOR('',#303,10.);
#94=VECTOR('',#304,10.);
#95=VECTOR('',#305,10.);
#96=VECTOR('',#308,10.);
#97=VECTOR('',#309,10.);
#98=VECTOR('',#310,10.);
#99=VECTOR('',#313,10.);
#100=VECTOR('',#314,10.);
#101=CIRCLE('',#244,1.99999999999999);
#102=CIRCLE('',#245,1.99999999999999);
#103=CIRCLE('',#248,2.00000000000003);
#104=CIRCLE('',#249,2.00000000000003);
#105=VERTEX_POINT('',#321);
#106=VERTEX_POINT('',#322);
#107=VERTEX_POINT('',#324);
#108=VERTEX_POINT('',#326);
#109=VERTEX_POINT('',#330);
#110=VERTEX_POINT('',#332);
#111=VERTEX_POINT('',#336);
#112=VERTEX_POINT('',#338);
#113=VERTEX_POINT('',#342);
#114=VERTEX_POINT('',#344);
#115=VERTEX_POINT('',#348);
#116=VERTEX_POINT('',#350);
#117=VERTEX_POINT('',#354);
#118=VERTEX_POINT('',#356);
#119=VERTEX_POINT('',#360);
#120=VERTEX_POINT('',#362);
#121=VERTEX_POINT('',#366);
#122=VERTEX_POINT('',#368);
#123=VERTEX_POINT('',#372);
#124=VERTEX_POINT('',#374);
#125=EDGE_CURVE('',#105,#106,#101,.T.);
#126=EDGE_CURVE('',#107,#105,#49,.T.);
#127=EDGE_CURVE('',#108,#107,#102,.T.);
#128=EDGE_CURVE('',#108,#106,#50,.T.);
#129=EDGE_CURVE('',#106,#109,#51,.T.);
#130=EDGE_CURVE('',#110,#108,#52,.T.);
#131=EDGE_CURVE('',#110,#109,#53,.T.);
#132=EDGE_CURVE('',#109,#111,#103,.T.);
#133=EDGE_CURVE('',#112,#110,#104,.T.);
#134=EDGE_CURVE('',#112,#111,#54,.T.);
#135=EDGE_CURVE('',#111,#113,#55,.T.);
#136=EDGE_CURVE('',#114,#112,#56,.T.);
#137=EDGE_CURVE('',#113,#114,#57,.T.);
#138=EDGE_CURVE('',#115,#105,#58,.T.);
#139=EDGE_CURVE('',#116,#115,#59,.T.);
#140=EDGE_CURVE('',#107,#116,#60,.T.);
#141=EDGE_CURVE('',#117,#114,#61,.T.);
#142=EDGE_CURVE('',#117,#118,#62,.T.);
#143=EDGE_CURVE('',#118,#113,#63,.T.);
#144=EDGE_CURVE('',#115,#119,#64,.T.);
#145=EDGE_CURVE('',#120,#119,#65,.T.);
#146=EDGE_CURVE('',#116,#120,#66,.T.);
#147=EDGE_CURVE('',#118,#121,#67,.T.);
#148=EDGE_CURVE('',#121,#122,#68,.T.);
#149=EDGE_CURVE('',#119,#122,#69,.T.);
#150=EDGE_CURVE('',#123,#120,#70,.T.);
#151=EDGE_CURVE('',#124,#123,#71,.T.);
#152=EDGE_CURVE('',#124,#117,#72,.T.);
#153=EDGE_CURVE('',#124,#121,#73,.T.);
#154=EDGE_CURVE('',#122,#123,#74,.T.);
#155=ORIENTED_EDGE('',*,*,#125,.F.);
#156=ORIENTED_EDGE('',*,*,#126,.F.);
#157=ORIENTED_EDGE('',*,*,#127,.F.);
#158=ORIENTED_EDGE('',*,*,#128,.T.);
#159=ORIENTED_EDGE('',*,*,#129,.F.);
#160=ORIENTED_EDGE('',*,*,#128,.F.);
#161=ORIENTED_EDGE('',*,*,#130,.F.);
#162=ORIENTED_EDGE('',*,*,#131,.T.);
#163=ORIENTED_EDGE('',*,*,#132,.F.);
#164=ORIENTED_EDGE('',*,*,#131,.F.);
#165=ORIENTED_EDGE('',*,*,#133,.F.);
#166=ORIENTED_EDGE('',*,*,#134,.T.);
#167=ORIENTED_EDGE('',*,*,#135,.F.);
#168=ORIENTED_EDGE('',*,*,#134,.F.);
#169=ORIENTED_EDGE('',*,*,#136,.F.);
#170=ORIENTED_EDGE('',*,*,#137,.F.);
#171=ORIENTED_EDGE('',*,*,#138,.F.);
#172=ORIENTED_EDGE('',*,*,#139,.F.);
#173=ORIENTED_EDGE('',*,*,#140,.F.);
#174=ORIENTED_EDGE('',*,*,#126,.T.);
#175=ORIENTED_EDGE('',*,*,#137,.T.);
#176=ORIENTED_EDGE('',*,*,#141,.F.);
#177=ORIENTED_EDGE('',*,*,#142,.T.);
#178=ORIENTED_EDGE('',*,*,#143,.T.);
#179=ORIENTED_EDGE('',*,*,#139,.T.);
#180=ORIENTED_EDGE('',*,*,#144,.T.);
#181=ORIENTED_EDGE('',*,*,#145,.F.);
#182=ORIENTED_EDGE('',*,*,#146,.F.);
#183=ORIENTED_EDGE('',*,*,#138,.T.);
#184=ORIENTED_EDGE('',*,*,#125,.T.);
#185=ORIENTED_EDGE('',*,*,#129,.T.);
#186=ORIENTED_EDGE('',*,*,#132,.T.);
#187=ORIENTED_EDGE('',*,*,#135,.T.);
#188=ORIENTED_EDGE('',*,*,#143,.F.);
#189=ORIENTED_EDGE('',*,*,#147,.T.);
#190=ORIENTED_EDGE('',*,*,#148,.T.);
#191=ORIENTED_EDGE('',*,*,#149,.F.);
#192=ORIENTED_EDGE('',*,*,#144,.F.);
#193=ORIENTED_EDGE('',*,*,#140,.T.);
#194=ORIENTED_EDGE('',*,*,#146,.T.);
#195=ORIENTED_EDGE('',*,*,#150,.F.);
#196=ORIENTED_EDGE('',*,*,#151,.F.);
#197=ORIENTED_EDGE('',*,*,#152,.T.);
#198=ORIENTED_EDGE('',*,*,#141,.T.);
#199=ORIENTED_EDGE('',*,*,#136,.T.);
#200=ORIENTED_EDGE('',*,*,#133,.T.);
#201=ORIENTED_EDGE('',*,*,#130,.T.);
#202=ORIENTED_EDGE('',*,*,#127,.T.);
#203=ORIENTED_EDGE('',*,*,#153,.F.);
#204=ORIENTED_EDGE('',*,*,#151,.T.);
#205=ORIENTED_EDGE('',*,*,#154,.F.);
#206=ORIENTED_EDGE('',*,*,#148,.F.);
#207=ORIENTED_EDGE('',*,*,#145,.T.);
#208=ORIENTED_EDGE('',*,*,#149,.T.);
#209=ORIENTED_EDGE('',*,*,#154,.T.);
#210=ORIENTED_EDGE('',*,*,#150,.T.);
#211=ORIENTED_EDGE('',*,*,#142,.F.);
#212=ORIENTED_EDGE('',*,*,#152,.F.);
#213=ORIENTED_EDGE('',*,*,#153,.T.);
#214=ORIENTED_EDGE('',*,*,#147,.F.);
#215=CYLINDRICAL_SURFACE('',#243,1.99999999999999);
#216=CYLINDRICAL_SURFACE('',#247,2.00000000000003);
#217=ADVANCED_FACE('',(#25),#215,.F.);
#218=ADVANCED_FACE('',(#26),#15,.F.);
#219=ADVANCED_FACE('',(#27),#216,.F.);
#220=ADVANCED_FACE('',(#28),#16,.F.);
#221=ADVANCED_FACE('',(#29),#17,.F.);
#222=ADVANCED_FACE('',(#30),#18,.T.);
#223=ADVANCED_FACE('',(#31),#19,.T.);
#224=ADVANCED_FACE('',(#32),#20,.T.);
#225=ADVANCED_FACE('',(#33),#21,.T.);
#226=ADVANCED_FACE('',(#34),#22,.T.);
#227=ADVANCED_FACE('',(#35),#23,.T.);
#228=ADVANCED_FACE('',(#36),#24,.F.);
#229=CLOSED_SHELL('',(#217,#218,#219,#220,#221,#222,#223,#224,#225,#226,
#227,#228));
#230=DERIVED_UNIT_ELEMENT(#232,1.);
#231=DERIVED_UNIT_ELEMENT(#387,-3.);
#232=(
MASS_UNIT()
NAMED_UNIT(*)
SI_UNIT(.KILO.,.GRAM.)
);
#233=DERIVED_UNIT((#230,#231));
#234=MEASURE_REPRESENTATION_ITEM('density measure',
POSITIVE_RATIO_MEASURE(7850.),#233);
#235=PROPERTY_DEFINITION_REPRESENTATION(#240,#237);
#236=PROPERTY_DEFINITION_REPRESENTATION(#241,#238);
#237=REPRESENTATION('material name',(#239),#384);
#238=REPRESENTATION('density',(#234),#384);
#239=DESCRIPTIVE_REPRESENTATION_ITEM('Steel','Steel');
#240=PROPERTY_DEFINITION('material property','material name',#394);
#241=PROPERTY_DEFINITION('material property','density of part',#394);
#242=AXIS2_PLACEMENT_3D('',#319,#259,#260);
#243=AXIS2_PLACEMENT_3D('',#320,#261,#262);
#244=AXIS2_PLACEMENT_3D('',#323,#263,#264);
#245=AXIS2_PLACEMENT_3D('',#327,#266,#267);
#246=AXIS2_PLACEMENT_3D('',#329,#269,#270);
#247=AXIS2_PLACEMENT_3D('',#335,#274,#275);
#248=AXIS2_PLACEMENT_3D('',#337,#276,#277);
#249=AXIS2_PLACEMENT_3D('',#339,#278,#279);
#250=AXIS2_PLACEMENT_3D('',#341,#281,#282);
#251=AXIS2_PLACEMENT_3D('',#347,#286,#287);
#252=AXIS2_PLACEMENT_3D('',#353,#291,#292);
#253=AXIS2_PLACEMENT_3D('',#359,#296,#297);
#254=AXIS2_PLACEMENT_3D('',#365,#301,#302);
#255=AXIS2_PLACEMENT_3D('',#371,#306,#307);
#256=AXIS2_PLACEMENT_3D('',#377,#311,#312);
#257=AXIS2_PLACEMENT_3D('',#380,#315,#316);
#258=AXIS2_PLACEMENT_3D('',#381,#317,#318);
#259=DIRECTION('axis',(0.,0.,1.));
#260=DIRECTION('refdir',(1.,0.,0.));
#261=DIRECTION('center_axis',(-1.,1.09609379884688E-15,-4.36159045388298E-16));
#262=DIRECTION('ref_axis',(-4.36159045388301E-16,-1.61211691269962E-16,
1.));
#263=DIRECTION('center_axis',(1.,0.,0.));
#264=DIRECTION('ref_axis',(-4.36159045388301E-16,-1.61211691269962E-16,
1.));
#265=DIRECTION('',(-1.,1.09609379884688E-15,-4.36159045388298E-16));
#266=DIRECTION('center_axis',(-1.,0.,0.));
#267=DIRECTION('ref_axis',(-4.36159045388301E-16,-1.61211691269962E-16,
1.));
#268=DIRECTION('',(-1.,1.09609379884688E-15,-4.36159045388298E-16));
#269=DIRECTION('center_axis',(-1.09609379884689E-15,-1.,1.27939854544261E-14));
#270=DIRECTION('ref_axis',(-1.11022302128791E-16,1.27939854544261E-14,1.));
#271=DIRECTION('',(0.,-1.27939854544261E-14,-1.));
#272=DIRECTION('',(0.,1.27939854544261E-14,1.));
#273=DIRECTION('',(-1.,1.09609379884688E-15,-4.36159045388298E-16));
#274=DIRECTION('center_axis',(-1.,1.09609379884688E-15,-4.36159045388298E-16));
#275=DIRECTION('ref_axis',(-1.09609379884689E-15,-1.,1.76023567027323E-14));
#276=DIRECTION('center_axis',(1.,0.,0.));
#277=DIRECTION('ref_axis',(-1.09609379884689E-15,-1.,1.76023567027323E-14));
#278=DIRECTION('center_axis',(-1.,0.,0.));
#279=DIRECTION('ref_axis',(-1.09609379884689E-15,-1.,1.76023567027323E-14));
#280=DIRECTION('',(-1.,1.09609379884688E-15,-4.36159045388298E-16));
#281=DIRECTION('center_axis',(4.36159045388297E-16,-1.24437779164129E-15,
-1.));
#282=DIRECTION('ref_axis',(6.31100113877346E-16,-1.,1.24437779164129E-15));
#283=DIRECTION('',(0.,1.,-1.24437779164129E-15));
#284=DIRECTION('',(0.,-1.,1.24437779164129E-15));
#285=DIRECTION('',(1.,0.,4.36159045388297E-16));
#286=DIRECTION('center_axis',(-4.36159045388298E-16,-1.61211691269964E-16,
1.));
#287=DIRECTION('ref_axis',(-1.86533440002556E-15,1.,1.61211691269963E-16));
#288=DIRECTION('',(0.,-1.,-1.61211691269964E-16));
#289=DIRECTION('',(-1.,0.,-4.36159045388298E-16));
#290=DIRECTION('',(0.,1.,1.61211691269964E-16));
#291=DIRECTION('center_axis',(0.,1.,0.));
#292=DIRECTION('ref_axis',(-1.,0.,0.));
#293=DIRECTION('',(0.,0.,1.));
#294=DIRECTION('',(-1.,0.,0.));
#295=DIRECTION('',(0.,0.,1.));
#296=DIRECTION('center_axis',(0.,1.,0.));
#297=DIRECTION('ref_axis',(-1.,0.,0.));
#298=DIRECTION('',(0.,0.,1.));
#299=DIRECTION('',(-1.,0.,0.));
#300=DIRECTION('',(0.,0.,1.));
#301=DIRECTION('center_axis',(-1.,0.,0.));
#302=DIRECTION('ref_axis',(0.,-1.,0.));
#303=DIRECTION('',(0.,-1.,0.));
#304=DIRECTION('',(0.,0.,1.));
#305=DIRECTION('',(0.,-1.,0.));
#306=DIRECTION('center_axis',(1.,0.,0.));
#307=DIRECTION('ref_axis',(0.,1.,0.));
#308=DIRECTION('',(0.,1.,0.));
#309=DIRECTION('',(0.,0.,1.));
#310=DIRECTION('',(0.,1.,0.));
#311=DIRECTION('center_axis',(0.,-1.,0.));
#312=DIRECTION('ref_axis',(1.,0.,0.));
#313=DIRECTION('',(-1.,0.,0.));
#314=DIRECTION('',(1.,0.,0.));
#315=DIRECTION('center_axis',(0.,0.,1.));
#316=DIRECTION('ref_axis',(1.,0.,0.));
#317=DIRECTION('center_axis',(0.,0.,1.));
#318=DIRECTION('ref_axis',(-1.,0.,0.));
#319=CARTESIAN_POINT('',(0.,0.,0.));
#320=CARTESIAN_POINT('Origin',(95.3740353440112,190.1745877545,69.7189353743002));
#321=CARTESIAN_POINT('',(92.1240448619048,190.1745877545,71.7189353743002));
#322=CARTESIAN_POINT('',(92.1240448619048,188.1745877545,69.7189353743003));
#323=CARTESIAN_POINT('Origin',(92.1240448619047,190.1745877545,69.7189353743002));
#324=CARTESIAN_POINT('',(95.3740448619048,190.1745877545,71.7189353743002));
#325=CARTESIAN_POINT('',(95.3740353440112,190.1745877545,71.7189353743002));
#326=CARTESIAN_POINT('',(95.3740353440112,188.1745877545,69.7189353743003));
#327=CARTESIAN_POINT('Origin',(95.3740448619051,190.1745877545,69.7189353743002));
#328=CARTESIAN_POINT('',(95.3740353440112,188.1745877545,69.7189353743003));
#329=CARTESIAN_POINT('Origin',(95.3740353440111,188.174587754498,-72.8810646257));
#330=CARTESIAN_POINT('',(92.1240448619048,188.174587754498,-72.8810646257));
#331=CARTESIAN_POINT('',(92.1240448619048,188.174587754497,-138.94053231285));
#332=CARTESIAN_POINT('',(95.3740353440111,188.174587754498,-72.8810646257));
#333=CARTESIAN_POINT('',(95.3740448619048,188.174587754497,-138.940532312852));
#334=CARTESIAN_POINT('',(95.3740353440111,188.174587754498,-72.8810646257));
#335=CARTESIAN_POINT('Origin',(95.3740353440111,190.174587754498,-72.8810646257));
#336=CARTESIAN_POINT('',(92.1240448619048,190.174587754498,-74.8810646257));
#337=CARTESIAN_POINT('Origin',(92.1240448619047,190.174587754498,-72.8810646257));
#338=CARTESIAN_POINT('',(95.3740448619048,190.174587754498,-74.8810646257));
#339=CARTESIAN_POINT('Origin',(95.3740448619052,190.174587754498,-72.8810646257));
#340=CARTESIAN_POINT('',(95.3740353440111,190.174587754498,-74.8810646257));
#341=CARTESIAN_POINT('Origin',(95.3740353440111,214.5,-74.8810646257));
#342=CARTESIAN_POINT('',(92.1240448619048,214.5,-74.8810646257));
#343=CARTESIAN_POINT('',(92.1240448619048,214.5,-74.8810646257));
#344=CARTESIAN_POINT('',(95.3740353440112,214.5,-74.8810646257));
#345=CARTESIAN_POINT('',(95.3740448619048,8.09585567258935E-14,-74.8810646256997));
#346=CARTESIAN_POINT('',(95.3740401029579,214.5,-74.8810646257));
#347=CARTESIAN_POINT('Origin',(95.3740353440112,190.1745877545,71.7189353743002));
#348=CARTESIAN_POINT('',(92.1240448619048,214.5,71.7189353743002));
#349=CARTESIAN_POINT('',(92.1240448619048,202.33729387725,71.7189353743002));
#350=CARTESIAN_POINT('',(95.3740353440112,214.5,71.7189353743002));
#351=CARTESIAN_POINT('',(95.374040102958,214.5,71.7189353743002));
#352=CARTESIAN_POINT('',(95.3740448619048,-12.16270612275,71.7189353743002));
#353=CARTESIAN_POINT('Origin',(95.3740448619048,214.5,-205.));
#354=CARTESIAN_POINT('',(95.3740448619048,214.5,-205.));
#355=CARTESIAN_POINT('',(95.3740448619048,214.5,-205.));
#356=CARTESIAN_POINT('',(92.1240448619048,214.5,-205.));
#357=CARTESIAN_POINT('',(95.3740448619048,214.5,-205.));
#358=CARTESIAN_POINT('',(92.1240448619048,214.5,-205.));
#359=CARTESIAN_POINT('Origin',(95.3740448619048,214.5,-205.));
#360=CARTESIAN_POINT('',(92.1240448619048,214.5,204.));
#361=CARTESIAN_POINT('',(92.1240448619048,214.5,-205.));
#362=CARTESIAN_POINT('',(95.3740448619048,214.5,204.));
#363=CARTESIAN_POINT('',(95.3740448619048,214.5,204.));
#364=CARTESIAN_POINT('',(95.3740448619048,214.5,-205.));
#365=CARTESIAN_POINT('Origin',(92.1240448619048,214.5,-205.));
#366=CARTESIAN_POINT('',(92.1240448619048,-214.5,-205.));
#367=CARTESIAN_POINT('',(92.1240448619048,214.5,-205.));
#368=CARTESIAN_POINT('',(92.1240448619048,-214.5,204.));
#369=CARTESIAN_POINT('',(92.1240448619048,-214.5,-205.));
#370=CARTESIAN_POINT('',(92.1240448619048,214.5,204.));
#371=CARTESIAN_POINT('Origin',(95.3740448619048,-214.5,-205.));
#372=CARTESIAN_POINT('',(95.3740448619048,-214.5,204.));
#373=CARTESIAN_POINT('',(95.3740448619048,-214.5,204.));
#374=CARTESIAN_POINT('',(95.3740448619048,-214.5,-205.));
#375=CARTESIAN_POINT('',(95.3740448619048,-214.5,-205.));
#376=CARTESIAN_POINT('',(95.3740448619048,-214.5,-205.));
#377=CARTESIAN_POINT('Origin',(92.1240448619048,-214.5,-205.));
#378=CARTESIAN_POINT('',(95.3740448619048,-214.5,-205.));
#379=CARTESIAN_POINT('',(95.3740448619048,-214.5,204.));
#380=CARTESIAN_POINT('Origin',(93.7490448619048,0.,204.));
#381=CARTESIAN_POINT('Origin',(93.7490448619048,0.,-205.));
#382=UNCERTAINTY_MEASURE_WITH_UNIT(LENGTH_MEASURE(0.01),#386,
'DISTANCE_ACCURACY_VALUE',
'Maximum model space distance between geometric entities at asserted c
onnectivities');
#383=UNCERTAINTY_MEASURE_WITH_UNIT(LENGTH_MEASURE(0.01),#386,
'DISTANCE_ACCURACY_VALUE',
'Maximum model space distance between geometric entities at asserted c
onnectivities');
#384=(
GEOMETRIC_REPRESENTATION_CONTEXT(3)
GLOBAL_UNCERTAINTY_ASSIGNED_CONTEXT((#382))
GLOBAL_UNIT_ASSIGNED_CONTEXT((#386,#388,#389))
REPRESENTATION_CONTEXT('','3D')
);
#385=(
GEOMETRIC_REPRESENTATION_CONTEXT(3)
GLOBAL_UNCERTAINTY_ASSIGNED_CONTEXT((#383))
GLOBAL_UNIT_ASSIGNED_CONTEXT((#386,#388,#389))
REPRESENTATION_CONTEXT('','3D')
);
#386=(
LENGTH_UNIT()
NAMED_UNIT(*)
SI_UNIT(.MILLI.,.METRE.)
);
#387=(
LENGTH_UNIT()
NAMED_UNIT(*)
SI_UNIT($,.METRE.)
);
#388=(
NAMED_UNIT(*)
PLANE_ANGLE_UNIT()
SI_UNIT($,.RADIAN.)
);
#389=(
NAMED_UNIT(*)
SI_UNIT($,.STERADIAN.)
SOLID_ANGLE_UNIT()
);
#390=SHAPE_DEFINITION_REPRESENTATION(#391,#392);
#391=PRODUCT_DEFINITION_SHAPE('',$,#394);
#392=SHAPE_REPRESENTATION('',(#242),#384);
#393=PRODUCT_DEFINITION_CONTEXT('part definition',#398,'design');
#394=PRODUCT_DEFINITION('PrimaryPanels (1) (1)','PrimaryPanels (1) (1)',
#395,#393);
#395=PRODUCT_DEFINITION_FORMATION('',$,#400);
#396=PRODUCT_RELATED_PRODUCT_CATEGORY('PrimaryPanels (1) (1)',
'PrimaryPanels (1) (1)',(#400));
#397=APPLICATION_PROTOCOL_DEFINITION('international standard',
'automotive_design',2009,#398);
#398=APPLICATION_CONTEXT(
'Core Data for Automotive Mechanical Design Process');
#399=PRODUCT_CONTEXT('part definition',#398,'mechanical');
#400=PRODUCT('PrimaryPanels (1) (1)','PrimaryPanels (1) (1)',$,(#399));
#401=PRESENTATION_STYLE_ASSIGNMENT((#402));
#402=SURFACE_STYLE_USAGE(.BOTH.,#403);
#403=SURFACE_SIDE_STYLE('',(#404));
#404=SURFACE_STYLE_FILL_AREA(#405);
#405=FILL_AREA_STYLE('Steel - Satin',(#406));
#406=FILL_AREA_STYLE_COLOUR('Steel - Satin',#407);
#407=COLOUR_RGB('Steel - Satin',0.627450980392157,0.627450980392157,0.627450980392157);
ENDSEC;
END-ISO-10303-21;
