ISO-10303-21;
HEADER;
/* Generated by software containing ST-Developer
 * from STEP Tools, Inc. (www.steptools.com) 
 */

FILE_DESCRIPTION(
/* description */ (''),
/* implementation_level */ '2;1');

FILE_NAME(
/* name */ 'bottom_panel_x2.step',
/* time_stamp */ '2025-05-09T22:50:53+02:00',
/* author */ (''),
/* organization */ (''),
/* preprocessor_version */ 'ST-DEVELOPER v20.1',
/* originating_system */ 'Autodesk Translation Framework v14.4.0.0',
/* authorisation */ '');

FILE_SCHEMA (('AUTOMOTIVE_DESIGN { 1 0 10303 214 3 1 1 }'));
ENDSEC;

DATA;
#10=MECHANICAL_DESIGN_GEOMETRIC_PRESENTATION_REPRESENTATION('',(#13),#945);
#11=SHAPE_REPRESENTATION_RELATIONSHIP('SRR','None',#952,#12);
#12=ADVANCED_BREP_SHAPE_REPRESENTATION('',(#14),#944);
#13=STYLED_ITEM('',(#962),#14);
#14=MANIFOLD_SOLID_BREP('Body1',#549);
#15=FACE_BOUND('',#65,.T.);
#16=FACE_BOUND('',#66,.T.);
#17=FACE_BOUND('',#91,.T.);
#18=FACE_BOUND('',#92,.T.);
#19=PLANE('',#572);
#20=PLANE('',#584);
#21=PLANE('',#589);
#22=PLANE('',#592);
#23=PLANE('',#597);
#24=PLANE('',#600);
#25=PLANE('',#605);
#26=PLANE('',#608);
#27=PLANE('',#613);
#28=PLANE('',#614);
#29=PLANE('',#615);
#30=PLANE('',#616);
#31=PLANE('',#617);
#32=PLANE('',#618);
#33=FACE_OUTER_BOUND('',#61,.T.);
#34=FACE_OUTER_BOUND('',#62,.T.);
#35=FACE_OUTER_BOUND('',#63,.T.);
#36=FACE_OUTER_BOUND('',#64,.T.);
#37=FACE_OUTER_BOUND('',#67,.T.);
#38=FACE_OUTER_BOUND('',#68,.T.);
#39=FACE_OUTER_BOUND('',#69,.T.);
#40=FACE_OUTER_BOUND('',#70,.T.);
#41=FACE_OUTER_BOUND('',#71,.T.);
#42=FACE_OUTER_BOUND('',#72,.T.);
#43=FACE_OUTER_BOUND('',#73,.T.);
#44=FACE_OUTER_BOUND('',#74,.T.);
#45=FACE_OUTER_BOUND('',#75,.T.);
#46=FACE_OUTER_BOUND('',#76,.T.);
#47=FACE_OUTER_BOUND('',#77,.T.);
#48=FACE_OUTER_BOUND('',#78,.T.);
#49=FACE_OUTER_BOUND('',#79,.T.);
#50=FACE_OUTER_BOUND('',#80,.T.);
#51=FACE_OUTER_BOUND('',#81,.T.);
#52=FACE_OUTER_BOUND('',#82,.T.);
#53=FACE_OUTER_BOUND('',#83,.T.);
#54=FACE_OUTER_BOUND('',#84,.T.);
#55=FACE_OUTER_BOUND('',#85,.T.);
#56=FACE_OUTER_BOUND('',#86,.T.);
#57=FACE_OUTER_BOUND('',#87,.T.);
#58=FACE_OUTER_BOUND('',#88,.T.);
#59=FACE_OUTER_BOUND('',#89,.T.);
#60=FACE_OUTER_BOUND('',#90,.T.);
#61=EDGE_LOOP('',(#351,#352,#353,#354));
#62=EDGE_LOOP('',(#355,#356,#357,#358));
#63=EDGE_LOOP('',(#359,#360,#361,#362));
#64=EDGE_LOOP('',(#363,#364,#365,#366,#367,#368,#369,#370,#371,#372,#373,
#374,#375,#376,#377,#378,#379,#380,#381,#382,#383,#384,#385,#386));
#65=EDGE_LOOP('',(#387));
#66=EDGE_LOOP('',(#388));
#67=EDGE_LOOP('',(#389,#390,#391,#392));
#68=EDGE_LOOP('',(#393,#394,#395,#396));
#69=EDGE_LOOP('',(#397,#398,#399,#400));
#70=EDGE_LOOP('',(#401,#402,#403,#404));
#71=EDGE_LOOP('',(#405,#406,#407,#408));
#72=EDGE_LOOP('',(#409,#410,#411,#412));
#73=EDGE_LOOP('',(#413,#414,#415,#416));
#74=EDGE_LOOP('',(#417,#418,#419,#420));
#75=EDGE_LOOP('',(#421,#422,#423,#424));
#76=EDGE_LOOP('',(#425,#426,#427,#428));
#77=EDGE_LOOP('',(#429,#430,#431,#432));
#78=EDGE_LOOP('',(#433,#434,#435,#436));
#79=EDGE_LOOP('',(#437,#438,#439,#440));
#80=EDGE_LOOP('',(#441,#442,#443,#444));
#81=EDGE_LOOP('',(#445,#446,#447,#448));
#82=EDGE_LOOP('',(#449,#450,#451,#452));
#83=EDGE_LOOP('',(#453,#454,#455,#456));
#84=EDGE_LOOP('',(#457,#458,#459,#460));
#85=EDGE_LOOP('',(#461,#462,#463,#464));
#86=EDGE_LOOP('',(#465,#466,#467,#468));
#87=EDGE_LOOP('',(#469,#470,#471,#472));
#88=EDGE_LOOP('',(#473,#474,#475,#476));
#89=EDGE_LOOP('',(#477,#478,#479,#480));
#90=EDGE_LOOP('',(#481,#482,#483,#484,#485,#486,#487,#488,#489,#490,#491,
#492,#493,#494,#495,#496,#497,#498,#499,#500,#501,#502,#503,#504));
#91=EDGE_LOOP('',(#505));
#92=EDGE_LOOP('',(#506));
#93=LINE('',#788,#143);
#94=LINE('',#794,#144);
#95=LINE('',#801,#145);
#96=LINE('',#804,#146);
#97=LINE('',#807,#147);
#98=LINE('',#811,#148);
#99=LINE('',#815,#149);
#100=LINE('',#819,#150);
#101=LINE('',#823,#151);
#102=LINE('',#827,#152);
#103=LINE('',#831,#153);
#104=LINE('',#835,#154);
#105=LINE('',#839,#155);
#106=LINE('',#843,#156);
#107=LINE('',#847,#157);
#108=LINE('',#850,#158);
#109=LINE('',#853,#159);
#110=LINE('',#854,#160);
#111=LINE('',#858,#161);
#112=LINE('',#863,#162);
#113=LINE('',#864,#163);
#114=LINE('',#866,#164);
#115=LINE('',#871,#165);
#116=LINE('',#872,#166);
#117=LINE('',#875,#167);
#118=LINE('',#876,#168);
#119=LINE('',#880,#169);
#120=LINE('',#885,#170);
#121=LINE('',#886,#171);
#122=LINE('',#888,#172);
#123=LINE('',#893,#173);
#124=LINE('',#894,#174);
#125=LINE('',#897,#175);
#126=LINE('',#898,#176);
#127=LINE('',#902,#177);
#128=LINE('',#907,#178);
#129=LINE('',#908,#179);
#130=LINE('',#910,#180);
#131=LINE('',#915,#181);
#132=LINE('',#916,#182);
#133=LINE('',#919,#183);
#134=LINE('',#920,#184);
#135=LINE('',#924,#185);
#136=LINE('',#929,#186);
#137=LINE('',#930,#187);
#138=LINE('',#932,#188);
#139=LINE('',#934,#189);
#140=LINE('',#936,#190);
#141=LINE('',#938,#191);
#142=LINE('',#940,#192);
#143=VECTOR('',#625,12.05);
#144=VECTOR('',#632,14.55);
#145=VECTOR('',#639,10.);
#146=VECTOR('',#642,10.);
#147=VECTOR('',#645,10.);
#148=VECTOR('',#648,10.);
#149=VECTOR('',#651,10.);
#150=VECTOR('',#654,10.);
#151=VECTOR('',#657,10.);
#152=VECTOR('',#660,10.);
#153=VECTOR('',#663,10.);
#154=VECTOR('',#666,10.);
#155=VECTOR('',#669,10.);
#156=VECTOR('',#672,10.);
#157=VECTOR('',#675,10.);
#158=VECTOR('',#678,10.);
#159=VECTOR('',#681,10.);
#160=VECTOR('',#682,10.);
#161=VECTOR('',#687,10.);
#162=VECTOR('',#692,10.);
#163=VECTOR('',#693,10.);
#164=VECTOR('',#696,10.);
#165=VECTOR('',#701,10.);
#166=VECTOR('',#702,10.);
#167=VECTOR('',#705,10.);
#168=VECTOR('',#706,10.);
#169=VECTOR('',#711,10.);
#170=VECTOR('',#716,10.);
#171=VECTOR('',#717,10.);
#172=VECTOR('',#720,10.);
#173=VECTOR('',#725,10.);
#174=VECTOR('',#726,10.);
#175=VECTOR('',#729,10.);
#176=VECTOR('',#730,10.);
#177=VECTOR('',#735,10.);
#178=VECTOR('',#740,10.);
#179=VECTOR('',#741,10.);
#180=VECTOR('',#744,10.);
#181=VECTOR('',#749,10.);
#182=VECTOR('',#750,10.);
#183=VECTOR('',#753,10.);
#184=VECTOR('',#754,10.);
#185=VECTOR('',#759,10.);
#186=VECTOR('',#764,10.);
#187=VECTOR('',#765,10.);
#188=VECTOR('',#768,10.);
#189=VECTOR('',#771,10.);
#190=VECTOR('',#774,10.);
#191=VECTOR('',#777,10.);
#192=VECTOR('',#780,10.);
#193=CIRCLE('',#564,12.05);
#194=CIRCLE('',#565,12.05);
#195=CIRCLE('',#567,14.55);
#196=CIRCLE('',#568,14.55);
#197=CIRCLE('',#570,5.);
#198=CIRCLE('',#571,5.);
#199=CIRCLE('',#573,5.);
#200=CIRCLE('',#574,5.);
#201=CIRCLE('',#575,5.);
#202=CIRCLE('',#576,5.);
#203=CIRCLE('',#577,5.);
#204=CIRCLE('',#578,5.);
#205=CIRCLE('',#579,5.);
#206=CIRCLE('',#580,5.);
#207=CIRCLE('',#581,5.);
#208=CIRCLE('',#582,5.);
#209=CIRCLE('',#583,5.);
#210=CIRCLE('',#586,5.);
#211=CIRCLE('',#588,5.);
#212=CIRCLE('',#591,5.);
#213=CIRCLE('',#594,5.);
#214=CIRCLE('',#596,5.);
#215=CIRCLE('',#599,5.);
#216=CIRCLE('',#602,5.);
#217=CIRCLE('',#604,5.);
#218=CIRCLE('',#607,5.);
#219=CIRCLE('',#610,5.);
#220=CIRCLE('',#612,5.);
#221=VERTEX_POINT('',#785);
#222=VERTEX_POINT('',#787);
#223=VERTEX_POINT('',#791);
#224=VERTEX_POINT('',#793);
#225=VERTEX_POINT('',#797);
#226=VERTEX_POINT('',#798);
#227=VERTEX_POINT('',#800);
#228=VERTEX_POINT('',#802);
#229=VERTEX_POINT('',#806);
#230=VERTEX_POINT('',#808);
#231=VERTEX_POINT('',#810);
#232=VERTEX_POINT('',#812);
#233=VERTEX_POINT('',#814);
#234=VERTEX_POINT('',#816);
#235=VERTEX_POINT('',#818);
#236=VERTEX_POINT('',#820);
#237=VERTEX_POINT('',#822);
#238=VERTEX_POINT('',#824);
#239=VERTEX_POINT('',#826);
#240=VERTEX_POINT('',#828);
#241=VERTEX_POINT('',#830);
#242=VERTEX_POINT('',#832);
#243=VERTEX_POINT('',#834);
#244=VERTEX_POINT('',#836);
#245=VERTEX_POINT('',#838);
#246=VERTEX_POINT('',#840);
#247=VERTEX_POINT('',#842);
#248=VERTEX_POINT('',#844);
#249=VERTEX_POINT('',#846);
#250=VERTEX_POINT('',#848);
#251=VERTEX_POINT('',#852);
#252=VERTEX_POINT('',#856);
#253=VERTEX_POINT('',#860);
#254=VERTEX_POINT('',#861);
#255=VERTEX_POINT('',#868);
#256=VERTEX_POINT('',#869);
#257=VERTEX_POINT('',#874);
#258=VERTEX_POINT('',#878);
#259=VERTEX_POINT('',#882);
#260=VERTEX_POINT('',#883);
#261=VERTEX_POINT('',#890);
#262=VERTEX_POINT('',#891);
#263=VERTEX_POINT('',#896);
#264=VERTEX_POINT('',#900);
#265=VERTEX_POINT('',#904);
#266=VERTEX_POINT('',#905);
#267=VERTEX_POINT('',#912);
#268=VERTEX_POINT('',#913);
#269=VERTEX_POINT('',#918);
#270=VERTEX_POINT('',#922);
#271=VERTEX_POINT('',#926);
#272=VERTEX_POINT('',#927);
#273=EDGE_CURVE('',#221,#221,#193,.T.);
#274=EDGE_CURVE('',#221,#222,#93,.T.);
#275=EDGE_CURVE('',#222,#222,#194,.T.);
#276=EDGE_CURVE('',#223,#223,#195,.T.);
#277=EDGE_CURVE('',#223,#224,#94,.T.);
#278=EDGE_CURVE('',#224,#224,#196,.T.);
#279=EDGE_CURVE('',#225,#226,#197,.T.);
#280=EDGE_CURVE('',#226,#227,#95,.T.);
#281=EDGE_CURVE('',#227,#228,#198,.T.);
#282=EDGE_CURVE('',#228,#225,#96,.T.);
#283=EDGE_CURVE('',#227,#229,#97,.T.);
#284=EDGE_CURVE('',#230,#229,#199,.T.);
#285=EDGE_CURVE('',#230,#231,#98,.T.);
#286=EDGE_CURVE('',#232,#231,#200,.T.);
#287=EDGE_CURVE('',#233,#232,#99,.T.);
#288=EDGE_CURVE('',#234,#233,#201,.T.);
#289=EDGE_CURVE('',#235,#234,#100,.T.);
#290=EDGE_CURVE('',#236,#235,#202,.T.);
#291=EDGE_CURVE('',#237,#236,#101,.T.);
#292=EDGE_CURVE('',#238,#237,#203,.T.);
#293=EDGE_CURVE('',#239,#238,#102,.T.);
#294=EDGE_CURVE('',#240,#239,#204,.T.);
#295=EDGE_CURVE('',#240,#241,#103,.T.);
#296=EDGE_CURVE('',#242,#241,#205,.T.);
#297=EDGE_CURVE('',#242,#243,#104,.T.);
#298=EDGE_CURVE('',#244,#243,#206,.T.);
#299=EDGE_CURVE('',#245,#244,#105,.T.);
#300=EDGE_CURVE('',#246,#245,#207,.T.);
#301=EDGE_CURVE('',#247,#246,#106,.T.);
#302=EDGE_CURVE('',#248,#247,#208,.T.);
#303=EDGE_CURVE('',#249,#248,#107,.T.);
#304=EDGE_CURVE('',#250,#249,#209,.T.);
#305=EDGE_CURVE('',#228,#250,#108,.T.);
#306=EDGE_CURVE('',#251,#226,#109,.T.);
#307=EDGE_CURVE('',#229,#251,#110,.T.);
#308=EDGE_CURVE('',#251,#252,#210,.T.);
#309=EDGE_CURVE('',#252,#230,#111,.T.);
#310=EDGE_CURVE('',#253,#254,#211,.T.);
#311=EDGE_CURVE('',#254,#232,#112,.T.);
#312=EDGE_CURVE('',#231,#253,#113,.T.);
#313=EDGE_CURVE('',#253,#252,#114,.T.);
#314=EDGE_CURVE('',#255,#256,#212,.T.);
#315=EDGE_CURVE('',#256,#234,#115,.T.);
#316=EDGE_CURVE('',#233,#255,#116,.T.);
#317=EDGE_CURVE('',#257,#256,#117,.T.);
#318=EDGE_CURVE('',#235,#257,#118,.T.);
#319=EDGE_CURVE('',#257,#258,#213,.T.);
#320=EDGE_CURVE('',#258,#236,#119,.T.);
#321=EDGE_CURVE('',#259,#260,#214,.T.);
#322=EDGE_CURVE('',#260,#238,#120,.T.);
#323=EDGE_CURVE('',#237,#259,#121,.T.);
#324=EDGE_CURVE('',#259,#258,#122,.T.);
#325=EDGE_CURVE('',#261,#262,#215,.T.);
#326=EDGE_CURVE('',#262,#240,#123,.T.);
#327=EDGE_CURVE('',#239,#261,#124,.T.);
#328=EDGE_CURVE('',#263,#262,#125,.T.);
#329=EDGE_CURVE('',#241,#263,#126,.T.);
#330=EDGE_CURVE('',#263,#264,#216,.T.);
#331=EDGE_CURVE('',#264,#242,#127,.T.);
#332=EDGE_CURVE('',#265,#266,#217,.T.);
#333=EDGE_CURVE('',#266,#244,#128,.T.);
#334=EDGE_CURVE('',#243,#265,#129,.T.);
#335=EDGE_CURVE('',#265,#264,#130,.T.);
#336=EDGE_CURVE('',#267,#268,#218,.T.);
#337=EDGE_CURVE('',#268,#246,#131,.T.);
#338=EDGE_CURVE('',#245,#267,#132,.T.);
#339=EDGE_CURVE('',#269,#268,#133,.T.);
#340=EDGE_CURVE('',#247,#269,#134,.T.);
#341=EDGE_CURVE('',#269,#270,#219,.T.);
#342=EDGE_CURVE('',#270,#248,#135,.T.);
#343=EDGE_CURVE('',#271,#272,#220,.T.);
#344=EDGE_CURVE('',#272,#250,#136,.T.);
#345=EDGE_CURVE('',#249,#271,#137,.T.);
#346=EDGE_CURVE('',#225,#272,#138,.T.);
#347=EDGE_CURVE('',#267,#266,#139,.T.);
#348=EDGE_CURVE('',#271,#270,#140,.T.);
#349=EDGE_CURVE('',#255,#254,#141,.T.);
#350=EDGE_CURVE('',#261,#260,#142,.T.);
#351=ORIENTED_EDGE('',*,*,#273,.F.);
#352=ORIENTED_EDGE('',*,*,#274,.T.);
#353=ORIENTED_EDGE('',*,*,#275,.F.);
#354=ORIENTED_EDGE('',*,*,#274,.F.);
#355=ORIENTED_EDGE('',*,*,#276,.F.);
#356=ORIENTED_EDGE('',*,*,#277,.T.);
#357=ORIENTED_EDGE('',*,*,#278,.F.);
#358=ORIENTED_EDGE('',*,*,#277,.F.);
#359=ORIENTED_EDGE('',*,*,#279,.T.);
#360=ORIENTED_EDGE('',*,*,#280,.T.);
#361=ORIENTED_EDGE('',*,*,#281,.T.);
#362=ORIENTED_EDGE('',*,*,#282,.T.);
#363=ORIENTED_EDGE('',*,*,#281,.F.);
#364=ORIENTED_EDGE('',*,*,#283,.T.);
#365=ORIENTED_EDGE('',*,*,#284,.F.);
#366=ORIENTED_EDGE('',*,*,#285,.T.);
#367=ORIENTED_EDGE('',*,*,#286,.F.);
#368=ORIENTED_EDGE('',*,*,#287,.F.);
#369=ORIENTED_EDGE('',*,*,#288,.F.);
#370=ORIENTED_EDGE('',*,*,#289,.F.);
#371=ORIENTED_EDGE('',*,*,#290,.F.);
#372=ORIENTED_EDGE('',*,*,#291,.F.);
#373=ORIENTED_EDGE('',*,*,#292,.F.);
#374=ORIENTED_EDGE('',*,*,#293,.F.);
#375=ORIENTED_EDGE('',*,*,#294,.F.);
#376=ORIENTED_EDGE('',*,*,#295,.T.);
#377=ORIENTED_EDGE('',*,*,#296,.F.);
#378=ORIENTED_EDGE('',*,*,#297,.T.);
#379=ORIENTED_EDGE('',*,*,#298,.F.);
#380=ORIENTED_EDGE('',*,*,#299,.F.);
#381=ORIENTED_EDGE('',*,*,#300,.F.);
#382=ORIENTED_EDGE('',*,*,#301,.F.);
#383=ORIENTED_EDGE('',*,*,#302,.F.);
#384=ORIENTED_EDGE('',*,*,#303,.F.);
#385=ORIENTED_EDGE('',*,*,#304,.F.);
#386=ORIENTED_EDGE('',*,*,#305,.F.);
#387=ORIENTED_EDGE('',*,*,#275,.T.);
#388=ORIENTED_EDGE('',*,*,#278,.T.);
#389=ORIENTED_EDGE('',*,*,#280,.F.);
#390=ORIENTED_EDGE('',*,*,#306,.F.);
#391=ORIENTED_EDGE('',*,*,#307,.F.);
#392=ORIENTED_EDGE('',*,*,#283,.F.);
#393=ORIENTED_EDGE('',*,*,#284,.T.);
#394=ORIENTED_EDGE('',*,*,#307,.T.);
#395=ORIENTED_EDGE('',*,*,#308,.T.);
#396=ORIENTED_EDGE('',*,*,#309,.T.);
#397=ORIENTED_EDGE('',*,*,#310,.T.);
#398=ORIENTED_EDGE('',*,*,#311,.T.);
#399=ORIENTED_EDGE('',*,*,#286,.T.);
#400=ORIENTED_EDGE('',*,*,#312,.T.);
#401=ORIENTED_EDGE('',*,*,#309,.F.);
#402=ORIENTED_EDGE('',*,*,#313,.F.);
#403=ORIENTED_EDGE('',*,*,#312,.F.);
#404=ORIENTED_EDGE('',*,*,#285,.F.);
#405=ORIENTED_EDGE('',*,*,#314,.T.);
#406=ORIENTED_EDGE('',*,*,#315,.T.);
#407=ORIENTED_EDGE('',*,*,#288,.T.);
#408=ORIENTED_EDGE('',*,*,#316,.T.);
#409=ORIENTED_EDGE('',*,*,#315,.F.);
#410=ORIENTED_EDGE('',*,*,#317,.F.);
#411=ORIENTED_EDGE('',*,*,#318,.F.);
#412=ORIENTED_EDGE('',*,*,#289,.T.);
#413=ORIENTED_EDGE('',*,*,#290,.T.);
#414=ORIENTED_EDGE('',*,*,#318,.T.);
#415=ORIENTED_EDGE('',*,*,#319,.T.);
#416=ORIENTED_EDGE('',*,*,#320,.T.);
#417=ORIENTED_EDGE('',*,*,#321,.T.);
#418=ORIENTED_EDGE('',*,*,#322,.T.);
#419=ORIENTED_EDGE('',*,*,#292,.T.);
#420=ORIENTED_EDGE('',*,*,#323,.T.);
#421=ORIENTED_EDGE('',*,*,#320,.F.);
#422=ORIENTED_EDGE('',*,*,#324,.F.);
#423=ORIENTED_EDGE('',*,*,#323,.F.);
#424=ORIENTED_EDGE('',*,*,#291,.T.);
#425=ORIENTED_EDGE('',*,*,#325,.T.);
#426=ORIENTED_EDGE('',*,*,#326,.T.);
#427=ORIENTED_EDGE('',*,*,#294,.T.);
#428=ORIENTED_EDGE('',*,*,#327,.T.);
#429=ORIENTED_EDGE('',*,*,#326,.F.);
#430=ORIENTED_EDGE('',*,*,#328,.F.);
#431=ORIENTED_EDGE('',*,*,#329,.F.);
#432=ORIENTED_EDGE('',*,*,#295,.F.);
#433=ORIENTED_EDGE('',*,*,#296,.T.);
#434=ORIENTED_EDGE('',*,*,#329,.T.);
#435=ORIENTED_EDGE('',*,*,#330,.T.);
#436=ORIENTED_EDGE('',*,*,#331,.T.);
#437=ORIENTED_EDGE('',*,*,#332,.T.);
#438=ORIENTED_EDGE('',*,*,#333,.T.);
#439=ORIENTED_EDGE('',*,*,#298,.T.);
#440=ORIENTED_EDGE('',*,*,#334,.T.);
#441=ORIENTED_EDGE('',*,*,#331,.F.);
#442=ORIENTED_EDGE('',*,*,#335,.F.);
#443=ORIENTED_EDGE('',*,*,#334,.F.);
#444=ORIENTED_EDGE('',*,*,#297,.F.);
#445=ORIENTED_EDGE('',*,*,#336,.T.);
#446=ORIENTED_EDGE('',*,*,#337,.T.);
#447=ORIENTED_EDGE('',*,*,#300,.T.);
#448=ORIENTED_EDGE('',*,*,#338,.T.);
#449=ORIENTED_EDGE('',*,*,#337,.F.);
#450=ORIENTED_EDGE('',*,*,#339,.F.);
#451=ORIENTED_EDGE('',*,*,#340,.F.);
#452=ORIENTED_EDGE('',*,*,#301,.T.);
#453=ORIENTED_EDGE('',*,*,#302,.T.);
#454=ORIENTED_EDGE('',*,*,#340,.T.);
#455=ORIENTED_EDGE('',*,*,#341,.T.);
#456=ORIENTED_EDGE('',*,*,#342,.T.);
#457=ORIENTED_EDGE('',*,*,#343,.T.);
#458=ORIENTED_EDGE('',*,*,#344,.T.);
#459=ORIENTED_EDGE('',*,*,#304,.T.);
#460=ORIENTED_EDGE('',*,*,#345,.T.);
#461=ORIENTED_EDGE('',*,*,#282,.F.);
#462=ORIENTED_EDGE('',*,*,#305,.T.);
#463=ORIENTED_EDGE('',*,*,#344,.F.);
#464=ORIENTED_EDGE('',*,*,#346,.F.);
#465=ORIENTED_EDGE('',*,*,#333,.F.);
#466=ORIENTED_EDGE('',*,*,#347,.F.);
#467=ORIENTED_EDGE('',*,*,#338,.F.);
#468=ORIENTED_EDGE('',*,*,#299,.T.);
#469=ORIENTED_EDGE('',*,*,#342,.F.);
#470=ORIENTED_EDGE('',*,*,#348,.F.);
#471=ORIENTED_EDGE('',*,*,#345,.F.);
#472=ORIENTED_EDGE('',*,*,#303,.T.);
#473=ORIENTED_EDGE('',*,*,#311,.F.);
#474=ORIENTED_EDGE('',*,*,#349,.F.);
#475=ORIENTED_EDGE('',*,*,#316,.F.);
#476=ORIENTED_EDGE('',*,*,#287,.T.);
#477=ORIENTED_EDGE('',*,*,#322,.F.);
#478=ORIENTED_EDGE('',*,*,#350,.F.);
#479=ORIENTED_EDGE('',*,*,#327,.F.);
#480=ORIENTED_EDGE('',*,*,#293,.T.);
#481=ORIENTED_EDGE('',*,*,#279,.F.);
#482=ORIENTED_EDGE('',*,*,#346,.T.);
#483=ORIENTED_EDGE('',*,*,#343,.F.);
#484=ORIENTED_EDGE('',*,*,#348,.T.);
#485=ORIENTED_EDGE('',*,*,#341,.F.);
#486=ORIENTED_EDGE('',*,*,#339,.T.);
#487=ORIENTED_EDGE('',*,*,#336,.F.);
#488=ORIENTED_EDGE('',*,*,#347,.T.);
#489=ORIENTED_EDGE('',*,*,#332,.F.);
#490=ORIENTED_EDGE('',*,*,#335,.T.);
#491=ORIENTED_EDGE('',*,*,#330,.F.);
#492=ORIENTED_EDGE('',*,*,#328,.T.);
#493=ORIENTED_EDGE('',*,*,#325,.F.);
#494=ORIENTED_EDGE('',*,*,#350,.T.);
#495=ORIENTED_EDGE('',*,*,#321,.F.);
#496=ORIENTED_EDGE('',*,*,#324,.T.);
#497=ORIENTED_EDGE('',*,*,#319,.F.);
#498=ORIENTED_EDGE('',*,*,#317,.T.);
#499=ORIENTED_EDGE('',*,*,#314,.F.);
#500=ORIENTED_EDGE('',*,*,#349,.T.);
#501=ORIENTED_EDGE('',*,*,#310,.F.);
#502=ORIENTED_EDGE('',*,*,#313,.T.);
#503=ORIENTED_EDGE('',*,*,#308,.F.);
#504=ORIENTED_EDGE('',*,*,#306,.T.);
#505=ORIENTED_EDGE('',*,*,#273,.T.);
#506=ORIENTED_EDGE('',*,*,#276,.T.);
#507=CYLINDRICAL_SURFACE('',#563,12.05);
#508=CYLINDRICAL_SURFACE('',#566,14.55);
#509=CYLINDRICAL_SURFACE('',#569,5.);
#510=CYLINDRICAL_SURFACE('',#585,5.);
#511=CYLINDRICAL_SURFACE('',#587,5.);
#512=CYLINDRICAL_SURFACE('',#590,5.);
#513=CYLINDRICAL_SURFACE('',#593,5.);
#514=CYLINDRICAL_SURFACE('',#595,5.);
#515=CYLINDRICAL_SURFACE('',#598,5.);
#516=CYLINDRICAL_SURFACE('',#601,5.);
#517=CYLINDRICAL_SURFACE('',#603,5.);
#518=CYLINDRICAL_SURFACE('',#606,5.);
#519=CYLINDRICAL_SURFACE('',#609,5.);
#520=CYLINDRICAL_SURFACE('',#611,5.);
#521=ADVANCED_FACE('',(#33),#507,.F.);
#522=ADVANCED_FACE('',(#34),#508,.F.);
#523=ADVANCED_FACE('',(#35),#509,.T.);
#524=ADVANCED_FACE('',(#36,#15,#16),#19,.F.);
#525=ADVANCED_FACE('',(#37),#20,.T.);
#526=ADVANCED_FACE('',(#38),#510,.F.);
#527=ADVANCED_FACE('',(#39),#511,.T.);
#528=ADVANCED_FACE('',(#40),#21,.T.);
#529=ADVANCED_FACE('',(#41),#512,.T.);
#530=ADVANCED_FACE('',(#42),#22,.T.);
#531=ADVANCED_FACE('',(#43),#513,.F.);
#532=ADVANCED_FACE('',(#44),#514,.T.);
#533=ADVANCED_FACE('',(#45),#23,.T.);
#534=ADVANCED_FACE('',(#46),#515,.T.);
#535=ADVANCED_FACE('',(#47),#24,.T.);
#536=ADVANCED_FACE('',(#48),#516,.F.);
#537=ADVANCED_FACE('',(#49),#517,.T.);
#538=ADVANCED_FACE('',(#50),#25,.T.);
#539=ADVANCED_FACE('',(#51),#518,.T.);
#540=ADVANCED_FACE('',(#52),#26,.T.);
#541=ADVANCED_FACE('',(#53),#519,.F.);
#542=ADVANCED_FACE('',(#54),#520,.T.);
#543=ADVANCED_FACE('',(#55),#27,.T.);
#544=ADVANCED_FACE('',(#56),#28,.T.);
#545=ADVANCED_FACE('',(#57),#29,.T.);
#546=ADVANCED_FACE('',(#58),#30,.T.);
#547=ADVANCED_FACE('',(#59),#31,.T.);
#548=ADVANCED_FACE('',(#60,#17,#18),#32,.T.);
#549=CLOSED_SHELL('',(#521,#522,#523,#524,#525,#526,#527,#528,#529,#530,
#531,#532,#533,#534,#535,#536,#537,#538,#539,#540,#541,#542,#543,#544,#545,
#546,#547,#548));
#550=DERIVED_UNIT_ELEMENT(#552,1.);
#551=DERIVED_UNIT_ELEMENT(#947,-3.);
#552=(
MASS_UNIT()
NAMED_UNIT(*)
SI_UNIT(.KILO.,.GRAM.)
);
#553=DERIVED_UNIT((#550,#551));
#554=MEASURE_REPRESENTATION_ITEM('density measure',
POSITIVE_RATIO_MEASURE(7850.),#553);
#555=PROPERTY_DEFINITION_REPRESENTATION(#560,#557);
#556=PROPERTY_DEFINITION_REPRESENTATION(#561,#558);
#557=REPRESENTATION('material name',(#559),#944);
#558=REPRESENTATION('density',(#554),#944);
#559=DESCRIPTIVE_REPRESENTATION_ITEM('Steel','Steel');
#560=PROPERTY_DEFINITION('material property','material name',#954);
#561=PROPERTY_DEFINITION('material property','density of part',#954);
#562=AXIS2_PLACEMENT_3D('',#783,#619,#620);
#563=AXIS2_PLACEMENT_3D('',#784,#621,#622);
#564=AXIS2_PLACEMENT_3D('',#786,#623,#624);
#565=AXIS2_PLACEMENT_3D('',#789,#626,#627);
#566=AXIS2_PLACEMENT_3D('',#790,#628,#629);
#567=AXIS2_PLACEMENT_3D('',#792,#630,#631);
#568=AXIS2_PLACEMENT_3D('',#795,#633,#634);
#569=AXIS2_PLACEMENT_3D('',#796,#635,#636);
#570=AXIS2_PLACEMENT_3D('',#799,#637,#638);
#571=AXIS2_PLACEMENT_3D('',#803,#640,#641);
#572=AXIS2_PLACEMENT_3D('',#805,#643,#644);
#573=AXIS2_PLACEMENT_3D('',#809,#646,#647);
#574=AXIS2_PLACEMENT_3D('',#813,#649,#650);
#575=AXIS2_PLACEMENT_3D('',#817,#652,#653);
#576=AXIS2_PLACEMENT_3D('',#821,#655,#656);
#577=AXIS2_PLACEMENT_3D('',#825,#658,#659);
#578=AXIS2_PLACEMENT_3D('',#829,#661,#662);
#579=AXIS2_PLACEMENT_3D('',#833,#664,#665);
#580=AXIS2_PLACEMENT_3D('',#837,#667,#668);
#581=AXIS2_PLACEMENT_3D('',#841,#670,#671);
#582=AXIS2_PLACEMENT_3D('',#845,#673,#674);
#583=AXIS2_PLACEMENT_3D('',#849,#676,#677);
#584=AXIS2_PLACEMENT_3D('',#851,#679,#680);
#585=AXIS2_PLACEMENT_3D('',#855,#683,#684);
#586=AXIS2_PLACEMENT_3D('',#857,#685,#686);
#587=AXIS2_PLACEMENT_3D('',#859,#688,#689);
#588=AXIS2_PLACEMENT_3D('',#862,#690,#691);
#589=AXIS2_PLACEMENT_3D('',#865,#694,#695);
#590=AXIS2_PLACEMENT_3D('',#867,#697,#698);
#591=AXIS2_PLACEMENT_3D('',#870,#699,#700);
#592=AXIS2_PLACEMENT_3D('',#873,#703,#704);
#593=AXIS2_PLACEMENT_3D('',#877,#707,#708);
#594=AXIS2_PLACEMENT_3D('',#879,#709,#710);
#595=AXIS2_PLACEMENT_3D('',#881,#712,#713);
#596=AXIS2_PLACEMENT_3D('',#884,#714,#715);
#597=AXIS2_PLACEMENT_3D('',#887,#718,#719);
#598=AXIS2_PLACEMENT_3D('',#889,#721,#722);
#599=AXIS2_PLACEMENT_3D('',#892,#723,#724);
#600=AXIS2_PLACEMENT_3D('',#895,#727,#728);
#601=AXIS2_PLACEMENT_3D('',#899,#731,#732);
#602=AXIS2_PLACEMENT_3D('',#901,#733,#734);
#603=AXIS2_PLACEMENT_3D('',#903,#736,#737);
#604=AXIS2_PLACEMENT_3D('',#906,#738,#739);
#605=AXIS2_PLACEMENT_3D('',#909,#742,#743);
#606=AXIS2_PLACEMENT_3D('',#911,#745,#746);
#607=AXIS2_PLACEMENT_3D('',#914,#747,#748);
#608=AXIS2_PLACEMENT_3D('',#917,#751,#752);
#609=AXIS2_PLACEMENT_3D('',#921,#755,#756);
#610=AXIS2_PLACEMENT_3D('',#923,#757,#758);
#611=AXIS2_PLACEMENT_3D('',#925,#760,#761);
#612=AXIS2_PLACEMENT_3D('',#928,#762,#763);
#613=AXIS2_PLACEMENT_3D('',#931,#766,#767);
#614=AXIS2_PLACEMENT_3D('',#933,#769,#770);
#615=AXIS2_PLACEMENT_3D('',#935,#772,#773);
#616=AXIS2_PLACEMENT_3D('',#937,#775,#776);
#617=AXIS2_PLACEMENT_3D('',#939,#778,#779);
#618=AXIS2_PLACEMENT_3D('',#941,#781,#782);
#619=DIRECTION('axis',(0.,0.,1.));
#620=DIRECTION('refdir',(1.,0.,0.));
#621=DIRECTION('center_axis',(-7.20323271927139E-17,-4.91591820770227E-28,
-1.));
#622=DIRECTION('ref_axis',(3.01147995429574E-15,1.,-4.91808744679629E-28));
#623=DIRECTION('center_axis',(0.,0.,-1.));
#624=DIRECTION('ref_axis',(3.01147995429574E-15,1.,-4.91808744679629E-28));
#625=DIRECTION('',(-7.20323271927139E-17,-4.91591820770227E-28,-1.));
#626=DIRECTION('center_axis',(0.,0.,1.));
#627=DIRECTION('ref_axis',(3.01147995429574E-15,1.,-4.91808744679629E-28));
#628=DIRECTION('center_axis',(-1.08709337827857E-15,-4.88534984762496E-28,
-1.));
#629=DIRECTION('ref_axis',(3.01147995429574E-15,1.,-4.91808744679629E-28));
#630=DIRECTION('center_axis',(0.,0.,-1.));
#631=DIRECTION('ref_axis',(3.01147995429574E-15,1.,-4.91808744679629E-28));
#632=DIRECTION('',(-1.08709337827857E-15,-4.88534984762496E-28,-1.));
#633=DIRECTION('center_axis',(0.,0.,1.));
#634=DIRECTION('ref_axis',(3.08086889333529E-15,1.,-4.92048522957707E-28));
#635=DIRECTION('center_axis',(0.,0.,1.));
#636=DIRECTION('ref_axis',(0.707106781186548,0.707106781186548,0.));
#637=DIRECTION('center_axis',(0.,0.,-1.));
#638=DIRECTION('ref_axis',(0.707106781186548,0.707106781186548,0.));
#639=DIRECTION('',(0.,0.,-1.));
#640=DIRECTION('center_axis',(0.,0.,1.));
#641=DIRECTION('ref_axis',(0.707106781186548,0.707106781186548,0.));
#642=DIRECTION('',(0.,0.,1.));
#643=DIRECTION('center_axis',(0.,0.,1.));
#644=DIRECTION('ref_axis',(1.,0.,0.));
#645=DIRECTION('',(0.,-1.,0.));
#646=DIRECTION('center_axis',(0.,0.,-1.));
#647=DIRECTION('ref_axis',(-0.707106781186548,-0.707106781186548,0.));
#648=DIRECTION('',(1.,0.,0.));
#649=DIRECTION('center_axis',(0.,0.,1.));
#650=DIRECTION('ref_axis',(0.707106781186548,0.707106781186548,0.));
#651=DIRECTION('',(0.,1.,0.));
#652=DIRECTION('center_axis',(0.,0.,1.));
#653=DIRECTION('ref_axis',(0.707106781186548,-0.707106781186548,0.));
#654=DIRECTION('',(1.,0.,0.));
#655=DIRECTION('center_axis',(0.,0.,-1.));
#656=DIRECTION('ref_axis',(-0.707106781186548,0.707106781186548,0.));
#657=DIRECTION('',(0.,1.,0.));
#658=DIRECTION('center_axis',(0.,0.,1.));
#659=DIRECTION('ref_axis',(0.707106781186548,-0.707106781186548,0.));
#660=DIRECTION('',(1.,0.,0.));
#661=DIRECTION('center_axis',(0.,0.,1.));
#662=DIRECTION('ref_axis',(-0.707106781186548,-0.707106781186548,0.));
#663=DIRECTION('',(0.,1.,0.));
#664=DIRECTION('center_axis',(0.,0.,-1.));
#665=DIRECTION('ref_axis',(0.707106781186548,0.707106781186548,0.));
#666=DIRECTION('',(-1.,0.,0.));
#667=DIRECTION('center_axis',(0.,0.,1.));
#668=DIRECTION('ref_axis',(-0.707106781186548,-0.707106781186548,0.));
#669=DIRECTION('',(0.,-1.,0.));
#670=DIRECTION('center_axis',(0.,0.,1.));
#671=DIRECTION('ref_axis',(-0.707106781186548,0.707106781186548,0.));
#672=DIRECTION('',(-1.,0.,0.));
#673=DIRECTION('center_axis',(0.,0.,-1.));
#674=DIRECTION('ref_axis',(0.707106781186548,-0.707106781186548,0.));
#675=DIRECTION('',(0.,-1.,0.));
#676=DIRECTION('center_axis',(0.,0.,1.));
#677=DIRECTION('ref_axis',(-0.707106781186548,0.707106781186548,0.));
#678=DIRECTION('',(-1.,0.,0.));
#679=DIRECTION('center_axis',(1.,0.,0.));
#680=DIRECTION('ref_axis',(0.,1.,0.));
#681=DIRECTION('',(0.,1.,0.));
#682=DIRECTION('',(0.,0.,1.));
#683=DIRECTION('center_axis',(0.,0.,1.));
#684=DIRECTION('ref_axis',(-0.707106781186548,-0.707106781186548,0.));
#685=DIRECTION('center_axis',(0.,0.,1.));
#686=DIRECTION('ref_axis',(-0.707106781186548,-0.707106781186548,0.));
#687=DIRECTION('',(0.,0.,-1.));
#688=DIRECTION('center_axis',(0.,0.,1.));
#689=DIRECTION('ref_axis',(0.707106781186548,0.707106781186548,0.));
#690=DIRECTION('center_axis',(0.,0.,-1.));
#691=DIRECTION('ref_axis',(0.707106781186548,0.707106781186548,0.));
#692=DIRECTION('',(0.,0.,-1.));
#693=DIRECTION('',(0.,0.,1.));
#694=DIRECTION('center_axis',(0.,1.,0.));
#695=DIRECTION('ref_axis',(-1.,0.,0.));
#696=DIRECTION('',(-1.,0.,0.));
#697=DIRECTION('center_axis',(0.,0.,1.));
#698=DIRECTION('ref_axis',(0.707106781186548,-0.707106781186548,0.));
#699=DIRECTION('center_axis',(0.,0.,-1.));
#700=DIRECTION('ref_axis',(0.707106781186548,-0.707106781186548,0.));
#701=DIRECTION('',(0.,0.,-1.));
#702=DIRECTION('',(0.,0.,1.));
#703=DIRECTION('center_axis',(0.,-1.,0.));
#704=DIRECTION('ref_axis',(1.,0.,0.));
#705=DIRECTION('',(1.,0.,0.));
#706=DIRECTION('',(0.,0.,1.));
#707=DIRECTION('center_axis',(0.,0.,1.));
#708=DIRECTION('ref_axis',(-0.707106781186548,0.707106781186548,0.));
#709=DIRECTION('center_axis',(0.,0.,1.));
#710=DIRECTION('ref_axis',(-0.707106781186548,0.707106781186548,0.));
#711=DIRECTION('',(0.,0.,-1.));
#712=DIRECTION('center_axis',(0.,0.,1.));
#713=DIRECTION('ref_axis',(0.707106781186548,-0.707106781186548,0.));
#714=DIRECTION('center_axis',(0.,0.,-1.));
#715=DIRECTION('ref_axis',(0.707106781186548,-0.707106781186548,0.));
#716=DIRECTION('',(0.,0.,-1.));
#717=DIRECTION('',(0.,0.,1.));
#718=DIRECTION('center_axis',(1.,0.,0.));
#719=DIRECTION('ref_axis',(0.,1.,0.));
#720=DIRECTION('',(0.,1.,0.));
#721=DIRECTION('center_axis',(0.,0.,1.));
#722=DIRECTION('ref_axis',(-0.707106781186548,-0.707106781186548,0.));
#723=DIRECTION('center_axis',(0.,0.,-1.));
#724=DIRECTION('ref_axis',(-0.707106781186548,-0.707106781186548,0.));
#725=DIRECTION('',(0.,0.,-1.));
#726=DIRECTION('',(0.,0.,1.));
#727=DIRECTION('center_axis',(-1.,0.,0.));
#728=DIRECTION('ref_axis',(0.,-1.,0.));
#729=DIRECTION('',(0.,-1.,0.));
#730=DIRECTION('',(0.,0.,1.));
#731=DIRECTION('center_axis',(0.,0.,1.));
#732=DIRECTION('ref_axis',(0.707106781186548,0.707106781186548,0.));
#733=DIRECTION('center_axis',(0.,0.,1.));
#734=DIRECTION('ref_axis',(0.707106781186548,0.707106781186548,0.));
#735=DIRECTION('',(0.,0.,-1.));
#736=DIRECTION('center_axis',(0.,0.,1.));
#737=DIRECTION('ref_axis',(-0.707106781186548,-0.707106781186548,0.));
#738=DIRECTION('center_axis',(0.,0.,-1.));
#739=DIRECTION('ref_axis',(-0.707106781186548,-0.707106781186548,0.));
#740=DIRECTION('',(0.,0.,-1.));
#741=DIRECTION('',(0.,0.,1.));
#742=DIRECTION('center_axis',(0.,-1.,0.));
#743=DIRECTION('ref_axis',(1.,0.,0.));
#744=DIRECTION('',(1.,0.,0.));
#745=DIRECTION('center_axis',(0.,0.,1.));
#746=DIRECTION('ref_axis',(-0.707106781186548,0.707106781186548,0.));
#747=DIRECTION('center_axis',(0.,0.,-1.));
#748=DIRECTION('ref_axis',(-0.707106781186548,0.707106781186548,0.));
#749=DIRECTION('',(0.,0.,-1.));
#750=DIRECTION('',(0.,0.,1.));
#751=DIRECTION('center_axis',(0.,1.,0.));
#752=DIRECTION('ref_axis',(-1.,0.,0.));
#753=DIRECTION('',(-1.,0.,0.));
#754=DIRECTION('',(0.,0.,1.));
#755=DIRECTION('center_axis',(0.,0.,1.));
#756=DIRECTION('ref_axis',(0.707106781186548,-0.707106781186548,0.));
#757=DIRECTION('center_axis',(0.,0.,1.));
#758=DIRECTION('ref_axis',(0.707106781186548,-0.707106781186548,0.));
#759=DIRECTION('',(0.,0.,-1.));
#760=DIRECTION('center_axis',(0.,0.,1.));
#761=DIRECTION('ref_axis',(-0.707106781186548,0.707106781186548,0.));
#762=DIRECTION('center_axis',(0.,0.,-1.));
#763=DIRECTION('ref_axis',(-0.707106781186548,0.707106781186548,0.));
#764=DIRECTION('',(0.,0.,-1.));
#765=DIRECTION('',(0.,0.,1.));
#766=DIRECTION('center_axis',(0.,1.,0.));
#767=DIRECTION('ref_axis',(-1.,0.,0.));
#768=DIRECTION('',(-1.,0.,0.));
#769=DIRECTION('center_axis',(-1.,0.,0.));
#770=DIRECTION('ref_axis',(0.,-1.,0.));
#771=DIRECTION('',(0.,-1.,0.));
#772=DIRECTION('center_axis',(-1.,0.,0.));
#773=DIRECTION('ref_axis',(0.,-1.,0.));
#774=DIRECTION('',(0.,-1.,0.));
#775=DIRECTION('center_axis',(1.,0.,0.));
#776=DIRECTION('ref_axis',(0.,1.,0.));
#777=DIRECTION('',(0.,1.,0.));
#778=DIRECTION('center_axis',(0.,-1.,0.));
#779=DIRECTION('ref_axis',(1.,0.,0.));
#780=DIRECTION('',(1.,0.,0.));
#781=DIRECTION('center_axis',(0.,0.,1.));
#782=DIRECTION('ref_axis',(1.,0.,0.));
#783=CARTESIAN_POINT('',(0.,0.,0.));
#784=CARTESIAN_POINT('Origin',(-119.496938225433,1.77635683940025E-14,-222.000006103472));
#785=CARTESIAN_POINT('',(-119.496938225433,-12.05,-235.));
#786=CARTESIAN_POINT('Origin',(-119.496938225433,1.77635683939961E-14,-235.));
#787=CARTESIAN_POINT('',(-119.496938225433,-12.05,-238.));
#788=CARTESIAN_POINT('',(-119.496938225433,-12.05,-222.000006103472));
#789=CARTESIAN_POINT('Origin',(-119.496938225433,1.77635683939946E-14,-238.));
#790=CARTESIAN_POINT('Origin',(115.399623844382,4.29977615425727,-222.000006103472));
#791=CARTESIAN_POINT('',(115.399623844382,-10.2502238457427,-235.));
#792=CARTESIAN_POINT('Origin',(115.399623844382,4.29977615425727,-235.));
#793=CARTESIAN_POINT('',(115.399623844381,-10.2502238457427,-238.));
#794=CARTESIAN_POINT('',(115.399623844382,-10.2502238457427,-222.000006103472));
#795=CARTESIAN_POINT('Origin',(115.399623844381,4.29977615425726,-238.));
#796=CARTESIAN_POINT('Origin',(157.,199.,-238.));
#797=CARTESIAN_POINT('',(157.,204.,-235.));
#798=CARTESIAN_POINT('',(162.,199.,-235.));
#799=CARTESIAN_POINT('Origin',(157.,199.,-235.));
#800=CARTESIAN_POINT('',(162.,199.,-238.));
#801=CARTESIAN_POINT('',(162.,199.,-238.));
#802=CARTESIAN_POINT('',(157.,204.,-238.));
#803=CARTESIAN_POINT('Origin',(157.,199.,-238.));
#804=CARTESIAN_POINT('',(157.,204.,-238.));
#805=CARTESIAN_POINT('Origin',(0.,0.,-238.));
#806=CARTESIAN_POINT('',(162.,189.5,-238.));
#807=CARTESIAN_POINT('',(162.,204.,-238.));
#808=CARTESIAN_POINT('',(167.,184.5,-238.));
#809=CARTESIAN_POINT('Origin',(167.,189.5,-238.));
#810=CARTESIAN_POINT('',(199.,184.5,-238.));
#811=CARTESIAN_POINT('',(162.,184.5,-238.));
#812=CARTESIAN_POINT('',(204.,179.5,-238.));
#813=CARTESIAN_POINT('Origin',(199.,179.5,-238.));
#814=CARTESIAN_POINT('',(204.,-179.5,-238.));
#815=CARTESIAN_POINT('',(204.,-184.5,-238.));
#816=CARTESIAN_POINT('',(199.,-184.5,-238.));
#817=CARTESIAN_POINT('Origin',(199.,-179.5,-238.));
#818=CARTESIAN_POINT('',(167.,-184.5,-238.));
#819=CARTESIAN_POINT('',(162.,-184.5,-238.));
#820=CARTESIAN_POINT('',(162.,-189.5,-238.));
#821=CARTESIAN_POINT('Origin',(167.,-189.5,-238.));
#822=CARTESIAN_POINT('',(162.,-199.,-238.));
#823=CARTESIAN_POINT('',(162.,-204.,-238.));
#824=CARTESIAN_POINT('',(157.,-204.,-238.));
#825=CARTESIAN_POINT('Origin',(157.,-199.,-238.));
#826=CARTESIAN_POINT('',(-157.,-204.,-238.));
#827=CARTESIAN_POINT('',(-162.,-204.,-238.));
#828=CARTESIAN_POINT('',(-162.,-199.,-238.));
#829=CARTESIAN_POINT('Origin',(-157.,-199.,-238.));
#830=CARTESIAN_POINT('',(-162.,-189.5,-238.));
#831=CARTESIAN_POINT('',(-162.,-204.,-238.));
#832=CARTESIAN_POINT('',(-167.,-184.5,-238.));
#833=CARTESIAN_POINT('Origin',(-167.,-189.5,-238.));
#834=CARTESIAN_POINT('',(-199.,-184.5,-238.));
#835=CARTESIAN_POINT('',(-162.,-184.5,-238.));
#836=CARTESIAN_POINT('',(-204.,-179.5,-238.));
#837=CARTESIAN_POINT('Origin',(-199.,-179.5,-238.));
#838=CARTESIAN_POINT('',(-204.,179.5,-238.));
#839=CARTESIAN_POINT('',(-204.,184.5,-238.));
#840=CARTESIAN_POINT('',(-199.,184.5,-238.));
#841=CARTESIAN_POINT('Origin',(-199.,179.5,-238.));
#842=CARTESIAN_POINT('',(-167.,184.5,-238.));
#843=CARTESIAN_POINT('',(-162.,184.5,-238.));
#844=CARTESIAN_POINT('',(-162.,189.5,-238.));
#845=CARTESIAN_POINT('Origin',(-167.,189.5,-238.));
#846=CARTESIAN_POINT('',(-162.,199.,-238.));
#847=CARTESIAN_POINT('',(-162.,204.,-238.));
#848=CARTESIAN_POINT('',(-157.,204.,-238.));
#849=CARTESIAN_POINT('Origin',(-157.,199.,-238.));
#850=CARTESIAN_POINT('',(162.,204.,-238.));
#851=CARTESIAN_POINT('Origin',(162.,184.5,-238.));
#852=CARTESIAN_POINT('',(162.,189.5,-235.));
#853=CARTESIAN_POINT('',(162.,204.,-235.));
#854=CARTESIAN_POINT('',(162.,189.5,-238.));
#855=CARTESIAN_POINT('Origin',(167.,189.5,-238.));
#856=CARTESIAN_POINT('',(167.,184.5,-235.));
#857=CARTESIAN_POINT('Origin',(167.,189.5,-235.));
#858=CARTESIAN_POINT('',(167.,184.5,-238.));
#859=CARTESIAN_POINT('Origin',(199.,179.5,-238.));
#860=CARTESIAN_POINT('',(199.,184.5,-235.));
#861=CARTESIAN_POINT('',(204.,179.5,-235.));
#862=CARTESIAN_POINT('Origin',(199.,179.5,-235.));
#863=CARTESIAN_POINT('',(204.,179.5,-238.));
#864=CARTESIAN_POINT('',(199.,184.5,-238.));
#865=CARTESIAN_POINT('Origin',(204.,184.5,-238.));
#866=CARTESIAN_POINT('',(162.,184.5,-235.));
#867=CARTESIAN_POINT('Origin',(199.,-179.5,-238.));
#868=CARTESIAN_POINT('',(204.,-179.5,-235.));
#869=CARTESIAN_POINT('',(199.,-184.5,-235.));
#870=CARTESIAN_POINT('Origin',(199.,-179.5,-235.));
#871=CARTESIAN_POINT('',(199.,-184.5,-238.));
#872=CARTESIAN_POINT('',(204.,-179.5,-238.));
#873=CARTESIAN_POINT('Origin',(162.,-184.5,-238.));
#874=CARTESIAN_POINT('',(167.,-184.5,-235.));
#875=CARTESIAN_POINT('',(162.,-184.5,-235.));
#876=CARTESIAN_POINT('',(167.,-184.5,-238.));
#877=CARTESIAN_POINT('Origin',(167.,-189.5,-238.));
#878=CARTESIAN_POINT('',(162.,-189.5,-235.));
#879=CARTESIAN_POINT('Origin',(167.,-189.5,-235.));
#880=CARTESIAN_POINT('',(162.,-189.5,-238.));
#881=CARTESIAN_POINT('Origin',(157.,-199.,-238.));
#882=CARTESIAN_POINT('',(162.,-199.,-235.));
#883=CARTESIAN_POINT('',(157.,-204.,-235.));
#884=CARTESIAN_POINT('Origin',(157.,-199.,-235.));
#885=CARTESIAN_POINT('',(157.,-204.,-238.));
#886=CARTESIAN_POINT('',(162.,-199.,-238.));
#887=CARTESIAN_POINT('Origin',(162.,-204.,-238.));
#888=CARTESIAN_POINT('',(162.,-204.,-235.));
#889=CARTESIAN_POINT('Origin',(-157.,-199.,-238.));
#890=CARTESIAN_POINT('',(-157.,-204.,-235.));
#891=CARTESIAN_POINT('',(-162.,-199.,-235.));
#892=CARTESIAN_POINT('Origin',(-157.,-199.,-235.));
#893=CARTESIAN_POINT('',(-162.,-199.,-238.));
#894=CARTESIAN_POINT('',(-157.,-204.,-238.));
#895=CARTESIAN_POINT('Origin',(-162.,-184.5,-238.));
#896=CARTESIAN_POINT('',(-162.,-189.5,-235.));
#897=CARTESIAN_POINT('',(-162.,-204.,-235.));
#898=CARTESIAN_POINT('',(-162.,-189.5,-238.));
#899=CARTESIAN_POINT('Origin',(-167.,-189.5,-238.));
#900=CARTESIAN_POINT('',(-167.,-184.5,-235.));
#901=CARTESIAN_POINT('Origin',(-167.,-189.5,-235.));
#902=CARTESIAN_POINT('',(-167.,-184.5,-238.));
#903=CARTESIAN_POINT('Origin',(-199.,-179.5,-238.));
#904=CARTESIAN_POINT('',(-199.,-184.5,-235.));
#905=CARTESIAN_POINT('',(-204.,-179.5,-235.));
#906=CARTESIAN_POINT('Origin',(-199.,-179.5,-235.));
#907=CARTESIAN_POINT('',(-204.,-179.5,-238.));
#908=CARTESIAN_POINT('',(-199.,-184.5,-238.));
#909=CARTESIAN_POINT('Origin',(-204.,-184.5,-238.));
#910=CARTESIAN_POINT('',(-162.,-184.5,-235.));
#911=CARTESIAN_POINT('Origin',(-199.,179.5,-238.));
#912=CARTESIAN_POINT('',(-204.,179.5,-235.));
#913=CARTESIAN_POINT('',(-199.,184.5,-235.));
#914=CARTESIAN_POINT('Origin',(-199.,179.5,-235.));
#915=CARTESIAN_POINT('',(-199.,184.5,-238.));
#916=CARTESIAN_POINT('',(-204.,179.5,-238.));
#917=CARTESIAN_POINT('Origin',(-162.,184.5,-238.));
#918=CARTESIAN_POINT('',(-167.,184.5,-235.));
#919=CARTESIAN_POINT('',(-162.,184.5,-235.));
#920=CARTESIAN_POINT('',(-167.,184.5,-238.));
#921=CARTESIAN_POINT('Origin',(-167.,189.5,-238.));
#922=CARTESIAN_POINT('',(-162.,189.5,-235.));
#923=CARTESIAN_POINT('Origin',(-167.,189.5,-235.));
#924=CARTESIAN_POINT('',(-162.,189.5,-238.));
#925=CARTESIAN_POINT('Origin',(-157.,199.,-238.));
#926=CARTESIAN_POINT('',(-162.,199.,-235.));
#927=CARTESIAN_POINT('',(-157.,204.,-235.));
#928=CARTESIAN_POINT('Origin',(-157.,199.,-235.));
#929=CARTESIAN_POINT('',(-157.,204.,-238.));
#930=CARTESIAN_POINT('',(-162.,199.,-238.));
#931=CARTESIAN_POINT('Origin',(162.,204.,-238.));
#932=CARTESIAN_POINT('',(162.,204.,-235.));
#933=CARTESIAN_POINT('Origin',(-204.,184.5,-238.));
#934=CARTESIAN_POINT('',(-204.,184.5,-235.));
#935=CARTESIAN_POINT('Origin',(-162.,204.,-238.));
#936=CARTESIAN_POINT('',(-162.,204.,-235.));
#937=CARTESIAN_POINT('Origin',(204.,-184.5,-238.));
#938=CARTESIAN_POINT('',(204.,-184.5,-235.));
#939=CARTESIAN_POINT('Origin',(-162.,-204.,-238.));
#940=CARTESIAN_POINT('',(-162.,-204.,-235.));
#941=CARTESIAN_POINT('Origin',(0.,0.,-235.));
#942=UNCERTAINTY_MEASURE_WITH_UNIT(LENGTH_MEASURE(0.01),#946,
'DISTANCE_ACCURACY_VALUE',
'Maximum model space distance between geometric entities at asserted c
onnectivities');
#943=UNCERTAINTY_MEASURE_WITH_UNIT(LENGTH_MEASURE(0.01),#946,
'DISTANCE_ACCURACY_VALUE',
'Maximum model space distance between geometric entities at asserted c
onnectivities');
#944=(
GEOMETRIC_REPRESENTATION_CONTEXT(3)
GLOBAL_UNCERTAINTY_ASSIGNED_CONTEXT((#942))
GLOBAL_UNIT_ASSIGNED_CONTEXT((#946,#948,#949))
REPRESENTATION_CONTEXT('','3D')
);
#945=(
GEOMETRIC_REPRESENTATION_CONTEXT(3)
GLOBAL_UNCERTAINTY_ASSIGNED_CONTEXT((#943))
GLOBAL_UNIT_ASSIGNED_CONTEXT((#946,#948,#949))
REPRESENTATION_CONTEXT('','3D')
);
#946=(
LENGTH_UNIT()
NAMED_UNIT(*)
SI_UNIT(.MILLI.,.METRE.)
);
#947=(
LENGTH_UNIT()
NAMED_UNIT(*)
SI_UNIT($,.METRE.)
);
#948=(
NAMED_UNIT(*)
PLANE_ANGLE_UNIT()
SI_UNIT($,.RADIAN.)
);
#949=(
NAMED_UNIT(*)
SI_UNIT($,.STERADIAN.)
SOLID_ANGLE_UNIT()
);
#950=SHAPE_DEFINITION_REPRESENTATION(#951,#952);
#951=PRODUCT_DEFINITION_SHAPE('',$,#954);
#952=SHAPE_REPRESENTATION('',(#562),#944);
#953=PRODUCT_DEFINITION_CONTEXT('part definition',#958,'design');
#954=PRODUCT_DEFINITION('1','1',#955,#953);
#955=PRODUCT_DEFINITION_FORMATION('',$,#960);
#956=PRODUCT_RELATED_PRODUCT_CATEGORY('1','1',(#960));
#957=APPLICATION_PROTOCOL_DEFINITION('international standard',
'automotive_design',2009,#958);
#958=APPLICATION_CONTEXT(
'Core Data for Automotive Mechanical Design Process');
#959=PRODUCT_CONTEXT('part definition',#958,'mechanical');
#960=PRODUCT('1','1',$,(#959));
#961=PRESENTATION_STYLE_ASSIGNMENT((#963));
#962=PRESENTATION_STYLE_ASSIGNMENT((#964));
#963=SURFACE_STYLE_USAGE(.BOTH.,#965);
#964=SURFACE_STYLE_USAGE(.BOTH.,#966);
#965=SURFACE_SIDE_STYLE('',(#967));
#966=SURFACE_SIDE_STYLE('',(#968));
#967=SURFACE_STYLE_FILL_AREA(#969);
#968=SURFACE_STYLE_FILL_AREA(#970);
#969=FILL_AREA_STYLE('Steel - Satin',(#971));
#970=FILL_AREA_STYLE('Opaque(160,160,160)',(#972));
#971=FILL_AREA_STYLE_COLOUR('Steel - Satin',#973);
#972=FILL_AREA_STYLE_COLOUR('Opaque(160,160,160)',#974);
#973=COLOUR_RGB('Steel - Satin',0.627450980392157,0.627450980392157,0.627450980392157);
#974=COLOUR_RGB('Opaque(160,160,160)',0.627450980392157,0.627450980392157,
0.627450980392157);
ENDSEC;
END-ISO-10303-21;
