ISO-10303-21;
HEADER;
/* Generated by software containing ST-Developer
 * from STEP Tools, Inc. (www.steptools.com) 
 */

FILE_DESCRIPTION(
/* description */ (''),
/* implementation_level */ '2;1');

FILE_NAME(
/* name */ 'top_panel_x2.step',
/* time_stamp */ '2025-05-09T23:11:42+02:00',
/* author */ (''),
/* organization */ (''),
/* preprocessor_version */ 'ST-DEVELOPER v20.1',
/* originating_system */ 'Autodesk Translation Framework v14.4.0.0',
/* authorisation */ '');

FILE_SCHEMA (('AUTOMOTIVE_DESIGN { 1 0 10303 214 3 1 1 }'));
ENDSEC;

DATA;
#10=MECHANICAL_DESIGN_GEOMETRIC_PRESENTATION_REPRESENTATION('',(#13),#1411);
#11=SHAPE_REPRESENTATION_RELATIONSHIP('SRR','None',#1418,#12);
#12=ADVANCED_BREP_SHAPE_REPRESENTATION('',(#14),#1410);
#13=STYLED_ITEM('',(#1428),#14);
#14=MANIFOLD_SOLID_BREP('Body1',#823);
#15=PLANE('',#840);
#16=PLANE('',#847);
#17=PLANE('',#851);
#18=PLANE('',#861);
#19=PLANE('',#865);
#20=PLANE('',#869);
#21=PLANE('',#873);
#22=PLANE('',#874);
#23=PLANE('',#875);
#24=PLANE('',#876);
#25=PLANE('',#887);
#26=PLANE('',#890);
#27=PLANE('',#895);
#28=PLANE('',#896);
#29=PLANE('',#905);
#30=PLANE('',#908);
#31=PLANE('',#910);
#32=PLANE('',#912);
#33=PLANE('',#914);
#34=PLANE('',#916);
#35=PLANE('',#917);
#36=PLANE('',#918);
#37=FACE_OUTER_BOUND('',#79,.T.);
#38=FACE_OUTER_BOUND('',#80,.T.);
#39=FACE_OUTER_BOUND('',#81,.T.);
#40=FACE_OUTER_BOUND('',#82,.T.);
#41=FACE_OUTER_BOUND('',#83,.T.);
#42=FACE_OUTER_BOUND('',#84,.T.);
#43=FACE_OUTER_BOUND('',#85,.T.);
#44=FACE_OUTER_BOUND('',#86,.T.);
#45=FACE_OUTER_BOUND('',#87,.T.);
#46=FACE_OUTER_BOUND('',#88,.T.);
#47=FACE_OUTER_BOUND('',#89,.T.);
#48=FACE_OUTER_BOUND('',#90,.T.);
#49=FACE_OUTER_BOUND('',#91,.T.);
#50=FACE_OUTER_BOUND('',#92,.T.);
#51=FACE_OUTER_BOUND('',#93,.T.);
#52=FACE_OUTER_BOUND('',#94,.T.);
#53=FACE_OUTER_BOUND('',#95,.T.);
#54=FACE_OUTER_BOUND('',#96,.T.);
#55=FACE_OUTER_BOUND('',#97,.T.);
#56=FACE_OUTER_BOUND('',#98,.T.);
#57=FACE_OUTER_BOUND('',#99,.T.);
#58=FACE_OUTER_BOUND('',#100,.T.);
#59=FACE_OUTER_BOUND('',#101,.T.);
#60=FACE_OUTER_BOUND('',#102,.T.);
#61=FACE_OUTER_BOUND('',#103,.T.);
#62=FACE_OUTER_BOUND('',#104,.T.);
#63=FACE_OUTER_BOUND('',#105,.T.);
#64=FACE_OUTER_BOUND('',#106,.T.);
#65=FACE_OUTER_BOUND('',#107,.T.);
#66=FACE_OUTER_BOUND('',#108,.T.);
#67=FACE_OUTER_BOUND('',#109,.T.);
#68=FACE_OUTER_BOUND('',#110,.T.);
#69=FACE_OUTER_BOUND('',#111,.T.);
#70=FACE_OUTER_BOUND('',#112,.T.);
#71=FACE_OUTER_BOUND('',#113,.T.);
#72=FACE_OUTER_BOUND('',#114,.T.);
#73=FACE_OUTER_BOUND('',#115,.T.);
#74=FACE_OUTER_BOUND('',#116,.T.);
#75=FACE_OUTER_BOUND('',#117,.T.);
#76=FACE_OUTER_BOUND('',#118,.T.);
#77=FACE_OUTER_BOUND('',#119,.T.);
#78=FACE_OUTER_BOUND('',#120,.T.);
#79=EDGE_LOOP('',(#521,#522,#523,#524));
#80=EDGE_LOOP('',(#525,#526,#527,#528));
#81=EDGE_LOOP('',(#529,#530,#531,#532));
#82=EDGE_LOOP('',(#533,#534,#535,#536));
#83=EDGE_LOOP('',(#537,#538,#539,#540));
#84=EDGE_LOOP('',(#541,#542,#543,#544));
#85=EDGE_LOOP('',(#545,#546,#547,#548));
#86=EDGE_LOOP('',(#549,#550,#551,#552));
#87=EDGE_LOOP('',(#553,#554,#555,#556));
#88=EDGE_LOOP('',(#557,#558,#559,#560));
#89=EDGE_LOOP('',(#561,#562,#563,#564));
#90=EDGE_LOOP('',(#565,#566,#567,#568));
#91=EDGE_LOOP('',(#569,#570,#571,#572));
#92=EDGE_LOOP('',(#573,#574,#575,#576));
#93=EDGE_LOOP('',(#577,#578,#579,#580));
#94=EDGE_LOOP('',(#581,#582,#583,#584));
#95=EDGE_LOOP('',(#585,#586,#587,#588));
#96=EDGE_LOOP('',(#589,#590,#591,#592));
#97=EDGE_LOOP('',(#593,#594,#595,#596));
#98=EDGE_LOOP('',(#597,#598,#599,#600,#601,#602,#603,#604,#605,#606,#607,
#608,#609,#610,#611,#612,#613,#614,#615,#616,#617,#618,#619,#620,#621,#622,
#623,#624,#625,#626,#627,#628,#629,#630,#631,#632,#633,#634,#635,#636));
#99=EDGE_LOOP('',(#637,#638,#639,#640));
#100=EDGE_LOOP('',(#641,#642,#643,#644));
#101=EDGE_LOOP('',(#645,#646,#647,#648));
#102=EDGE_LOOP('',(#649,#650,#651,#652));
#103=EDGE_LOOP('',(#653,#654,#655,#656));
#104=EDGE_LOOP('',(#657,#658,#659,#660));
#105=EDGE_LOOP('',(#661,#662,#663,#664,#665,#666,#667,#668,#669,#670,#671,
#672,#673,#674,#675,#676,#677,#678,#679,#680,#681,#682,#683,#684,#685,#686,
#687,#688,#689,#690,#691,#692,#693,#694,#695,#696,#697,#698,#699,#700));
#106=EDGE_LOOP('',(#701,#702,#703,#704));
#107=EDGE_LOOP('',(#705,#706,#707,#708));
#108=EDGE_LOOP('',(#709,#710,#711,#712));
#109=EDGE_LOOP('',(#713,#714,#715,#716));
#110=EDGE_LOOP('',(#717,#718,#719,#720));
#111=EDGE_LOOP('',(#721,#722,#723,#724));
#112=EDGE_LOOP('',(#725,#726,#727,#728));
#113=EDGE_LOOP('',(#729,#730,#731,#732));
#114=EDGE_LOOP('',(#733,#734,#735,#736));
#115=EDGE_LOOP('',(#737,#738,#739,#740));
#116=EDGE_LOOP('',(#741,#742,#743,#744));
#117=EDGE_LOOP('',(#745,#746,#747,#748));
#118=EDGE_LOOP('',(#749,#750,#751,#752));
#119=EDGE_LOOP('',(#753,#754,#755,#756));
#120=EDGE_LOOP('',(#757,#758,#759,#760));
#121=LINE('',#1171,#201);
#122=LINE('',#1174,#202);
#123=LINE('',#1177,#203);
#124=LINE('',#1179,#204);
#125=LINE('',#1180,#205);
#126=LINE('',#1185,#206);
#127=LINE('',#1192,#207);
#128=LINE('',#1195,#208);
#129=LINE('',#1198,#209);
#130=LINE('',#1200,#210);
#131=LINE('',#1201,#211);
#132=LINE('',#1207,#212);
#133=LINE('',#1210,#213);
#134=LINE('',#1213,#214);
#135=LINE('',#1215,#215);
#136=LINE('',#1216,#216);
#137=LINE('',#1221,#217);
#138=LINE('',#1228,#218);
#139=LINE('',#1231,#219);
#140=LINE('',#1237,#220);
#141=LINE('',#1240,#221);
#142=LINE('',#1243,#222);
#143=LINE('',#1245,#223);
#144=LINE('',#1246,#224);
#145=LINE('',#1252,#225);
#146=LINE('',#1255,#226);
#147=LINE('',#1257,#227);
#148=LINE('',#1258,#228);
#149=LINE('',#1263,#229);
#150=LINE('',#1267,#230);
#151=LINE('',#1269,#231);
#152=LINE('',#1270,#232);
#153=LINE('',#1275,#233);
#154=LINE('',#1276,#234);
#155=LINE('',#1278,#235);
#156=LINE('',#1279,#236);
#157=LINE('',#1281,#237);
#158=LINE('',#1282,#238);
#159=LINE('',#1285,#239);
#160=LINE('',#1289,#240);
#161=LINE('',#1293,#241);
#162=LINE('',#1297,#242);
#163=LINE('',#1301,#243);
#164=LINE('',#1305,#244);
#165=LINE('',#1309,#245);
#166=LINE('',#1313,#246);
#167=LINE('',#1317,#247);
#168=LINE('',#1321,#248);
#169=LINE('',#1324,#249);
#170=LINE('',#1327,#250);
#171=LINE('',#1328,#251);
#172=LINE('',#1332,#252);
#173=LINE('',#1335,#253);
#174=LINE('',#1336,#254);
#175=LINE('',#1340,#255);
#176=LINE('',#1345,#256);
#177=LINE('',#1346,#257);
#178=LINE('',#1349,#258);
#179=LINE('',#1350,#259);
#180=LINE('',#1353,#260);
#181=LINE('',#1357,#261);
#182=LINE('',#1361,#262);
#183=LINE('',#1365,#263);
#184=LINE('',#1369,#264);
#185=LINE('',#1373,#265);
#186=LINE('',#1377,#266);
#187=LINE('',#1379,#267);
#188=LINE('',#1381,#268);
#189=LINE('',#1382,#269);
#190=LINE('',#1384,#270);
#191=LINE('',#1386,#271);
#192=LINE('',#1388,#272);
#193=LINE('',#1389,#273);
#194=LINE('',#1392,#274);
#195=LINE('',#1393,#275);
#196=LINE('',#1395,#276);
#197=LINE('',#1397,#277);
#198=LINE('',#1398,#278);
#199=LINE('',#1401,#279);
#200=LINE('',#1403,#280);
#201=VECTOR('',#925,10.);
#202=VECTOR('',#928,10.);
#203=VECTOR('',#931,10.);
#204=VECTOR('',#932,10.);
#205=VECTOR('',#933,10.);
#206=VECTOR('',#938,10.);
#207=VECTOR('',#945,10.);
#208=VECTOR('',#948,10.);
#209=VECTOR('',#951,10.);
#210=VECTOR('',#952,10.);
#211=VECTOR('',#953,10.);
#212=VECTOR('',#958,10.);
#213=VECTOR('',#961,10.);
#214=VECTOR('',#964,10.);
#215=VECTOR('',#965,10.);
#216=VECTOR('',#966,10.);
#217=VECTOR('',#971,10.);
#218=VECTOR('',#978,10.);
#219=VECTOR('',#981,10.);
#220=VECTOR('',#986,10.);
#221=VECTOR('',#989,10.);
#222=VECTOR('',#992,10.);
#223=VECTOR('',#993,10.);
#224=VECTOR('',#994,10.);
#225=VECTOR('',#999,10.);
#226=VECTOR('',#1002,10.);
#227=VECTOR('',#1005,10.);
#228=VECTOR('',#1006,10.);
#229=VECTOR('',#1011,10.);
#230=VECTOR('',#1016,10.);
#231=VECTOR('',#1017,10.);
#232=VECTOR('',#1018,10.);
#233=VECTOR('',#1027,10.);
#234=VECTOR('',#1028,10.);
#235=VECTOR('',#1031,10.);
#236=VECTOR('',#1032,10.);
#237=VECTOR('',#1035,10.);
#238=VECTOR('',#1036,10.);
#239=VECTOR('',#1039,10.);
#240=VECTOR('',#1042,10.);
#241=VECTOR('',#1045,10.);
#242=VECTOR('',#1048,10.);
#243=VECTOR('',#1051,10.);
#244=VECTOR('',#1054,10.);
#245=VECTOR('',#1057,10.);
#246=VECTOR('',#1060,10.);
#247=VECTOR('',#1063,10.);
#248=VECTOR('',#1066,10.);
#249=VECTOR('',#1069,10.);
#250=VECTOR('',#1072,10.);
#251=VECTOR('',#1073,10.);
#252=VECTOR('',#1078,10.);
#253=VECTOR('',#1081,10.);
#254=VECTOR('',#1082,10.);
#255=VECTOR('',#1087,10.);
#256=VECTOR('',#1092,10.);
#257=VECTOR('',#1093,10.);
#258=VECTOR('',#1096,10.);
#259=VECTOR('',#1097,10.);
#260=VECTOR('',#1100,10.);
#261=VECTOR('',#1103,10.);
#262=VECTOR('',#1106,10.);
#263=VECTOR('',#1109,10.);
#264=VECTOR('',#1112,10.);
#265=VECTOR('',#1115,10.);
#266=VECTOR('',#1118,10.);
#267=VECTOR('',#1121,10.);
#268=VECTOR('',#1124,10.);
#269=VECTOR('',#1125,10.);
#270=VECTOR('',#1128,10.);
#271=VECTOR('',#1131,10.);
#272=VECTOR('',#1134,10.);
#273=VECTOR('',#1135,10.);
#274=VECTOR('',#1140,10.);
#275=VECTOR('',#1141,10.);
#276=VECTOR('',#1144,10.);
#277=VECTOR('',#1147,10.);
#278=VECTOR('',#1148,10.);
#279=VECTOR('',#1153,10.);
#280=VECTOR('',#1156,10.);
#281=CIRCLE('',#838,5.);
#282=CIRCLE('',#839,5.);
#283=CIRCLE('',#842,5.);
#284=CIRCLE('',#843,5.);
#285=CIRCLE('',#845,5.);
#286=CIRCLE('',#846,5.);
#287=CIRCLE('',#849,5.);
#288=CIRCLE('',#850,5.);
#289=CIRCLE('',#853,5.);
#290=CIRCLE('',#854,5.);
#291=CIRCLE('',#856,5.);
#292=CIRCLE('',#857,5.);
#293=CIRCLE('',#859,2.49999999999998);
#294=CIRCLE('',#860,2.49999999999998);
#295=CIRCLE('',#863,2.49999999999998);
#296=CIRCLE('',#864,2.49999999999998);
#297=CIRCLE('',#867,2.49999999999998);
#298=CIRCLE('',#868,2.49999999999998);
#299=CIRCLE('',#871,2.49999999999998);
#300=CIRCLE('',#872,2.49999999999998);
#301=CIRCLE('',#877,5.);
#302=CIRCLE('',#878,5.);
#303=CIRCLE('',#879,5.);
#304=CIRCLE('',#880,2.49999999999998);
#305=CIRCLE('',#881,2.49999999999998);
#306=CIRCLE('',#882,2.49999999999998);
#307=CIRCLE('',#883,2.49999999999998);
#308=CIRCLE('',#884,5.);
#309=CIRCLE('',#885,5.);
#310=CIRCLE('',#886,5.);
#311=CIRCLE('',#889,5.);
#312=CIRCLE('',#892,5.);
#313=CIRCLE('',#894,5.);
#314=CIRCLE('',#897,5.);
#315=CIRCLE('',#898,5.);
#316=CIRCLE('',#899,5.);
#317=CIRCLE('',#900,2.49999999999998);
#318=CIRCLE('',#901,2.49999999999998);
#319=CIRCLE('',#902,2.49999999999998);
#320=CIRCLE('',#903,2.49999999999998);
#321=VERTEX_POINT('',#1167);
#322=VERTEX_POINT('',#1168);
#323=VERTEX_POINT('',#1170);
#324=VERTEX_POINT('',#1172);
#325=VERTEX_POINT('',#1176);
#326=VERTEX_POINT('',#1178);
#327=VERTEX_POINT('',#1182);
#328=VERTEX_POINT('',#1184);
#329=VERTEX_POINT('',#1188);
#330=VERTEX_POINT('',#1189);
#331=VERTEX_POINT('',#1191);
#332=VERTEX_POINT('',#1193);
#333=VERTEX_POINT('',#1197);
#334=VERTEX_POINT('',#1199);
#335=VERTEX_POINT('',#1203);
#336=VERTEX_POINT('',#1204);
#337=VERTEX_POINT('',#1206);
#338=VERTEX_POINT('',#1208);
#339=VERTEX_POINT('',#1212);
#340=VERTEX_POINT('',#1214);
#341=VERTEX_POINT('',#1218);
#342=VERTEX_POINT('',#1220);
#343=VERTEX_POINT('',#1224);
#344=VERTEX_POINT('',#1225);
#345=VERTEX_POINT('',#1227);
#346=VERTEX_POINT('',#1229);
#347=VERTEX_POINT('',#1233);
#348=VERTEX_POINT('',#1234);
#349=VERTEX_POINT('',#1236);
#350=VERTEX_POINT('',#1238);
#351=VERTEX_POINT('',#1242);
#352=VERTEX_POINT('',#1244);
#353=VERTEX_POINT('',#1248);
#354=VERTEX_POINT('',#1249);
#355=VERTEX_POINT('',#1251);
#356=VERTEX_POINT('',#1253);
#357=VERTEX_POINT('',#1260);
#358=VERTEX_POINT('',#1262);
#359=VERTEX_POINT('',#1266);
#360=VERTEX_POINT('',#1268);
#361=VERTEX_POINT('',#1284);
#362=VERTEX_POINT('',#1286);
#363=VERTEX_POINT('',#1288);
#364=VERTEX_POINT('',#1290);
#365=VERTEX_POINT('',#1292);
#366=VERTEX_POINT('',#1294);
#367=VERTEX_POINT('',#1296);
#368=VERTEX_POINT('',#1298);
#369=VERTEX_POINT('',#1300);
#370=VERTEX_POINT('',#1302);
#371=VERTEX_POINT('',#1304);
#372=VERTEX_POINT('',#1306);
#373=VERTEX_POINT('',#1308);
#374=VERTEX_POINT('',#1310);
#375=VERTEX_POINT('',#1312);
#376=VERTEX_POINT('',#1314);
#377=VERTEX_POINT('',#1316);
#378=VERTEX_POINT('',#1318);
#379=VERTEX_POINT('',#1320);
#380=VERTEX_POINT('',#1322);
#381=VERTEX_POINT('',#1326);
#382=VERTEX_POINT('',#1330);
#383=VERTEX_POINT('',#1334);
#384=VERTEX_POINT('',#1338);
#385=VERTEX_POINT('',#1342);
#386=VERTEX_POINT('',#1343);
#387=VERTEX_POINT('',#1348);
#388=VERTEX_POINT('',#1352);
#389=VERTEX_POINT('',#1354);
#390=VERTEX_POINT('',#1356);
#391=VERTEX_POINT('',#1358);
#392=VERTEX_POINT('',#1360);
#393=VERTEX_POINT('',#1362);
#394=VERTEX_POINT('',#1364);
#395=VERTEX_POINT('',#1366);
#396=VERTEX_POINT('',#1368);
#397=VERTEX_POINT('',#1370);
#398=VERTEX_POINT('',#1372);
#399=VERTEX_POINT('',#1374);
#400=VERTEX_POINT('',#1376);
#401=EDGE_CURVE('',#321,#322,#281,.T.);
#402=EDGE_CURVE('',#323,#321,#121,.T.);
#403=EDGE_CURVE('',#324,#323,#282,.T.);
#404=EDGE_CURVE('',#322,#324,#122,.T.);
#405=EDGE_CURVE('',#324,#325,#123,.T.);
#406=EDGE_CURVE('',#325,#326,#124,.T.);
#407=EDGE_CURVE('',#326,#322,#125,.T.);
#408=EDGE_CURVE('',#327,#325,#283,.T.);
#409=EDGE_CURVE('',#328,#327,#126,.T.);
#410=EDGE_CURVE('',#326,#328,#284,.T.);
#411=EDGE_CURVE('',#329,#330,#285,.T.);
#412=EDGE_CURVE('',#331,#329,#127,.T.);
#413=EDGE_CURVE('',#332,#331,#286,.T.);
#414=EDGE_CURVE('',#330,#332,#128,.T.);
#415=EDGE_CURVE('',#333,#332,#129,.T.);
#416=EDGE_CURVE('',#333,#334,#130,.T.);
#417=EDGE_CURVE('',#334,#330,#131,.T.);
#418=EDGE_CURVE('',#335,#336,#287,.T.);
#419=EDGE_CURVE('',#337,#335,#132,.T.);
#420=EDGE_CURVE('',#338,#337,#288,.T.);
#421=EDGE_CURVE('',#336,#338,#133,.T.);
#422=EDGE_CURVE('',#339,#338,#134,.T.);
#423=EDGE_CURVE('',#339,#340,#135,.T.);
#424=EDGE_CURVE('',#340,#336,#136,.T.);
#425=EDGE_CURVE('',#341,#339,#289,.T.);
#426=EDGE_CURVE('',#342,#341,#137,.T.);
#427=EDGE_CURVE('',#340,#342,#290,.T.);
#428=EDGE_CURVE('',#343,#344,#291,.T.);
#429=EDGE_CURVE('',#345,#343,#138,.T.);
#430=EDGE_CURVE('',#346,#345,#292,.T.);
#431=EDGE_CURVE('',#344,#346,#139,.T.);
#432=EDGE_CURVE('',#347,#348,#293,.T.);
#433=EDGE_CURVE('',#349,#347,#140,.T.);
#434=EDGE_CURVE('',#350,#349,#294,.T.);
#435=EDGE_CURVE('',#348,#350,#141,.T.);
#436=EDGE_CURVE('',#350,#351,#142,.T.);
#437=EDGE_CURVE('',#351,#352,#143,.T.);
#438=EDGE_CURVE('',#352,#348,#144,.T.);
#439=EDGE_CURVE('',#353,#354,#295,.T.);
#440=EDGE_CURVE('',#355,#353,#145,.T.);
#441=EDGE_CURVE('',#356,#355,#296,.T.);
#442=EDGE_CURVE('',#354,#356,#146,.T.);
#443=EDGE_CURVE('',#347,#355,#147,.T.);
#444=EDGE_CURVE('',#353,#349,#148,.T.);
#445=EDGE_CURVE('',#357,#333,#297,.T.);
#446=EDGE_CURVE('',#358,#357,#149,.T.);
#447=EDGE_CURVE('',#334,#358,#298,.T.);
#448=EDGE_CURVE('',#357,#359,#150,.T.);
#449=EDGE_CURVE('',#359,#360,#151,.T.);
#450=EDGE_CURVE('',#360,#358,#152,.T.);
#451=EDGE_CURVE('',#352,#359,#299,.T.);
#452=EDGE_CURVE('',#360,#351,#300,.T.);
#453=EDGE_CURVE('',#327,#331,#153,.T.);
#454=EDGE_CURVE('',#329,#328,#154,.T.);
#455=EDGE_CURVE('',#335,#354,#155,.T.);
#456=EDGE_CURVE('',#337,#356,#156,.T.);
#457=EDGE_CURVE('',#345,#341,#157,.T.);
#458=EDGE_CURVE('',#343,#342,#158,.T.);
#459=EDGE_CURVE('',#361,#323,#159,.T.);
#460=EDGE_CURVE('',#362,#361,#301,.T.);
#461=EDGE_CURVE('',#362,#363,#160,.T.);
#462=EDGE_CURVE('',#364,#363,#302,.T.);
#463=EDGE_CURVE('',#364,#365,#161,.T.);
#464=EDGE_CURVE('',#366,#365,#303,.T.);
#465=EDGE_CURVE('',#367,#366,#162,.T.);
#466=EDGE_CURVE('',#368,#367,#304,.T.);
#467=EDGE_CURVE('',#368,#369,#163,.T.);
#468=EDGE_CURVE('',#370,#369,#305,.T.);
#469=EDGE_CURVE('',#370,#371,#164,.T.);
#470=EDGE_CURVE('',#372,#371,#306,.T.);
#471=EDGE_CURVE('',#372,#373,#165,.T.);
#472=EDGE_CURVE('',#374,#373,#307,.T.);
#473=EDGE_CURVE('',#375,#374,#166,.T.);
#474=EDGE_CURVE('',#376,#375,#308,.T.);
#475=EDGE_CURVE('',#377,#376,#167,.T.);
#476=EDGE_CURVE('',#378,#377,#309,.T.);
#477=EDGE_CURVE('',#379,#378,#168,.T.);
#478=EDGE_CURVE('',#380,#379,#310,.T.);
#479=EDGE_CURVE('',#380,#346,#169,.T.);
#480=EDGE_CURVE('',#381,#321,#170,.T.);
#481=EDGE_CURVE('',#361,#381,#171,.T.);
#482=EDGE_CURVE('',#381,#382,#311,.T.);
#483=EDGE_CURVE('',#382,#362,#172,.T.);
#484=EDGE_CURVE('',#383,#382,#173,.T.);
#485=EDGE_CURVE('',#363,#383,#174,.T.);
#486=EDGE_CURVE('',#383,#384,#312,.T.);
#487=EDGE_CURVE('',#384,#364,#175,.T.);
#488=EDGE_CURVE('',#385,#386,#313,.T.);
#489=EDGE_CURVE('',#386,#366,#176,.T.);
#490=EDGE_CURVE('',#365,#385,#177,.T.);
#491=EDGE_CURVE('',#387,#386,#178,.T.);
#492=EDGE_CURVE('',#367,#387,#179,.T.);
#493=EDGE_CURVE('',#344,#388,#180,.T.);
#494=EDGE_CURVE('',#389,#388,#314,.T.);
#495=EDGE_CURVE('',#389,#390,#181,.T.);
#496=EDGE_CURVE('',#391,#390,#315,.T.);
#497=EDGE_CURVE('',#391,#392,#182,.T.);
#498=EDGE_CURVE('',#393,#392,#316,.T.);
#499=EDGE_CURVE('',#393,#394,#183,.T.);
#500=EDGE_CURVE('',#395,#394,#317,.T.);
#501=EDGE_CURVE('',#395,#396,#184,.T.);
#502=EDGE_CURVE('',#397,#396,#318,.T.);
#503=EDGE_CURVE('',#397,#398,#185,.T.);
#504=EDGE_CURVE('',#399,#398,#319,.T.);
#505=EDGE_CURVE('',#399,#400,#186,.T.);
#506=EDGE_CURVE('',#387,#400,#320,.T.);
#507=EDGE_CURVE('',#385,#384,#187,.T.);
#508=EDGE_CURVE('',#392,#376,#188,.T.);
#509=EDGE_CURVE('',#375,#393,#189,.T.);
#510=EDGE_CURVE('',#377,#391,#190,.T.);
#511=EDGE_CURVE('',#390,#378,#191,.T.);
#512=EDGE_CURVE('',#388,#380,#192,.T.);
#513=EDGE_CURVE('',#379,#389,#193,.T.);
#514=EDGE_CURVE('',#371,#397,#194,.T.);
#515=EDGE_CURVE('',#396,#372,#195,.T.);
#516=EDGE_CURVE('',#398,#370,#196,.T.);
#517=EDGE_CURVE('',#394,#374,#197,.T.);
#518=EDGE_CURVE('',#373,#395,#198,.T.);
#519=EDGE_CURVE('',#400,#368,#199,.T.);
#520=EDGE_CURVE('',#369,#399,#200,.T.);
#521=ORIENTED_EDGE('',*,*,#401,.F.);
#522=ORIENTED_EDGE('',*,*,#402,.F.);
#523=ORIENTED_EDGE('',*,*,#403,.F.);
#524=ORIENTED_EDGE('',*,*,#404,.F.);
#525=ORIENTED_EDGE('',*,*,#404,.T.);
#526=ORIENTED_EDGE('',*,*,#405,.T.);
#527=ORIENTED_EDGE('',*,*,#406,.T.);
#528=ORIENTED_EDGE('',*,*,#407,.T.);
#529=ORIENTED_EDGE('',*,*,#408,.F.);
#530=ORIENTED_EDGE('',*,*,#409,.F.);
#531=ORIENTED_EDGE('',*,*,#410,.F.);
#532=ORIENTED_EDGE('',*,*,#406,.F.);
#533=ORIENTED_EDGE('',*,*,#411,.F.);
#534=ORIENTED_EDGE('',*,*,#412,.F.);
#535=ORIENTED_EDGE('',*,*,#413,.F.);
#536=ORIENTED_EDGE('',*,*,#414,.F.);
#537=ORIENTED_EDGE('',*,*,#414,.T.);
#538=ORIENTED_EDGE('',*,*,#415,.F.);
#539=ORIENTED_EDGE('',*,*,#416,.T.);
#540=ORIENTED_EDGE('',*,*,#417,.T.);
#541=ORIENTED_EDGE('',*,*,#418,.F.);
#542=ORIENTED_EDGE('',*,*,#419,.F.);
#543=ORIENTED_EDGE('',*,*,#420,.F.);
#544=ORIENTED_EDGE('',*,*,#421,.F.);
#545=ORIENTED_EDGE('',*,*,#421,.T.);
#546=ORIENTED_EDGE('',*,*,#422,.F.);
#547=ORIENTED_EDGE('',*,*,#423,.T.);
#548=ORIENTED_EDGE('',*,*,#424,.T.);
#549=ORIENTED_EDGE('',*,*,#425,.F.);
#550=ORIENTED_EDGE('',*,*,#426,.F.);
#551=ORIENTED_EDGE('',*,*,#427,.F.);
#552=ORIENTED_EDGE('',*,*,#423,.F.);
#553=ORIENTED_EDGE('',*,*,#428,.F.);
#554=ORIENTED_EDGE('',*,*,#429,.F.);
#555=ORIENTED_EDGE('',*,*,#430,.F.);
#556=ORIENTED_EDGE('',*,*,#431,.F.);
#557=ORIENTED_EDGE('',*,*,#432,.F.);
#558=ORIENTED_EDGE('',*,*,#433,.F.);
#559=ORIENTED_EDGE('',*,*,#434,.F.);
#560=ORIENTED_EDGE('',*,*,#435,.F.);
#561=ORIENTED_EDGE('',*,*,#435,.T.);
#562=ORIENTED_EDGE('',*,*,#436,.T.);
#563=ORIENTED_EDGE('',*,*,#437,.T.);
#564=ORIENTED_EDGE('',*,*,#438,.T.);
#565=ORIENTED_EDGE('',*,*,#439,.F.);
#566=ORIENTED_EDGE('',*,*,#440,.F.);
#567=ORIENTED_EDGE('',*,*,#441,.F.);
#568=ORIENTED_EDGE('',*,*,#442,.F.);
#569=ORIENTED_EDGE('',*,*,#433,.T.);
#570=ORIENTED_EDGE('',*,*,#443,.T.);
#571=ORIENTED_EDGE('',*,*,#440,.T.);
#572=ORIENTED_EDGE('',*,*,#444,.T.);
#573=ORIENTED_EDGE('',*,*,#445,.F.);
#574=ORIENTED_EDGE('',*,*,#446,.F.);
#575=ORIENTED_EDGE('',*,*,#447,.F.);
#576=ORIENTED_EDGE('',*,*,#416,.F.);
#577=ORIENTED_EDGE('',*,*,#446,.T.);
#578=ORIENTED_EDGE('',*,*,#448,.T.);
#579=ORIENTED_EDGE('',*,*,#449,.T.);
#580=ORIENTED_EDGE('',*,*,#450,.T.);
#581=ORIENTED_EDGE('',*,*,#451,.F.);
#582=ORIENTED_EDGE('',*,*,#437,.F.);
#583=ORIENTED_EDGE('',*,*,#452,.F.);
#584=ORIENTED_EDGE('',*,*,#449,.F.);
#585=ORIENTED_EDGE('',*,*,#409,.T.);
#586=ORIENTED_EDGE('',*,*,#453,.T.);
#587=ORIENTED_EDGE('',*,*,#412,.T.);
#588=ORIENTED_EDGE('',*,*,#454,.T.);
#589=ORIENTED_EDGE('',*,*,#419,.T.);
#590=ORIENTED_EDGE('',*,*,#455,.T.);
#591=ORIENTED_EDGE('',*,*,#442,.T.);
#592=ORIENTED_EDGE('',*,*,#456,.F.);
#593=ORIENTED_EDGE('',*,*,#426,.T.);
#594=ORIENTED_EDGE('',*,*,#457,.F.);
#595=ORIENTED_EDGE('',*,*,#429,.T.);
#596=ORIENTED_EDGE('',*,*,#458,.T.);
#597=ORIENTED_EDGE('',*,*,#459,.F.);
#598=ORIENTED_EDGE('',*,*,#460,.F.);
#599=ORIENTED_EDGE('',*,*,#461,.T.);
#600=ORIENTED_EDGE('',*,*,#462,.F.);
#601=ORIENTED_EDGE('',*,*,#463,.T.);
#602=ORIENTED_EDGE('',*,*,#464,.F.);
#603=ORIENTED_EDGE('',*,*,#465,.F.);
#604=ORIENTED_EDGE('',*,*,#466,.F.);
#605=ORIENTED_EDGE('',*,*,#467,.T.);
#606=ORIENTED_EDGE('',*,*,#468,.F.);
#607=ORIENTED_EDGE('',*,*,#469,.T.);
#608=ORIENTED_EDGE('',*,*,#470,.F.);
#609=ORIENTED_EDGE('',*,*,#471,.T.);
#610=ORIENTED_EDGE('',*,*,#472,.F.);
#611=ORIENTED_EDGE('',*,*,#473,.F.);
#612=ORIENTED_EDGE('',*,*,#474,.F.);
#613=ORIENTED_EDGE('',*,*,#475,.F.);
#614=ORIENTED_EDGE('',*,*,#476,.F.);
#615=ORIENTED_EDGE('',*,*,#477,.F.);
#616=ORIENTED_EDGE('',*,*,#478,.F.);
#617=ORIENTED_EDGE('',*,*,#479,.T.);
#618=ORIENTED_EDGE('',*,*,#430,.T.);
#619=ORIENTED_EDGE('',*,*,#457,.T.);
#620=ORIENTED_EDGE('',*,*,#425,.T.);
#621=ORIENTED_EDGE('',*,*,#422,.T.);
#622=ORIENTED_EDGE('',*,*,#420,.T.);
#623=ORIENTED_EDGE('',*,*,#456,.T.);
#624=ORIENTED_EDGE('',*,*,#441,.T.);
#625=ORIENTED_EDGE('',*,*,#443,.F.);
#626=ORIENTED_EDGE('',*,*,#432,.T.);
#627=ORIENTED_EDGE('',*,*,#438,.F.);
#628=ORIENTED_EDGE('',*,*,#451,.T.);
#629=ORIENTED_EDGE('',*,*,#448,.F.);
#630=ORIENTED_EDGE('',*,*,#445,.T.);
#631=ORIENTED_EDGE('',*,*,#415,.T.);
#632=ORIENTED_EDGE('',*,*,#413,.T.);
#633=ORIENTED_EDGE('',*,*,#453,.F.);
#634=ORIENTED_EDGE('',*,*,#408,.T.);
#635=ORIENTED_EDGE('',*,*,#405,.F.);
#636=ORIENTED_EDGE('',*,*,#403,.T.);
#637=ORIENTED_EDGE('',*,*,#480,.F.);
#638=ORIENTED_EDGE('',*,*,#481,.F.);
#639=ORIENTED_EDGE('',*,*,#459,.T.);
#640=ORIENTED_EDGE('',*,*,#402,.T.);
#641=ORIENTED_EDGE('',*,*,#482,.T.);
#642=ORIENTED_EDGE('',*,*,#483,.T.);
#643=ORIENTED_EDGE('',*,*,#460,.T.);
#644=ORIENTED_EDGE('',*,*,#481,.T.);
#645=ORIENTED_EDGE('',*,*,#483,.F.);
#646=ORIENTED_EDGE('',*,*,#484,.F.);
#647=ORIENTED_EDGE('',*,*,#485,.F.);
#648=ORIENTED_EDGE('',*,*,#461,.F.);
#649=ORIENTED_EDGE('',*,*,#462,.T.);
#650=ORIENTED_EDGE('',*,*,#485,.T.);
#651=ORIENTED_EDGE('',*,*,#486,.T.);
#652=ORIENTED_EDGE('',*,*,#487,.T.);
#653=ORIENTED_EDGE('',*,*,#488,.T.);
#654=ORIENTED_EDGE('',*,*,#489,.T.);
#655=ORIENTED_EDGE('',*,*,#464,.T.);
#656=ORIENTED_EDGE('',*,*,#490,.T.);
#657=ORIENTED_EDGE('',*,*,#489,.F.);
#658=ORIENTED_EDGE('',*,*,#491,.F.);
#659=ORIENTED_EDGE('',*,*,#492,.F.);
#660=ORIENTED_EDGE('',*,*,#465,.T.);
#661=ORIENTED_EDGE('',*,*,#493,.T.);
#662=ORIENTED_EDGE('',*,*,#494,.F.);
#663=ORIENTED_EDGE('',*,*,#495,.T.);
#664=ORIENTED_EDGE('',*,*,#496,.F.);
#665=ORIENTED_EDGE('',*,*,#497,.T.);
#666=ORIENTED_EDGE('',*,*,#498,.F.);
#667=ORIENTED_EDGE('',*,*,#499,.T.);
#668=ORIENTED_EDGE('',*,*,#500,.F.);
#669=ORIENTED_EDGE('',*,*,#501,.T.);
#670=ORIENTED_EDGE('',*,*,#502,.F.);
#671=ORIENTED_EDGE('',*,*,#503,.T.);
#672=ORIENTED_EDGE('',*,*,#504,.F.);
#673=ORIENTED_EDGE('',*,*,#505,.T.);
#674=ORIENTED_EDGE('',*,*,#506,.F.);
#675=ORIENTED_EDGE('',*,*,#491,.T.);
#676=ORIENTED_EDGE('',*,*,#488,.F.);
#677=ORIENTED_EDGE('',*,*,#507,.T.);
#678=ORIENTED_EDGE('',*,*,#486,.F.);
#679=ORIENTED_EDGE('',*,*,#484,.T.);
#680=ORIENTED_EDGE('',*,*,#482,.F.);
#681=ORIENTED_EDGE('',*,*,#480,.T.);
#682=ORIENTED_EDGE('',*,*,#401,.T.);
#683=ORIENTED_EDGE('',*,*,#407,.F.);
#684=ORIENTED_EDGE('',*,*,#410,.T.);
#685=ORIENTED_EDGE('',*,*,#454,.F.);
#686=ORIENTED_EDGE('',*,*,#411,.T.);
#687=ORIENTED_EDGE('',*,*,#417,.F.);
#688=ORIENTED_EDGE('',*,*,#447,.T.);
#689=ORIENTED_EDGE('',*,*,#450,.F.);
#690=ORIENTED_EDGE('',*,*,#452,.T.);
#691=ORIENTED_EDGE('',*,*,#436,.F.);
#692=ORIENTED_EDGE('',*,*,#434,.T.);
#693=ORIENTED_EDGE('',*,*,#444,.F.);
#694=ORIENTED_EDGE('',*,*,#439,.T.);
#695=ORIENTED_EDGE('',*,*,#455,.F.);
#696=ORIENTED_EDGE('',*,*,#418,.T.);
#697=ORIENTED_EDGE('',*,*,#424,.F.);
#698=ORIENTED_EDGE('',*,*,#427,.T.);
#699=ORIENTED_EDGE('',*,*,#458,.F.);
#700=ORIENTED_EDGE('',*,*,#428,.T.);
#701=ORIENTED_EDGE('',*,*,#498,.T.);
#702=ORIENTED_EDGE('',*,*,#508,.T.);
#703=ORIENTED_EDGE('',*,*,#474,.T.);
#704=ORIENTED_EDGE('',*,*,#509,.T.);
#705=ORIENTED_EDGE('',*,*,#508,.F.);
#706=ORIENTED_EDGE('',*,*,#497,.F.);
#707=ORIENTED_EDGE('',*,*,#510,.F.);
#708=ORIENTED_EDGE('',*,*,#475,.T.);
#709=ORIENTED_EDGE('',*,*,#476,.T.);
#710=ORIENTED_EDGE('',*,*,#510,.T.);
#711=ORIENTED_EDGE('',*,*,#496,.T.);
#712=ORIENTED_EDGE('',*,*,#511,.T.);
#713=ORIENTED_EDGE('',*,*,#494,.T.);
#714=ORIENTED_EDGE('',*,*,#512,.T.);
#715=ORIENTED_EDGE('',*,*,#478,.T.);
#716=ORIENTED_EDGE('',*,*,#513,.T.);
#717=ORIENTED_EDGE('',*,*,#479,.F.);
#718=ORIENTED_EDGE('',*,*,#512,.F.);
#719=ORIENTED_EDGE('',*,*,#493,.F.);
#720=ORIENTED_EDGE('',*,*,#431,.T.);
#721=ORIENTED_EDGE('',*,*,#470,.T.);
#722=ORIENTED_EDGE('',*,*,#514,.T.);
#723=ORIENTED_EDGE('',*,*,#502,.T.);
#724=ORIENTED_EDGE('',*,*,#515,.T.);
#725=ORIENTED_EDGE('',*,*,#514,.F.);
#726=ORIENTED_EDGE('',*,*,#469,.F.);
#727=ORIENTED_EDGE('',*,*,#516,.F.);
#728=ORIENTED_EDGE('',*,*,#503,.F.);
#729=ORIENTED_EDGE('',*,*,#500,.T.);
#730=ORIENTED_EDGE('',*,*,#517,.T.);
#731=ORIENTED_EDGE('',*,*,#472,.T.);
#732=ORIENTED_EDGE('',*,*,#518,.T.);
#733=ORIENTED_EDGE('',*,*,#515,.F.);
#734=ORIENTED_EDGE('',*,*,#501,.F.);
#735=ORIENTED_EDGE('',*,*,#518,.F.);
#736=ORIENTED_EDGE('',*,*,#471,.F.);
#737=ORIENTED_EDGE('',*,*,#466,.T.);
#738=ORIENTED_EDGE('',*,*,#492,.T.);
#739=ORIENTED_EDGE('',*,*,#506,.T.);
#740=ORIENTED_EDGE('',*,*,#519,.T.);
#741=ORIENTED_EDGE('',*,*,#519,.F.);
#742=ORIENTED_EDGE('',*,*,#505,.F.);
#743=ORIENTED_EDGE('',*,*,#520,.F.);
#744=ORIENTED_EDGE('',*,*,#467,.F.);
#745=ORIENTED_EDGE('',*,*,#468,.T.);
#746=ORIENTED_EDGE('',*,*,#520,.T.);
#747=ORIENTED_EDGE('',*,*,#504,.T.);
#748=ORIENTED_EDGE('',*,*,#516,.T.);
#749=ORIENTED_EDGE('',*,*,#487,.F.);
#750=ORIENTED_EDGE('',*,*,#507,.F.);
#751=ORIENTED_EDGE('',*,*,#490,.F.);
#752=ORIENTED_EDGE('',*,*,#463,.F.);
#753=ORIENTED_EDGE('',*,*,#509,.F.);
#754=ORIENTED_EDGE('',*,*,#473,.T.);
#755=ORIENTED_EDGE('',*,*,#517,.F.);
#756=ORIENTED_EDGE('',*,*,#499,.F.);
#757=ORIENTED_EDGE('',*,*,#511,.F.);
#758=ORIENTED_EDGE('',*,*,#495,.F.);
#759=ORIENTED_EDGE('',*,*,#513,.F.);
#760=ORIENTED_EDGE('',*,*,#477,.T.);
#761=CYLINDRICAL_SURFACE('',#837,5.);
#762=CYLINDRICAL_SURFACE('',#841,5.);
#763=CYLINDRICAL_SURFACE('',#844,5.);
#764=CYLINDRICAL_SURFACE('',#848,5.);
#765=CYLINDRICAL_SURFACE('',#852,5.);
#766=CYLINDRICAL_SURFACE('',#855,5.);
#767=CYLINDRICAL_SURFACE('',#858,2.49999999999998);
#768=CYLINDRICAL_SURFACE('',#862,2.49999999999998);
#769=CYLINDRICAL_SURFACE('',#866,2.49999999999998);
#770=CYLINDRICAL_SURFACE('',#870,2.49999999999998);
#771=CYLINDRICAL_SURFACE('',#888,5.);
#772=CYLINDRICAL_SURFACE('',#891,5.);
#773=CYLINDRICAL_SURFACE('',#893,5.);
#774=CYLINDRICAL_SURFACE('',#904,5.);
#775=CYLINDRICAL_SURFACE('',#906,5.);
#776=CYLINDRICAL_SURFACE('',#907,5.);
#777=CYLINDRICAL_SURFACE('',#909,2.49999999999998);
#778=CYLINDRICAL_SURFACE('',#911,2.49999999999998);
#779=CYLINDRICAL_SURFACE('',#913,2.49999999999998);
#780=CYLINDRICAL_SURFACE('',#915,2.49999999999998);
#781=ADVANCED_FACE('',(#37),#761,.T.);
#782=ADVANCED_FACE('',(#38),#15,.F.);
#783=ADVANCED_FACE('',(#39),#762,.F.);
#784=ADVANCED_FACE('',(#40),#763,.T.);
#785=ADVANCED_FACE('',(#41),#16,.F.);
#786=ADVANCED_FACE('',(#42),#764,.T.);
#787=ADVANCED_FACE('',(#43),#17,.F.);
#788=ADVANCED_FACE('',(#44),#765,.F.);
#789=ADVANCED_FACE('',(#45),#766,.T.);
#790=ADVANCED_FACE('',(#46),#767,.F.);
#791=ADVANCED_FACE('',(#47),#18,.T.);
#792=ADVANCED_FACE('',(#48),#768,.T.);
#793=ADVANCED_FACE('',(#49),#19,.T.);
#794=ADVANCED_FACE('',(#50),#769,.T.);
#795=ADVANCED_FACE('',(#51),#20,.T.);
#796=ADVANCED_FACE('',(#52),#770,.F.);
#797=ADVANCED_FACE('',(#53),#21,.F.);
#798=ADVANCED_FACE('',(#54),#22,.F.);
#799=ADVANCED_FACE('',(#55),#23,.F.);
#800=ADVANCED_FACE('',(#56),#24,.F.);
#801=ADVANCED_FACE('',(#57),#25,.T.);
#802=ADVANCED_FACE('',(#58),#771,.T.);
#803=ADVANCED_FACE('',(#59),#26,.T.);
#804=ADVANCED_FACE('',(#60),#772,.F.);
#805=ADVANCED_FACE('',(#61),#773,.T.);
#806=ADVANCED_FACE('',(#62),#27,.T.);
#807=ADVANCED_FACE('',(#63),#28,.T.);
#808=ADVANCED_FACE('',(#64),#774,.T.);
#809=ADVANCED_FACE('',(#65),#29,.T.);
#810=ADVANCED_FACE('',(#66),#775,.F.);
#811=ADVANCED_FACE('',(#67),#776,.T.);
#812=ADVANCED_FACE('',(#68),#30,.T.);
#813=ADVANCED_FACE('',(#69),#777,.F.);
#814=ADVANCED_FACE('',(#70),#31,.F.);
#815=ADVANCED_FACE('',(#71),#778,.T.);
#816=ADVANCED_FACE('',(#72),#32,.F.);
#817=ADVANCED_FACE('',(#73),#779,.T.);
#818=ADVANCED_FACE('',(#74),#33,.F.);
#819=ADVANCED_FACE('',(#75),#780,.F.);
#820=ADVANCED_FACE('',(#76),#34,.T.);
#821=ADVANCED_FACE('',(#77),#35,.T.);
#822=ADVANCED_FACE('',(#78),#36,.T.);
#823=CLOSED_SHELL('',(#781,#782,#783,#784,#785,#786,#787,#788,#789,#790,
#791,#792,#793,#794,#795,#796,#797,#798,#799,#800,#801,#802,#803,#804,#805,
#806,#807,#808,#809,#810,#811,#812,#813,#814,#815,#816,#817,#818,#819,#820,
#821,#822));
#824=DERIVED_UNIT_ELEMENT(#826,1.);
#825=DERIVED_UNIT_ELEMENT(#1413,-3.);
#826=(
MASS_UNIT()
NAMED_UNIT(*)
SI_UNIT(.KILO.,.GRAM.)
);
#827=DERIVED_UNIT((#824,#825));
#828=MEASURE_REPRESENTATION_ITEM('density measure',
POSITIVE_RATIO_MEASURE(7850.),#827);
#829=PROPERTY_DEFINITION_REPRESENTATION(#834,#831);
#830=PROPERTY_DEFINITION_REPRESENTATION(#835,#832);
#831=REPRESENTATION('material name',(#833),#1410);
#832=REPRESENTATION('density',(#828),#1410);
#833=DESCRIPTIVE_REPRESENTATION_ITEM('Steel','Steel');
#834=PROPERTY_DEFINITION('material property','material name',#1420);
#835=PROPERTY_DEFINITION('material property','density of part',#1420);
#836=AXIS2_PLACEMENT_3D('',#1165,#919,#920);
#837=AXIS2_PLACEMENT_3D('',#1166,#921,#922);
#838=AXIS2_PLACEMENT_3D('',#1169,#923,#924);
#839=AXIS2_PLACEMENT_3D('',#1173,#926,#927);
#840=AXIS2_PLACEMENT_3D('',#1175,#929,#930);
#841=AXIS2_PLACEMENT_3D('',#1181,#934,#935);
#842=AXIS2_PLACEMENT_3D('',#1183,#936,#937);
#843=AXIS2_PLACEMENT_3D('',#1186,#939,#940);
#844=AXIS2_PLACEMENT_3D('',#1187,#941,#942);
#845=AXIS2_PLACEMENT_3D('',#1190,#943,#944);
#846=AXIS2_PLACEMENT_3D('',#1194,#946,#947);
#847=AXIS2_PLACEMENT_3D('',#1196,#949,#950);
#848=AXIS2_PLACEMENT_3D('',#1202,#954,#955);
#849=AXIS2_PLACEMENT_3D('',#1205,#956,#957);
#850=AXIS2_PLACEMENT_3D('',#1209,#959,#960);
#851=AXIS2_PLACEMENT_3D('',#1211,#962,#963);
#852=AXIS2_PLACEMENT_3D('',#1217,#967,#968);
#853=AXIS2_PLACEMENT_3D('',#1219,#969,#970);
#854=AXIS2_PLACEMENT_3D('',#1222,#972,#973);
#855=AXIS2_PLACEMENT_3D('',#1223,#974,#975);
#856=AXIS2_PLACEMENT_3D('',#1226,#976,#977);
#857=AXIS2_PLACEMENT_3D('',#1230,#979,#980);
#858=AXIS2_PLACEMENT_3D('',#1232,#982,#983);
#859=AXIS2_PLACEMENT_3D('',#1235,#984,#985);
#860=AXIS2_PLACEMENT_3D('',#1239,#987,#988);
#861=AXIS2_PLACEMENT_3D('',#1241,#990,#991);
#862=AXIS2_PLACEMENT_3D('',#1247,#995,#996);
#863=AXIS2_PLACEMENT_3D('',#1250,#997,#998);
#864=AXIS2_PLACEMENT_3D('',#1254,#1000,#1001);
#865=AXIS2_PLACEMENT_3D('',#1256,#1003,#1004);
#866=AXIS2_PLACEMENT_3D('',#1259,#1007,#1008);
#867=AXIS2_PLACEMENT_3D('',#1261,#1009,#1010);
#868=AXIS2_PLACEMENT_3D('',#1264,#1012,#1013);
#869=AXIS2_PLACEMENT_3D('',#1265,#1014,#1015);
#870=AXIS2_PLACEMENT_3D('',#1271,#1019,#1020);
#871=AXIS2_PLACEMENT_3D('',#1272,#1021,#1022);
#872=AXIS2_PLACEMENT_3D('',#1273,#1023,#1024);
#873=AXIS2_PLACEMENT_3D('',#1274,#1025,#1026);
#874=AXIS2_PLACEMENT_3D('',#1277,#1029,#1030);
#875=AXIS2_PLACEMENT_3D('',#1280,#1033,#1034);
#876=AXIS2_PLACEMENT_3D('',#1283,#1037,#1038);
#877=AXIS2_PLACEMENT_3D('',#1287,#1040,#1041);
#878=AXIS2_PLACEMENT_3D('',#1291,#1043,#1044);
#879=AXIS2_PLACEMENT_3D('',#1295,#1046,#1047);
#880=AXIS2_PLACEMENT_3D('',#1299,#1049,#1050);
#881=AXIS2_PLACEMENT_3D('',#1303,#1052,#1053);
#882=AXIS2_PLACEMENT_3D('',#1307,#1055,#1056);
#883=AXIS2_PLACEMENT_3D('',#1311,#1058,#1059);
#884=AXIS2_PLACEMENT_3D('',#1315,#1061,#1062);
#885=AXIS2_PLACEMENT_3D('',#1319,#1064,#1065);
#886=AXIS2_PLACEMENT_3D('',#1323,#1067,#1068);
#887=AXIS2_PLACEMENT_3D('',#1325,#1070,#1071);
#888=AXIS2_PLACEMENT_3D('',#1329,#1074,#1075);
#889=AXIS2_PLACEMENT_3D('',#1331,#1076,#1077);
#890=AXIS2_PLACEMENT_3D('',#1333,#1079,#1080);
#891=AXIS2_PLACEMENT_3D('',#1337,#1083,#1084);
#892=AXIS2_PLACEMENT_3D('',#1339,#1085,#1086);
#893=AXIS2_PLACEMENT_3D('',#1341,#1088,#1089);
#894=AXIS2_PLACEMENT_3D('',#1344,#1090,#1091);
#895=AXIS2_PLACEMENT_3D('',#1347,#1094,#1095);
#896=AXIS2_PLACEMENT_3D('',#1351,#1098,#1099);
#897=AXIS2_PLACEMENT_3D('',#1355,#1101,#1102);
#898=AXIS2_PLACEMENT_3D('',#1359,#1104,#1105);
#899=AXIS2_PLACEMENT_3D('',#1363,#1107,#1108);
#900=AXIS2_PLACEMENT_3D('',#1367,#1110,#1111);
#901=AXIS2_PLACEMENT_3D('',#1371,#1113,#1114);
#902=AXIS2_PLACEMENT_3D('',#1375,#1116,#1117);
#903=AXIS2_PLACEMENT_3D('',#1378,#1119,#1120);
#904=AXIS2_PLACEMENT_3D('',#1380,#1122,#1123);
#905=AXIS2_PLACEMENT_3D('',#1383,#1126,#1127);
#906=AXIS2_PLACEMENT_3D('',#1385,#1129,#1130);
#907=AXIS2_PLACEMENT_3D('',#1387,#1132,#1133);
#908=AXIS2_PLACEMENT_3D('',#1390,#1136,#1137);
#909=AXIS2_PLACEMENT_3D('',#1391,#1138,#1139);
#910=AXIS2_PLACEMENT_3D('',#1394,#1142,#1143);
#911=AXIS2_PLACEMENT_3D('',#1396,#1145,#1146);
#912=AXIS2_PLACEMENT_3D('',#1399,#1149,#1150);
#913=AXIS2_PLACEMENT_3D('',#1400,#1151,#1152);
#914=AXIS2_PLACEMENT_3D('',#1402,#1154,#1155);
#915=AXIS2_PLACEMENT_3D('',#1404,#1157,#1158);
#916=AXIS2_PLACEMENT_3D('',#1405,#1159,#1160);
#917=AXIS2_PLACEMENT_3D('',#1406,#1161,#1162);
#918=AXIS2_PLACEMENT_3D('',#1407,#1163,#1164);
#919=DIRECTION('axis',(0.,0.,1.));
#920=DIRECTION('refdir',(1.,0.,0.));
#921=DIRECTION('center_axis',(-6.86620622123039E-60,-1.86759745763001E-90,
-1.));
#922=DIRECTION('ref_axis',(0.707106781186548,-0.707106781186548,-4.85514098005727E-60));
#923=DIRECTION('center_axis',(6.86620622123039E-60,1.86759745763001E-90,
1.));
#924=DIRECTION('ref_axis',(0.707106781186548,-0.707106781186548,-4.85514098005727E-60));
#925=DIRECTION('',(6.86620622123039E-60,1.86759745763001E-90,1.));
#926=DIRECTION('center_axis',(-6.86620622123039E-60,-1.86759745763001E-90,
-1.));
#927=DIRECTION('ref_axis',(0.707106781186548,-0.707106781186548,-4.85514098005727E-60));
#928=DIRECTION('',(-6.86620622123039E-60,-1.86759745763001E-90,-1.));
#929=DIRECTION('center_axis',(-1.,-5.43996902352094E-31,6.86620622123039E-60));
#930=DIRECTION('ref_axis',(5.43996902352094E-31,-1.,-1.86759745763001E-90));
#931=DIRECTION('',(-5.43996902352094E-31,1.,1.86759745763001E-90));
#932=DIRECTION('',(6.86620622123039E-60,1.86759745763001E-90,1.));
#933=DIRECTION('',(5.43996902352094E-31,-1.,-1.86759745763001E-90));
#934=DIRECTION('center_axis',(-6.86620622123039E-60,-1.86759745763001E-90,
-1.));
#935=DIRECTION('ref_axis',(-0.707106781186548,0.707106781186548,4.85514098005727E-60));
#936=DIRECTION('center_axis',(6.86620622123039E-60,1.86759745763001E-90,
1.));
#937=DIRECTION('ref_axis',(-0.707106781186548,0.707106781186548,4.85514098005727E-60));
#938=DIRECTION('',(-6.86620622123039E-60,-1.86759745763001E-90,-1.));
#939=DIRECTION('center_axis',(-6.86620622123039E-60,-1.86759745763001E-90,
-1.));
#940=DIRECTION('ref_axis',(-0.707106781186548,0.707106781186548,4.85514098005727E-60));
#941=DIRECTION('center_axis',(-6.86620622123039E-60,-1.86759745763001E-90,
-1.));
#942=DIRECTION('ref_axis',(0.707106781186548,-0.707106781186548,-4.85514098005727E-60));
#943=DIRECTION('center_axis',(6.86620622123039E-60,1.86759745763001E-90,
1.));
#944=DIRECTION('ref_axis',(0.707106781186548,-0.707106781186548,-4.85514098005727E-60));
#945=DIRECTION('',(6.86620622123039E-60,1.86759745763001E-90,1.));
#946=DIRECTION('center_axis',(-6.86620622123039E-60,-1.86759745763001E-90,
-1.));
#947=DIRECTION('ref_axis',(0.707106781186548,-0.707106781186548,-4.85514098005727E-60));
#948=DIRECTION('',(-6.86620622123039E-60,-1.86759745763001E-90,-1.));
#949=DIRECTION('center_axis',(-1.,-5.43996902352094E-31,6.86620622123039E-60));
#950=DIRECTION('ref_axis',(5.43996902352094E-31,-1.,-1.86759745763001E-90));
#951=DIRECTION('',(5.43996902352094E-31,-1.,-1.86759745763001E-90));
#952=DIRECTION('',(6.86620622123039E-60,1.86759745763001E-90,1.));
#953=DIRECTION('',(5.43996902352094E-31,-1.,-1.86759745763001E-90));
#954=DIRECTION('center_axis',(-6.86620622123039E-60,-1.86759745763001E-90,
-1.));
#955=DIRECTION('ref_axis',(0.707106781186548,0.707106781186548,-4.85514098005727E-60));
#956=DIRECTION('center_axis',(6.86620622123039E-60,1.86759745763001E-90,
1.));
#957=DIRECTION('ref_axis',(0.707106781186548,0.707106781186548,-4.85514098005727E-60));
#958=DIRECTION('',(6.86620622123039E-60,1.86759745763001E-90,1.));
#959=DIRECTION('center_axis',(-6.86620622123039E-60,-1.86759745763001E-90,
-1.));
#960=DIRECTION('ref_axis',(0.707106781186548,0.707106781186548,-4.85514098005727E-60));
#961=DIRECTION('',(-6.86620622123039E-60,-1.86759745763001E-90,-1.));
#962=DIRECTION('center_axis',(5.43996902352094E-31,-1.,-1.86759745763001E-90));
#963=DIRECTION('ref_axis',(1.,5.43996902352094E-31,-6.86620622123039E-60));
#964=DIRECTION('',(1.,5.43996902352094E-31,-6.86620622123039E-60));
#965=DIRECTION('',(6.86620622123039E-60,1.86759745763001E-90,1.));
#966=DIRECTION('',(1.,5.43996902352094E-31,-6.86620622123039E-60));
#967=DIRECTION('center_axis',(-6.86620622123039E-60,-1.86759745763001E-90,
-1.));
#968=DIRECTION('ref_axis',(-0.707106781186548,-0.707106781186548,4.85514098005727E-60));
#969=DIRECTION('center_axis',(6.86620622123039E-60,1.86759745763001E-90,
1.));
#970=DIRECTION('ref_axis',(-0.707106781186548,-0.707106781186548,4.85514098005727E-60));
#971=DIRECTION('',(-6.86620622123039E-60,-1.86759745763001E-90,-1.));
#972=DIRECTION('center_axis',(-6.86620622123039E-60,-1.86759745763001E-90,
-1.));
#973=DIRECTION('ref_axis',(-0.707106781186548,-0.707106781186548,4.85514098005727E-60));
#974=DIRECTION('center_axis',(-6.86620622123039E-60,-1.86759745763001E-90,
-1.));
#975=DIRECTION('ref_axis',(0.707106781186548,0.707106781186548,-4.85514098005727E-60));
#976=DIRECTION('center_axis',(6.86620622123039E-60,1.86759745763001E-90,
1.));
#977=DIRECTION('ref_axis',(0.707106781186548,0.707106781186548,-4.85514098005727E-60));
#978=DIRECTION('',(6.86620622123039E-60,1.86759745763001E-90,1.));
#979=DIRECTION('center_axis',(-6.86620622123039E-60,-1.86759745763001E-90,
-1.));
#980=DIRECTION('ref_axis',(0.707106781186548,0.707106781186548,-4.85514098005727E-60));
#981=DIRECTION('',(-6.86620622123039E-60,-1.86759745763001E-90,-1.));
#982=DIRECTION('center_axis',(-6.86620622123039E-60,-1.86759745763001E-90,
-1.));
#983=DIRECTION('ref_axis',(-0.707106781186551,0.707106781186544,4.85514098005729E-60));
#984=DIRECTION('center_axis',(6.86620622123039E-60,1.86759745763001E-90,
1.));
#985=DIRECTION('ref_axis',(-0.707106781186551,0.707106781186544,4.85514098005729E-60));
#986=DIRECTION('',(-6.86620622123039E-60,-1.86759745763001E-90,-1.));
#987=DIRECTION('center_axis',(-6.86620622123039E-60,-1.86759745763001E-90,
-1.));
#988=DIRECTION('ref_axis',(-0.707106781186551,0.707106781186544,4.85514098005729E-60));
#989=DIRECTION('',(6.86620622123039E-60,1.86759745763001E-90,1.));
#990=DIRECTION('center_axis',(1.,5.43996902352094E-31,-6.86620622123039E-60));
#991=DIRECTION('ref_axis',(-5.43996902352094E-31,1.,1.86759745763001E-90));
#992=DIRECTION('',(5.43996902352094E-31,-1.,-1.86759745763001E-90));
#993=DIRECTION('',(-6.86620622123039E-60,-1.86759745763001E-90,-1.));
#994=DIRECTION('',(-5.43996902352094E-31,1.,1.86759745763001E-90));
#995=DIRECTION('center_axis',(-6.86620622123039E-60,-1.86759745763001E-90,
-1.));
#996=DIRECTION('ref_axis',(0.70710678118655,-0.707106781186545,-4.85514098005729E-60));
#997=DIRECTION('center_axis',(6.86620622123039E-60,1.86759745763001E-90,
1.));
#998=DIRECTION('ref_axis',(0.70710678118655,-0.707106781186545,-4.85514098005729E-60));
#999=DIRECTION('',(6.86620622123039E-60,1.86759745763001E-90,1.));
#1000=DIRECTION('center_axis',(-6.86620622123039E-60,-1.86759745763001E-90,
-1.));
#1001=DIRECTION('ref_axis',(0.70710678118655,-0.707106781186545,-4.85514098005729E-60));
#1002=DIRECTION('',(-6.86620622123039E-60,-1.86759745763001E-90,-1.));
#1003=DIRECTION('center_axis',(5.43996902352094E-31,-1.,-1.86759745763001E-90));
#1004=DIRECTION('ref_axis',(1.,5.43996902352094E-31,-6.86620622123039E-60));
#1005=DIRECTION('',(1.,5.43996902352094E-31,-6.86620622123039E-60));
#1006=DIRECTION('',(-1.,-5.43996902352094E-31,6.86620622123039E-60));
#1007=DIRECTION('center_axis',(6.86620622123039E-60,1.86759745763001E-90,
1.));
#1008=DIRECTION('ref_axis',(0.70710678118655,0.707106781186545,-4.85514098005729E-60));
#1009=DIRECTION('center_axis',(-6.86620622123039E-60,-1.86759745763001E-90,
-1.));
#1010=DIRECTION('ref_axis',(0.70710678118655,0.707106781186545,-4.85514098005729E-60));
#1011=DIRECTION('',(-6.86620622123039E-60,-1.86759745763001E-90,-1.));
#1012=DIRECTION('center_axis',(6.86620622123039E-60,1.86759745763001E-90,
1.));
#1013=DIRECTION('ref_axis',(0.70710678118655,0.707106781186545,-4.85514098005729E-60));
#1014=DIRECTION('center_axis',(-5.43996902352094E-31,1.,1.86759745763001E-90));
#1015=DIRECTION('ref_axis',(-1.,-5.43996902352094E-31,-5.17183811446882E-14));
#1016=DIRECTION('',(-1.,-5.43996902352094E-31,6.86620622123039E-60));
#1017=DIRECTION('',(6.86620622123039E-60,1.86759745763001E-90,1.));
#1018=DIRECTION('',(1.,5.43996902352094E-31,-6.86620622123039E-60));
#1019=DIRECTION('center_axis',(-6.86620622123039E-60,-1.86759745763001E-90,
-1.));
#1020=DIRECTION('ref_axis',(-0.707106781186551,-0.707106781186544,4.85514098005729E-60));
#1021=DIRECTION('center_axis',(6.86620622123039E-60,1.86759745763001E-90,
1.));
#1022=DIRECTION('ref_axis',(-0.707106781186551,-0.707106781186544,4.85514098005729E-60));
#1023=DIRECTION('center_axis',(-6.86620622123039E-60,-1.86759745763001E-90,
-1.));
#1024=DIRECTION('ref_axis',(-0.707106781186551,-0.707106781186544,4.85514098005729E-60));
#1025=DIRECTION('center_axis',(-5.43996902352094E-31,1.,1.86759745763001E-90));
#1026=DIRECTION('ref_axis',(-1.,-5.43996902352094E-31,6.86620622123039E-60));
#1027=DIRECTION('',(1.,5.43996902352094E-31,-6.86620622123039E-60));
#1028=DIRECTION('',(-1.,-5.43996902352094E-31,6.86620622123039E-60));
#1029=DIRECTION('center_axis',(-1.,-5.43996902352094E-31,6.86620622123039E-60));
#1030=DIRECTION('ref_axis',(5.43996902352094E-31,-1.,-1.86759745763001E-90));
#1031=DIRECTION('',(5.43996902352094E-31,-1.,-1.86759745763001E-90));
#1032=DIRECTION('',(5.43996902352094E-31,-1.,-1.86759745763001E-90));
#1033=DIRECTION('center_axis',(-1.,-5.43996902352094E-31,6.86620622123039E-60));
#1034=DIRECTION('ref_axis',(5.43996902352094E-31,-1.,-1.86759745763001E-90));
#1035=DIRECTION('',(5.43996902352094E-31,-1.,-1.86759745763001E-90));
#1036=DIRECTION('',(5.43996902352094E-31,-1.,-1.86759745763001E-90));
#1037=DIRECTION('center_axis',(0.,0.,1.));
#1038=DIRECTION('ref_axis',(1.,0.,0.));
#1039=DIRECTION('',(1.,0.,0.));
#1040=DIRECTION('center_axis',(0.,0.,1.));
#1041=DIRECTION('ref_axis',(-0.707106781186548,-0.707106781186548,0.));
#1042=DIRECTION('',(0.,1.,0.));
#1043=DIRECTION('center_axis',(0.,0.,-1.));
#1044=DIRECTION('ref_axis',(0.707106781186548,0.707106781186548,0.));
#1045=DIRECTION('',(-1.,0.,0.));
#1046=DIRECTION('center_axis',(0.,0.,1.));
#1047=DIRECTION('ref_axis',(-0.707106781186548,-0.707106781186548,0.));
#1048=DIRECTION('',(0.,-1.,0.));
#1049=DIRECTION('center_axis',(0.,0.,1.));
#1050=DIRECTION('ref_axis',(-0.70710678118655,0.707106781186545,0.));
#1051=DIRECTION('',(1.,0.,0.));
#1052=DIRECTION('center_axis',(0.,0.,-1.));
#1053=DIRECTION('ref_axis',(0.707106781186551,-0.707106781186544,0.));
#1054=DIRECTION('',(0.,1.,0.));
#1055=DIRECTION('center_axis',(0.,0.,-1.));
#1056=DIRECTION('ref_axis',(0.707106781186551,0.707106781186544,0.));
#1057=DIRECTION('',(-1.,0.,0.));
#1058=DIRECTION('center_axis',(0.,0.,1.));
#1059=DIRECTION('ref_axis',(-0.70710678118655,-0.707106781186545,0.));
#1060=DIRECTION('',(0.,-1.,0.));
#1061=DIRECTION('center_axis',(0.,0.,1.));
#1062=DIRECTION('ref_axis',(-0.707106781186548,0.707106781186548,0.));
#1063=DIRECTION('',(-1.,0.,0.));
#1064=DIRECTION('center_axis',(0.,0.,-1.));
#1065=DIRECTION('ref_axis',(0.707106781186548,-0.707106781186548,0.));
#1066=DIRECTION('',(0.,-1.,0.));
#1067=DIRECTION('center_axis',(0.,0.,1.));
#1068=DIRECTION('ref_axis',(-0.707106781186548,0.707106781186548,0.));
#1069=DIRECTION('',(1.,5.43996902352094E-31,-6.86620622123039E-60));
#1070=DIRECTION('center_axis',(0.,-1.,0.));
#1071=DIRECTION('ref_axis',(1.,0.,0.));
#1072=DIRECTION('',(1.,0.,0.));
#1073=DIRECTION('',(0.,0.,1.));
#1074=DIRECTION('center_axis',(0.,0.,1.));
#1075=DIRECTION('ref_axis',(-0.707106781186548,-0.707106781186548,0.));
#1076=DIRECTION('center_axis',(0.,0.,-1.));
#1077=DIRECTION('ref_axis',(-0.707106781186548,-0.707106781186548,0.));
#1078=DIRECTION('',(0.,0.,-1.));
#1079=DIRECTION('center_axis',(-1.,0.,0.));
#1080=DIRECTION('ref_axis',(0.,-1.,0.));
#1081=DIRECTION('',(0.,-1.,0.));
#1082=DIRECTION('',(0.,0.,1.));
#1083=DIRECTION('center_axis',(0.,0.,1.));
#1084=DIRECTION('ref_axis',(0.707106781186548,0.707106781186548,0.));
#1085=DIRECTION('center_axis',(0.,0.,1.));
#1086=DIRECTION('ref_axis',(0.707106781186548,0.707106781186548,0.));
#1087=DIRECTION('',(0.,0.,-1.));
#1088=DIRECTION('center_axis',(0.,0.,1.));
#1089=DIRECTION('ref_axis',(-0.707106781186548,-0.707106781186548,0.));
#1090=DIRECTION('center_axis',(0.,0.,-1.));
#1091=DIRECTION('ref_axis',(-0.707106781186548,-0.707106781186548,0.));
#1092=DIRECTION('',(0.,0.,-1.));
#1093=DIRECTION('',(0.,0.,1.));
#1094=DIRECTION('center_axis',(-1.,0.,0.));
#1095=DIRECTION('ref_axis',(0.,-1.,0.));
#1096=DIRECTION('',(0.,-1.,0.));
#1097=DIRECTION('',(0.,0.,1.));
#1098=DIRECTION('center_axis',(0.,0.,1.));
#1099=DIRECTION('ref_axis',(1.,0.,0.));
#1100=DIRECTION('',(-1.,0.,0.));
#1101=DIRECTION('center_axis',(0.,0.,-1.));
#1102=DIRECTION('ref_axis',(-0.707106781186548,0.707106781186548,0.));
#1103=DIRECTION('',(0.,-1.,0.));
#1104=DIRECTION('center_axis',(0.,0.,1.));
#1105=DIRECTION('ref_axis',(0.707106781186548,-0.707106781186548,0.));
#1106=DIRECTION('',(-1.,0.,0.));
#1107=DIRECTION('center_axis',(0.,0.,-1.));
#1108=DIRECTION('ref_axis',(-0.707106781186548,0.707106781186548,0.));
#1109=DIRECTION('',(0.,-1.,0.));
#1110=DIRECTION('center_axis',(0.,0.,-1.));
#1111=DIRECTION('ref_axis',(-0.70710678118655,-0.707106781186545,0.));
#1112=DIRECTION('',(1.,0.,0.));
#1113=DIRECTION('center_axis',(0.,0.,1.));
#1114=DIRECTION('ref_axis',(0.707106781186551,0.707106781186544,0.));
#1115=DIRECTION('',(0.,-1.,0.));
#1116=DIRECTION('center_axis',(0.,0.,1.));
#1117=DIRECTION('ref_axis',(0.707106781186551,-0.707106781186544,0.));
#1118=DIRECTION('',(-1.,0.,0.));
#1119=DIRECTION('center_axis',(0.,0.,-1.));
#1120=DIRECTION('ref_axis',(-0.70710678118655,0.707106781186545,0.));
#1121=DIRECTION('',(1.,0.,0.));
#1122=DIRECTION('center_axis',(0.,0.,1.));
#1123=DIRECTION('ref_axis',(-0.707106781186548,0.707106781186548,0.));
#1124=DIRECTION('',(0.,0.,-1.));
#1125=DIRECTION('',(0.,0.,1.));
#1126=DIRECTION('center_axis',(0.,1.,0.));
#1127=DIRECTION('ref_axis',(-1.,0.,0.));
#1128=DIRECTION('',(0.,0.,1.));
#1129=DIRECTION('center_axis',(0.,0.,1.));
#1130=DIRECTION('ref_axis',(0.707106781186548,-0.707106781186548,0.));
#1131=DIRECTION('',(0.,0.,-1.));
#1132=DIRECTION('center_axis',(0.,0.,1.));
#1133=DIRECTION('ref_axis',(-0.707106781186548,0.707106781186548,0.));
#1134=DIRECTION('',(0.,0.,-1.));
#1135=DIRECTION('',(0.,0.,1.));
#1136=DIRECTION('center_axis',(0.,1.,0.));
#1137=DIRECTION('ref_axis',(-1.,0.,0.));
#1138=DIRECTION('center_axis',(0.,0.,1.));
#1139=DIRECTION('ref_axis',(0.707106781186551,0.707106781186544,0.));
#1140=DIRECTION('',(0.,0.,1.));
#1141=DIRECTION('',(0.,0.,-1.));
#1142=DIRECTION('center_axis',(1.,0.,0.));
#1143=DIRECTION('ref_axis',(0.,1.,0.));
#1144=DIRECTION('',(0.,0.,-1.));
#1145=DIRECTION('center_axis',(0.,0.,1.));
#1146=DIRECTION('ref_axis',(-0.70710678118655,-0.707106781186545,0.));
#1147=DIRECTION('',(0.,0.,-1.));
#1148=DIRECTION('',(0.,0.,1.));
#1149=DIRECTION('center_axis',(0.,1.,0.));
#1150=DIRECTION('ref_axis',(-1.,0.,0.));
#1151=DIRECTION('center_axis',(0.,0.,-1.));
#1152=DIRECTION('ref_axis',(-0.70710678118655,0.707106781186545,0.));
#1153=DIRECTION('',(0.,0.,-1.));
#1154=DIRECTION('center_axis',(0.,-1.,0.));
#1155=DIRECTION('ref_axis',(1.,0.,-5.17183811446882E-14));
#1156=DIRECTION('',(0.,0.,1.));
#1157=DIRECTION('center_axis',(0.,0.,1.));
#1158=DIRECTION('ref_axis',(0.707106781186551,-0.707106781186544,0.));
#1159=DIRECTION('center_axis',(0.,-1.,0.));
#1160=DIRECTION('ref_axis',(1.,0.,0.));
#1161=DIRECTION('center_axis',(-1.,0.,0.));
#1162=DIRECTION('ref_axis',(0.,-1.,0.));
#1163=DIRECTION('center_axis',(-1.,0.,0.));
#1164=DIRECTION('ref_axis',(0.,-1.,0.));
#1165=CARTESIAN_POINT('',(0.,0.,0.));
#1166=CARTESIAN_POINT('Origin',(157.,-199.,-225.));
#1167=CARTESIAN_POINT('',(157.,-204.,-222.));
#1168=CARTESIAN_POINT('',(162.,-199.,-222.));
#1169=CARTESIAN_POINT('Origin',(157.,-199.,-222.));
#1170=CARTESIAN_POINT('',(157.,-204.,-225.));
#1171=CARTESIAN_POINT('',(157.,-204.,-225.));
#1172=CARTESIAN_POINT('',(162.,-199.,-225.));
#1173=CARTESIAN_POINT('Origin',(157.,-199.,-225.));
#1174=CARTESIAN_POINT('',(162.,-199.,-225.));
#1175=CARTESIAN_POINT('Origin',(162.,-184.5,-225.));
#1176=CARTESIAN_POINT('',(162.,-189.5,-225.));
#1177=CARTESIAN_POINT('',(162.,-204.,-225.));
#1178=CARTESIAN_POINT('',(162.,-189.5,-222.));
#1179=CARTESIAN_POINT('',(162.,-189.5,-225.));
#1180=CARTESIAN_POINT('',(162.,-204.,-222.));
#1181=CARTESIAN_POINT('Origin',(167.,-189.5,-225.));
#1182=CARTESIAN_POINT('',(167.,-184.5,-225.));
#1183=CARTESIAN_POINT('Origin',(167.,-189.5,-225.));
#1184=CARTESIAN_POINT('',(167.,-184.5,-222.));
#1185=CARTESIAN_POINT('',(167.,-184.5,-225.));
#1186=CARTESIAN_POINT('Origin',(167.,-189.5,-222.));
#1187=CARTESIAN_POINT('Origin',(199.,-179.5,-225.));
#1188=CARTESIAN_POINT('',(199.,-184.5,-222.));
#1189=CARTESIAN_POINT('',(204.,-179.5,-222.));
#1190=CARTESIAN_POINT('Origin',(199.,-179.5,-222.));
#1191=CARTESIAN_POINT('',(199.,-184.5,-225.));
#1192=CARTESIAN_POINT('',(199.,-184.5,-225.));
#1193=CARTESIAN_POINT('',(204.,-179.5,-225.));
#1194=CARTESIAN_POINT('Origin',(199.,-179.5,-225.));
#1195=CARTESIAN_POINT('',(204.,-179.5,-225.));
#1196=CARTESIAN_POINT('Origin',(204.,184.5,-225.));
#1197=CARTESIAN_POINT('',(204.,-12.5,-225.));
#1198=CARTESIAN_POINT('',(204.,184.5,-225.));
#1199=CARTESIAN_POINT('',(204.,-12.5,-222.));
#1200=CARTESIAN_POINT('',(204.,-12.5,-231.5));
#1201=CARTESIAN_POINT('',(204.,184.5,-222.));
#1202=CARTESIAN_POINT('Origin',(199.,179.5,-225.));
#1203=CARTESIAN_POINT('',(204.,179.5,-222.));
#1204=CARTESIAN_POINT('',(199.,184.5,-222.));
#1205=CARTESIAN_POINT('Origin',(199.,179.5,-222.));
#1206=CARTESIAN_POINT('',(204.,179.5,-225.));
#1207=CARTESIAN_POINT('',(204.,179.5,-225.));
#1208=CARTESIAN_POINT('',(199.,184.5,-225.));
#1209=CARTESIAN_POINT('Origin',(199.,179.5,-225.));
#1210=CARTESIAN_POINT('',(199.,184.5,-225.));
#1211=CARTESIAN_POINT('Origin',(162.,184.5,-225.));
#1212=CARTESIAN_POINT('',(167.,184.5,-225.));
#1213=CARTESIAN_POINT('',(162.,184.5,-225.));
#1214=CARTESIAN_POINT('',(167.,184.5,-222.));
#1215=CARTESIAN_POINT('',(167.,184.5,-225.));
#1216=CARTESIAN_POINT('',(162.,184.5,-222.));
#1217=CARTESIAN_POINT('Origin',(167.,189.5,-225.));
#1218=CARTESIAN_POINT('',(162.,189.5,-225.));
#1219=CARTESIAN_POINT('Origin',(167.,189.5,-225.));
#1220=CARTESIAN_POINT('',(162.,189.5,-222.));
#1221=CARTESIAN_POINT('',(162.,189.5,-225.));
#1222=CARTESIAN_POINT('Origin',(167.,189.5,-222.));
#1223=CARTESIAN_POINT('Origin',(157.,199.,-225.));
#1224=CARTESIAN_POINT('',(162.,199.,-222.));
#1225=CARTESIAN_POINT('',(157.,204.,-222.));
#1226=CARTESIAN_POINT('Origin',(157.,199.,-222.));
#1227=CARTESIAN_POINT('',(162.,199.,-225.));
#1228=CARTESIAN_POINT('',(162.,199.,-225.));
#1229=CARTESIAN_POINT('',(157.,204.,-225.));
#1230=CARTESIAN_POINT('Origin',(157.,199.,-225.));
#1231=CARTESIAN_POINT('',(157.,204.,-225.));
#1232=CARTESIAN_POINT('Origin',(186.5,7.50000000000002,-238.000000000001));
#1233=CARTESIAN_POINT('',(186.5,10.,-225.));
#1234=CARTESIAN_POINT('',(184.,7.50000000000002,-225.));
#1235=CARTESIAN_POINT('Origin',(186.5,7.50000000000002,-225.));
#1236=CARTESIAN_POINT('',(186.5,10.,-222.));
#1237=CARTESIAN_POINT('',(186.5,10.,-238.000000000001));
#1238=CARTESIAN_POINT('',(184.,7.50000000000002,-222.));
#1239=CARTESIAN_POINT('Origin',(186.5,7.50000000000002,-222.));
#1240=CARTESIAN_POINT('',(184.,7.50000000000002,-238.000000000001));
#1241=CARTESIAN_POINT('Origin',(184.,-10.,-238.000000000001));
#1242=CARTESIAN_POINT('',(184.,-7.50000000000002,-222.));
#1243=CARTESIAN_POINT('',(184.,-5.,-222.));
#1244=CARTESIAN_POINT('',(184.,-7.50000000000002,-225.));
#1245=CARTESIAN_POINT('',(184.,-7.50000000000002,-238.000000000001));
#1246=CARTESIAN_POINT('',(184.,-5.,-225.));
#1247=CARTESIAN_POINT('Origin',(201.5,12.5,-231.500000000001));
#1248=CARTESIAN_POINT('',(201.5,10.,-222.));
#1249=CARTESIAN_POINT('',(204.,12.5,-222.));
#1250=CARTESIAN_POINT('Origin',(201.5,12.5,-222.));
#1251=CARTESIAN_POINT('',(201.5,10.,-225.));
#1252=CARTESIAN_POINT('',(201.5,10.,-231.500000000001));
#1253=CARTESIAN_POINT('',(204.,12.5,-225.));
#1254=CARTESIAN_POINT('Origin',(201.5,12.5,-225.));
#1255=CARTESIAN_POINT('',(204.,12.5,-231.500000000001));
#1256=CARTESIAN_POINT('Origin',(184.,10.,-238.000000000001));
#1257=CARTESIAN_POINT('',(92.,10.,-225.));
#1258=CARTESIAN_POINT('',(92.,10.,-222.));
#1259=CARTESIAN_POINT('Origin',(201.5,-12.5,-231.5));
#1260=CARTESIAN_POINT('',(201.5,-10.,-225.));
#1261=CARTESIAN_POINT('Origin',(201.5,-12.5,-225.));
#1262=CARTESIAN_POINT('',(201.5,-10.,-222.));
#1263=CARTESIAN_POINT('',(201.5,-10.,-231.5));
#1264=CARTESIAN_POINT('Origin',(201.5,-12.5,-222.));
#1265=CARTESIAN_POINT('Origin',(204.,-10.,-238.));
#1266=CARTESIAN_POINT('',(186.5,-10.,-225.));
#1267=CARTESIAN_POINT('',(102.,-10.,-225.));
#1268=CARTESIAN_POINT('',(186.5,-10.,-222.));
#1269=CARTESIAN_POINT('',(186.5,-10.,-238.000000000001));
#1270=CARTESIAN_POINT('',(102.,-10.,-222.));
#1271=CARTESIAN_POINT('Origin',(186.5,-7.50000000000002,-238.000000000001));
#1272=CARTESIAN_POINT('Origin',(186.5,-7.50000000000002,-225.));
#1273=CARTESIAN_POINT('Origin',(186.5,-7.50000000000002,-222.));
#1274=CARTESIAN_POINT('Origin',(204.,-184.5,-225.));
#1275=CARTESIAN_POINT('',(162.,-184.5,-225.));
#1276=CARTESIAN_POINT('',(162.,-184.5,-222.));
#1277=CARTESIAN_POINT('Origin',(204.,184.5,-225.));
#1278=CARTESIAN_POINT('',(204.,184.5,-222.));
#1279=CARTESIAN_POINT('',(204.,184.5,-225.));
#1280=CARTESIAN_POINT('Origin',(162.,204.,-225.));
#1281=CARTESIAN_POINT('',(162.,204.,-225.));
#1282=CARTESIAN_POINT('',(162.,204.,-222.));
#1283=CARTESIAN_POINT('Origin',(0.,0.,-225.));
#1284=CARTESIAN_POINT('',(-157.,-204.,-225.));
#1285=CARTESIAN_POINT('',(-162.,-204.,-225.));
#1286=CARTESIAN_POINT('',(-162.,-199.,-225.));
#1287=CARTESIAN_POINT('Origin',(-157.,-199.,-225.));
#1288=CARTESIAN_POINT('',(-162.,-189.5,-225.));
#1289=CARTESIAN_POINT('',(-162.,-204.,-225.));
#1290=CARTESIAN_POINT('',(-167.,-184.5,-225.));
#1291=CARTESIAN_POINT('Origin',(-167.,-189.5,-225.));
#1292=CARTESIAN_POINT('',(-199.,-184.5,-225.));
#1293=CARTESIAN_POINT('',(-162.,-184.5,-225.));
#1294=CARTESIAN_POINT('',(-204.,-179.5,-225.));
#1295=CARTESIAN_POINT('Origin',(-199.,-179.5,-225.));
#1296=CARTESIAN_POINT('',(-204.,-12.5,-225.));
#1297=CARTESIAN_POINT('',(-204.,184.5,-225.));
#1298=CARTESIAN_POINT('',(-201.5,-10.,-225.));
#1299=CARTESIAN_POINT('Origin',(-201.5,-12.5,-225.));
#1300=CARTESIAN_POINT('',(-186.5,-10.,-225.));
#1301=CARTESIAN_POINT('',(-102.,-10.,-225.));
#1302=CARTESIAN_POINT('',(-184.,-7.50000000000002,-225.));
#1303=CARTESIAN_POINT('Origin',(-186.5,-7.50000000000002,-225.));
#1304=CARTESIAN_POINT('',(-184.,7.50000000000002,-225.));
#1305=CARTESIAN_POINT('',(-184.,-5.,-225.));
#1306=CARTESIAN_POINT('',(-186.5,10.,-225.));
#1307=CARTESIAN_POINT('Origin',(-186.5,7.50000000000002,-225.));
#1308=CARTESIAN_POINT('',(-201.5,10.,-225.));
#1309=CARTESIAN_POINT('',(-92.,10.,-225.));
#1310=CARTESIAN_POINT('',(-204.,12.5,-225.));
#1311=CARTESIAN_POINT('Origin',(-201.5,12.5,-225.));
#1312=CARTESIAN_POINT('',(-204.,179.5,-225.));
#1313=CARTESIAN_POINT('',(-204.,184.5,-225.));
#1314=CARTESIAN_POINT('',(-199.,184.5,-225.));
#1315=CARTESIAN_POINT('Origin',(-199.,179.5,-225.));
#1316=CARTESIAN_POINT('',(-167.,184.5,-225.));
#1317=CARTESIAN_POINT('',(-162.,184.5,-225.));
#1318=CARTESIAN_POINT('',(-162.,189.5,-225.));
#1319=CARTESIAN_POINT('Origin',(-167.,189.5,-225.));
#1320=CARTESIAN_POINT('',(-162.,199.,-225.));
#1321=CARTESIAN_POINT('',(-162.,204.,-225.));
#1322=CARTESIAN_POINT('',(-157.,204.,-225.));
#1323=CARTESIAN_POINT('Origin',(-157.,199.,-225.));
#1324=CARTESIAN_POINT('',(-162.,204.,-225.));
#1325=CARTESIAN_POINT('Origin',(-162.,-204.,-225.));
#1326=CARTESIAN_POINT('',(-157.,-204.,-222.));
#1327=CARTESIAN_POINT('',(-162.,-204.,-222.));
#1328=CARTESIAN_POINT('',(-157.,-204.,-225.));
#1329=CARTESIAN_POINT('Origin',(-157.,-199.,-225.));
#1330=CARTESIAN_POINT('',(-162.,-199.,-222.));
#1331=CARTESIAN_POINT('Origin',(-157.,-199.,-222.));
#1332=CARTESIAN_POINT('',(-162.,-199.,-225.));
#1333=CARTESIAN_POINT('Origin',(-162.,-184.5,-225.));
#1334=CARTESIAN_POINT('',(-162.,-189.5,-222.));
#1335=CARTESIAN_POINT('',(-162.,-204.,-222.));
#1336=CARTESIAN_POINT('',(-162.,-189.5,-225.));
#1337=CARTESIAN_POINT('Origin',(-167.,-189.5,-225.));
#1338=CARTESIAN_POINT('',(-167.,-184.5,-222.));
#1339=CARTESIAN_POINT('Origin',(-167.,-189.5,-222.));
#1340=CARTESIAN_POINT('',(-167.,-184.5,-225.));
#1341=CARTESIAN_POINT('Origin',(-199.,-179.5,-225.));
#1342=CARTESIAN_POINT('',(-199.,-184.5,-222.));
#1343=CARTESIAN_POINT('',(-204.,-179.5,-222.));
#1344=CARTESIAN_POINT('Origin',(-199.,-179.5,-222.));
#1345=CARTESIAN_POINT('',(-204.,-179.5,-225.));
#1346=CARTESIAN_POINT('',(-199.,-184.5,-225.));
#1347=CARTESIAN_POINT('Origin',(-204.,184.5,-225.));
#1348=CARTESIAN_POINT('',(-204.,-12.5,-222.));
#1349=CARTESIAN_POINT('',(-204.,184.5,-222.));
#1350=CARTESIAN_POINT('',(-204.,-12.5,-231.5));
#1351=CARTESIAN_POINT('Origin',(0.,0.,-222.));
#1352=CARTESIAN_POINT('',(-157.,204.,-222.));
#1353=CARTESIAN_POINT('',(162.,204.,-222.));
#1354=CARTESIAN_POINT('',(-162.,199.,-222.));
#1355=CARTESIAN_POINT('Origin',(-157.,199.,-222.));
#1356=CARTESIAN_POINT('',(-162.,189.5,-222.));
#1357=CARTESIAN_POINT('',(-162.,204.,-222.));
#1358=CARTESIAN_POINT('',(-167.,184.5,-222.));
#1359=CARTESIAN_POINT('Origin',(-167.,189.5,-222.));
#1360=CARTESIAN_POINT('',(-199.,184.5,-222.));
#1361=CARTESIAN_POINT('',(-162.,184.5,-222.));
#1362=CARTESIAN_POINT('',(-204.,179.5,-222.));
#1363=CARTESIAN_POINT('Origin',(-199.,179.5,-222.));
#1364=CARTESIAN_POINT('',(-204.,12.5,-222.));
#1365=CARTESIAN_POINT('',(-204.,184.5,-222.));
#1366=CARTESIAN_POINT('',(-201.5,10.,-222.));
#1367=CARTESIAN_POINT('Origin',(-201.5,12.5,-222.));
#1368=CARTESIAN_POINT('',(-186.5,10.,-222.));
#1369=CARTESIAN_POINT('',(-92.,10.,-222.));
#1370=CARTESIAN_POINT('',(-184.,7.50000000000002,-222.));
#1371=CARTESIAN_POINT('Origin',(-186.5,7.50000000000002,-222.));
#1372=CARTESIAN_POINT('',(-184.,-7.50000000000002,-222.));
#1373=CARTESIAN_POINT('',(-184.,-5.,-222.));
#1374=CARTESIAN_POINT('',(-186.5,-10.,-222.));
#1375=CARTESIAN_POINT('Origin',(-186.5,-7.50000000000002,-222.));
#1376=CARTESIAN_POINT('',(-201.5,-10.,-222.));
#1377=CARTESIAN_POINT('',(-102.,-10.,-222.));
#1378=CARTESIAN_POINT('Origin',(-201.5,-12.5,-222.));
#1379=CARTESIAN_POINT('',(-162.,-184.5,-222.));
#1380=CARTESIAN_POINT('Origin',(-199.,179.5,-225.));
#1381=CARTESIAN_POINT('',(-199.,184.5,-225.));
#1382=CARTESIAN_POINT('',(-204.,179.5,-225.));
#1383=CARTESIAN_POINT('Origin',(-162.,184.5,-225.));
#1384=CARTESIAN_POINT('',(-167.,184.5,-225.));
#1385=CARTESIAN_POINT('Origin',(-167.,189.5,-225.));
#1386=CARTESIAN_POINT('',(-162.,189.5,-225.));
#1387=CARTESIAN_POINT('Origin',(-157.,199.,-225.));
#1388=CARTESIAN_POINT('',(-157.,204.,-225.));
#1389=CARTESIAN_POINT('',(-162.,199.,-225.));
#1390=CARTESIAN_POINT('Origin',(162.,204.,-225.));
#1391=CARTESIAN_POINT('Origin',(-186.5,7.50000000000002,-238.000000000001));
#1392=CARTESIAN_POINT('',(-184.,7.50000000000002,-238.000000000001));
#1393=CARTESIAN_POINT('',(-186.5,10.,-238.000000000001));
#1394=CARTESIAN_POINT('Origin',(-184.,-10.,-238.000000000001));
#1395=CARTESIAN_POINT('',(-184.,-7.50000000000002,-238.000000000001));
#1396=CARTESIAN_POINT('Origin',(-201.5,12.5,-231.500000000001));
#1397=CARTESIAN_POINT('',(-204.,12.5,-231.500000000001));
#1398=CARTESIAN_POINT('',(-201.5,10.,-231.500000000001));
#1399=CARTESIAN_POINT('Origin',(-184.,10.,-238.000000000001));
#1400=CARTESIAN_POINT('Origin',(-201.5,-12.5,-231.5));
#1401=CARTESIAN_POINT('',(-201.5,-10.,-231.5));
#1402=CARTESIAN_POINT('Origin',(-204.,-10.,-238.));
#1403=CARTESIAN_POINT('',(-186.5,-10.,-238.000000000001));
#1404=CARTESIAN_POINT('Origin',(-186.5,-7.50000000000002,-238.000000000001));
#1405=CARTESIAN_POINT('Origin',(-204.,-184.5,-225.));
#1406=CARTESIAN_POINT('Origin',(-204.,184.5,-225.));
#1407=CARTESIAN_POINT('Origin',(-162.,204.,-225.));
#1408=UNCERTAINTY_MEASURE_WITH_UNIT(LENGTH_MEASURE(0.01),#1412,
'DISTANCE_ACCURACY_VALUE',
'Maximum model space distance between geometric entities at asserted c
onnectivities');
#1409=UNCERTAINTY_MEASURE_WITH_UNIT(LENGTH_MEASURE(0.01),#1412,
'DISTANCE_ACCURACY_VALUE',
'Maximum model space distance between geometric entities at asserted c
onnectivities');
#1410=(
GEOMETRIC_REPRESENTATION_CONTEXT(3)
GLOBAL_UNCERTAINTY_ASSIGNED_CONTEXT((#1408))
GLOBAL_UNIT_ASSIGNED_CONTEXT((#1412,#1414,#1415))
REPRESENTATION_CONTEXT('','3D')
);
#1411=(
GEOMETRIC_REPRESENTATION_CONTEXT(3)
GLOBAL_UNCERTAINTY_ASSIGNED_CONTEXT((#1409))
GLOBAL_UNIT_ASSIGNED_CONTEXT((#1412,#1414,#1415))
REPRESENTATION_CONTEXT('','3D')
);
#1412=(
LENGTH_UNIT()
NAMED_UNIT(*)
SI_UNIT(.MILLI.,.METRE.)
);
#1413=(
LENGTH_UNIT()
NAMED_UNIT(*)
SI_UNIT($,.METRE.)
);
#1414=(
NAMED_UNIT(*)
PLANE_ANGLE_UNIT()
SI_UNIT($,.RADIAN.)
);
#1415=(
NAMED_UNIT(*)
SI_UNIT($,.STERADIAN.)
SOLID_ANGLE_UNIT()
);
#1416=SHAPE_DEFINITION_REPRESENTATION(#1417,#1418);
#1417=PRODUCT_DEFINITION_SHAPE('',$,#1420);
#1418=SHAPE_REPRESENTATION('',(#836),#1410);
#1419=PRODUCT_DEFINITION_CONTEXT('part definition',#1424,'design');
#1420=PRODUCT_DEFINITION('Panels','(Unsaved)',#1421,#1419);
#1421=PRODUCT_DEFINITION_FORMATION('',$,#1426);
#1422=PRODUCT_RELATED_PRODUCT_CATEGORY('(Unsaved)','(Unsaved)',(#1426));
#1423=APPLICATION_PROTOCOL_DEFINITION('international standard',
'automotive_design',2009,#1424);
#1424=APPLICATION_CONTEXT(
'Core Data for Automotive Mechanical Design Process');
#1425=PRODUCT_CONTEXT('part definition',#1424,'mechanical');
#1426=PRODUCT('Panels','(Unsaved)',$,(#1425));
#1427=PRESENTATION_STYLE_ASSIGNMENT((#1429));
#1428=PRESENTATION_STYLE_ASSIGNMENT((#1430));
#1429=SURFACE_STYLE_USAGE(.BOTH.,#1431);
#1430=SURFACE_STYLE_USAGE(.BOTH.,#1432);
#1431=SURFACE_SIDE_STYLE('',(#1433));
#1432=SURFACE_SIDE_STYLE('',(#1434));
#1433=SURFACE_STYLE_FILL_AREA(#1435);
#1434=SURFACE_STYLE_FILL_AREA(#1436);
#1435=FILL_AREA_STYLE('Steel - Satin',(#1437));
#1436=FILL_AREA_STYLE('Opaque(160,160,160)',(#1438));
#1437=FILL_AREA_STYLE_COLOUR('Steel - Satin',#1439);
#1438=FILL_AREA_STYLE_COLOUR('Opaque(160,160,160)',#1440);
#1439=COLOUR_RGB('Steel - Satin',0.627450980392157,0.627450980392157,0.627450980392157);
#1440=COLOUR_RGB('Opaque(160,160,160)',0.627450980392157,0.627450980392157,
0.627450980392157);
ENDSEC;
END-ISO-10303-21;
