ISO-10303-21;
HEADER;
/* Generated by software containing ST-Developer
 * from STEP Tools, Inc. (www.steptools.com) 
 */

FILE_DESCRIPTION(
/* description */ (''),
/* implementation_level */ '2;1');

FILE_NAME(
/* name */ '[c]_Arch_Diffuser.step',
/* time_stamp */ '2025-05-12T09:29:35+02:00',
/* author */ (''),
/* organization */ (''),
/* preprocessor_version */ 'ST-DEVELOPER v20.1',
/* originating_system */ 'Autodesk Translation Framework v14.4.0.0',
/* authorisation */ '');

FILE_SCHEMA (('AUTOMOTIVE_DESIGN { 1 0 10303 214 3 1 1 }'));
ENDSEC;

DATA;
#10=MECHANICAL_DESIGN_GEOMETRIC_PRESENTATION_REPRESENTATION('',(#13),#655);
#11=SHAPE_REPRESENTATION_RELATIONSHIP('SRR','None',#662,#12);
#12=ADVANCED_BREP_SHAPE_REPRESENTATION('',(#14),#654);
#13=STYLED_ITEM('',(#672),#14);
#14=MANIFOLD_SOLID_BREP('Body2',#391);
#15=CYLINDRICAL_SURFACE('',#431,7.7);
#16=CYLINDRICAL_SURFACE('',#432,7.7);
#17=CYLINDRICAL_SURFACE('',#433,7.7);
#18=ELLIPSE('',#408,8.95450233208038,7.69999997020643);
#19=ELLIPSE('',#410,8.95450235170041,7.69999999952556);
#20=ELLIPSE('',#412,8.95450235218231,7.7000000003157);
#21=ELLIPSE('',#414,8.95450234984944,7.69999999663464);
#22=ELLIPSE('',#416,8.95450238152863,7.70000005050357);
#23=ELLIPSE('',#417,8.95450237418256,7.70000003357223);
#24=ELLIPSE('',#419,8.9545023553549,7.70000000531643);
#25=ELLIPSE('',#421,8.95450235684816,7.70000000745772);
#26=ELLIPSE('',#422,8.95450234227141,7.69999998335418);
#27=ELLIPSE('',#424,8.95450235448049,7.70000000390471);
#28=FACE_OUTER_BOUND('',#48,.T.);
#29=FACE_OUTER_BOUND('',#49,.T.);
#30=FACE_OUTER_BOUND('',#50,.T.);
#31=FACE_OUTER_BOUND('',#51,.T.);
#32=FACE_OUTER_BOUND('',#52,.T.);
#33=FACE_OUTER_BOUND('',#53,.T.);
#34=FACE_OUTER_BOUND('',#54,.T.);
#35=FACE_OUTER_BOUND('',#55,.T.);
#36=FACE_OUTER_BOUND('',#56,.T.);
#37=FACE_OUTER_BOUND('',#57,.T.);
#38=FACE_OUTER_BOUND('',#58,.T.);
#39=FACE_OUTER_BOUND('',#59,.T.);
#40=FACE_OUTER_BOUND('',#60,.T.);
#41=FACE_OUTER_BOUND('',#61,.T.);
#42=FACE_OUTER_BOUND('',#62,.T.);
#43=FACE_OUTER_BOUND('',#63,.T.);
#44=FACE_OUTER_BOUND('',#64,.T.);
#45=FACE_OUTER_BOUND('',#65,.T.);
#46=FACE_OUTER_BOUND('',#66,.T.);
#47=FACE_OUTER_BOUND('',#67,.T.);
#48=EDGE_LOOP('',(#246,#247,#248,#249,#250,#251,#252));
#49=EDGE_LOOP('',(#253,#254,#255,#256,#257,#258,#259));
#50=EDGE_LOOP('',(#260,#261,#262,#263));
#51=EDGE_LOOP('',(#264,#265,#266,#267,#268,#269));
#52=EDGE_LOOP('',(#270,#271,#272,#273,#274,#275));
#53=EDGE_LOOP('',(#276,#277,#278,#279));
#54=EDGE_LOOP('',(#280,#281,#282,#283,#284,#285,#286,#287));
#55=EDGE_LOOP('',(#288,#289,#290,#291));
#56=EDGE_LOOP('',(#292,#293,#294,#295,#296,#297,#298,#299));
#57=EDGE_LOOP('',(#300,#301,#302,#303));
#58=EDGE_LOOP('',(#304,#305,#306,#307));
#59=EDGE_LOOP('',(#308,#309,#310,#311,#312,#313));
#60=EDGE_LOOP('',(#314,#315,#316,#317));
#61=EDGE_LOOP('',(#318,#319,#320,#321));
#62=EDGE_LOOP('',(#322,#323,#324,#325));
#63=EDGE_LOOP('',(#326,#327,#328,#329,#330,#331));
#64=EDGE_LOOP('',(#332,#333,#334,#335));
#65=EDGE_LOOP('',(#336,#337,#338,#339,#340,#341,#342,#343));
#66=EDGE_LOOP('',(#344,#345,#346,#347));
#67=EDGE_LOOP('',(#348,#349,#350,#351,#352,#353));
#68=LINE('',#545,#112);
#69=LINE('',#547,#113);
#70=LINE('',#549,#114);
#71=LINE('',#551,#115);
#72=LINE('',#553,#116);
#73=LINE('',#555,#117);
#74=LINE('',#556,#118);
#75=LINE('',#560,#119);
#76=LINE('',#562,#120);
#77=LINE('',#564,#121);
#78=LINE('',#566,#122);
#79=LINE('',#568,#123);
#80=LINE('',#570,#124);
#81=LINE('',#571,#125);
#82=LINE('',#574,#126);
#83=LINE('',#577,#127);
#84=LINE('',#581,#128);
#85=LINE('',#584,#129);
#86=LINE('',#586,#130);
#87=LINE('',#587,#131);
#88=LINE('',#590,#132);
#89=LINE('',#593,#133);
#90=LINE('',#594,#134);
#91=LINE('',#597,#135);
#92=LINE('',#602,#136);
#93=LINE('',#605,#137);
#94=LINE('',#607,#138);
#95=LINE('',#611,#139);
#96=LINE('',#612,#140);
#97=LINE('',#616,#141);
#98=LINE('',#620,#142);
#99=LINE('',#623,#143);
#100=LINE('',#625,#144);
#101=LINE('',#627,#145);
#102=LINE('',#630,#146);
#103=LINE('',#633,#147);
#104=LINE('',#635,#148);
#105=LINE('',#637,#149);
#106=LINE('',#638,#150);
#107=LINE('',#640,#151);
#108=LINE('',#642,#152);
#109=LINE('',#644,#153);
#110=LINE('',#646,#154);
#111=LINE('',#647,#155);
#112=VECTOR('',#439,385.);
#113=VECTOR('',#440,385.);
#114=VECTOR('',#441,385.);
#115=VECTOR('',#442,385.);
#116=VECTOR('',#443,385.);
#117=VECTOR('',#444,385.);
#118=VECTOR('',#445,385.);
#119=VECTOR('',#448,385.);
#120=VECTOR('',#449,385.);
#121=VECTOR('',#450,385.);
#122=VECTOR('',#451,385.);
#123=VECTOR('',#452,385.);
#124=VECTOR('',#453,385.);
#125=VECTOR('',#454,385.);
#126=VECTOR('',#457,385.);
#127=VECTOR('',#460,385.);
#128=VECTOR('',#463,385.);
#129=VECTOR('',#466,385.);
#130=VECTOR('',#467,385.);
#131=VECTOR('',#468,385.);
#132=VECTOR('',#471,385.);
#133=VECTOR('',#474,385.);
#134=VECTOR('',#475,385.);
#135=VECTOR('',#478,385.);
#136=VECTOR('',#483,385.);
#137=VECTOR('',#486,385.);
#138=VECTOR('',#487,385.);
#139=VECTOR('',#490,385.);
#140=VECTOR('',#491,385.);
#141=VECTOR('',#496,385.);
#142=VECTOR('',#499,385.);
#143=VECTOR('',#502,385.);
#144=VECTOR('',#503,385.);
#145=VECTOR('',#506,385.);
#146=VECTOR('',#509,385.);
#147=VECTOR('',#512,385.);
#148=VECTOR('',#515,385.);
#149=VECTOR('',#518,385.);
#150=VECTOR('',#519,385.);
#151=VECTOR('',#522,385.);
#152=VECTOR('',#525,385.);
#153=VECTOR('',#528,385.);
#154=VECTOR('',#531,385.);
#155=VECTOR('',#532,385.);
#156=VERTEX_POINT('',#543);
#157=VERTEX_POINT('',#544);
#158=VERTEX_POINT('',#546);
#159=VERTEX_POINT('',#548);
#160=VERTEX_POINT('',#550);
#161=VERTEX_POINT('',#552);
#162=VERTEX_POINT('',#554);
#163=VERTEX_POINT('',#558);
#164=VERTEX_POINT('',#559);
#165=VERTEX_POINT('',#561);
#166=VERTEX_POINT('',#563);
#167=VERTEX_POINT('',#565);
#168=VERTEX_POINT('',#567);
#169=VERTEX_POINT('',#569);
#170=VERTEX_POINT('',#573);
#171=VERTEX_POINT('',#575);
#172=VERTEX_POINT('',#579);
#173=VERTEX_POINT('',#580);
#174=VERTEX_POINT('',#582);
#175=VERTEX_POINT('',#585);
#176=VERTEX_POINT('',#589);
#177=VERTEX_POINT('',#592);
#178=VERTEX_POINT('',#596);
#179=VERTEX_POINT('',#600);
#180=VERTEX_POINT('',#601);
#181=VERTEX_POINT('',#603);
#182=VERTEX_POINT('',#606);
#183=VERTEX_POINT('',#608);
#184=VERTEX_POINT('',#610);
#185=VERTEX_POINT('',#614);
#186=VERTEX_POINT('',#618);
#187=VERTEX_POINT('',#619);
#188=VERTEX_POINT('',#621);
#189=VERTEX_POINT('',#624);
#190=VERTEX_POINT('',#629);
#191=VERTEX_POINT('',#631);
#192=EDGE_CURVE('',#156,#157,#68,.T.);
#193=EDGE_CURVE('',#158,#156,#69,.T.);
#194=EDGE_CURVE('',#159,#158,#70,.T.);
#195=EDGE_CURVE('',#160,#159,#71,.T.);
#196=EDGE_CURVE('',#161,#160,#72,.T.);
#197=EDGE_CURVE('',#162,#161,#73,.T.);
#198=EDGE_CURVE('',#157,#162,#74,.T.);
#199=EDGE_CURVE('',#163,#164,#75,.T.);
#200=EDGE_CURVE('',#165,#163,#76,.T.);
#201=EDGE_CURVE('',#166,#165,#77,.T.);
#202=EDGE_CURVE('',#167,#166,#78,.T.);
#203=EDGE_CURVE('',#168,#167,#79,.T.);
#204=EDGE_CURVE('',#169,#168,#80,.T.);
#205=EDGE_CURVE('',#164,#169,#81,.T.);
#206=EDGE_CURVE('',#170,#161,#82,.T.);
#207=EDGE_CURVE('',#170,#171,#18,.T.);
#208=EDGE_CURVE('',#171,#162,#83,.T.);
#209=EDGE_CURVE('',#172,#173,#84,.T.);
#210=EDGE_CURVE('',#172,#174,#19,.T.);
#211=EDGE_CURVE('',#174,#168,#85,.T.);
#212=EDGE_CURVE('',#167,#175,#86,.T.);
#213=EDGE_CURVE('',#173,#175,#87,.T.);
#214=EDGE_CURVE('',#176,#159,#88,.T.);
#215=EDGE_CURVE('',#176,#172,#20,.T.);
#216=EDGE_CURVE('',#177,#173,#89,.T.);
#217=EDGE_CURVE('',#160,#177,#90,.T.);
#218=EDGE_CURVE('',#178,#158,#91,.T.);
#219=EDGE_CURVE('',#178,#176,#21,.T.);
#220=EDGE_CURVE('',#179,#180,#92,.T.);
#221=EDGE_CURVE('',#179,#181,#22,.T.);
#222=EDGE_CURVE('',#181,#156,#93,.T.);
#223=EDGE_CURVE('',#182,#157,#94,.T.);
#224=EDGE_CURVE('',#182,#183,#23,.T.);
#225=EDGE_CURVE('',#183,#184,#95,.T.);
#226=EDGE_CURVE('',#180,#184,#96,.T.);
#227=EDGE_CURVE('',#174,#185,#24,.T.);
#228=EDGE_CURVE('',#185,#169,#97,.T.);
#229=EDGE_CURVE('',#186,#187,#98,.T.);
#230=EDGE_CURVE('',#186,#188,#25,.T.);
#231=EDGE_CURVE('',#188,#163,#99,.T.);
#232=EDGE_CURVE('',#189,#164,#100,.T.);
#233=EDGE_CURVE('',#189,#179,#26,.T.);
#234=EDGE_CURVE('',#187,#180,#101,.T.);
#235=EDGE_CURVE('',#190,#165,#102,.T.);
#236=EDGE_CURVE('',#190,#191,#27,.T.);
#237=EDGE_CURVE('',#191,#166,#103,.T.);
#238=EDGE_CURVE('',#171,#182,#104,.T.);
#239=EDGE_CURVE('',#183,#170,#105,.T.);
#240=EDGE_CURVE('',#184,#177,#106,.T.);
#241=EDGE_CURVE('',#181,#178,#107,.T.);
#242=EDGE_CURVE('',#185,#189,#108,.T.);
#243=EDGE_CURVE('',#188,#190,#109,.T.);
#244=EDGE_CURVE('',#191,#186,#110,.T.);
#245=EDGE_CURVE('',#175,#187,#111,.T.);
#246=ORIENTED_EDGE('',*,*,#192,.F.);
#247=ORIENTED_EDGE('',*,*,#193,.F.);
#248=ORIENTED_EDGE('',*,*,#194,.F.);
#249=ORIENTED_EDGE('',*,*,#195,.F.);
#250=ORIENTED_EDGE('',*,*,#196,.F.);
#251=ORIENTED_EDGE('',*,*,#197,.F.);
#252=ORIENTED_EDGE('',*,*,#198,.F.);
#253=ORIENTED_EDGE('',*,*,#199,.F.);
#254=ORIENTED_EDGE('',*,*,#200,.F.);
#255=ORIENTED_EDGE('',*,*,#201,.F.);
#256=ORIENTED_EDGE('',*,*,#202,.F.);
#257=ORIENTED_EDGE('',*,*,#203,.F.);
#258=ORIENTED_EDGE('',*,*,#204,.F.);
#259=ORIENTED_EDGE('',*,*,#205,.F.);
#260=ORIENTED_EDGE('',*,*,#206,.F.);
#261=ORIENTED_EDGE('',*,*,#207,.T.);
#262=ORIENTED_EDGE('',*,*,#208,.T.);
#263=ORIENTED_EDGE('',*,*,#197,.T.);
#264=ORIENTED_EDGE('',*,*,#209,.F.);
#265=ORIENTED_EDGE('',*,*,#210,.T.);
#266=ORIENTED_EDGE('',*,*,#211,.T.);
#267=ORIENTED_EDGE('',*,*,#203,.T.);
#268=ORIENTED_EDGE('',*,*,#212,.T.);
#269=ORIENTED_EDGE('',*,*,#213,.F.);
#270=ORIENTED_EDGE('',*,*,#214,.F.);
#271=ORIENTED_EDGE('',*,*,#215,.T.);
#272=ORIENTED_EDGE('',*,*,#209,.T.);
#273=ORIENTED_EDGE('',*,*,#216,.F.);
#274=ORIENTED_EDGE('',*,*,#217,.F.);
#275=ORIENTED_EDGE('',*,*,#195,.T.);
#276=ORIENTED_EDGE('',*,*,#218,.F.);
#277=ORIENTED_EDGE('',*,*,#219,.T.);
#278=ORIENTED_EDGE('',*,*,#214,.T.);
#279=ORIENTED_EDGE('',*,*,#194,.T.);
#280=ORIENTED_EDGE('',*,*,#220,.F.);
#281=ORIENTED_EDGE('',*,*,#221,.T.);
#282=ORIENTED_EDGE('',*,*,#222,.T.);
#283=ORIENTED_EDGE('',*,*,#192,.T.);
#284=ORIENTED_EDGE('',*,*,#223,.F.);
#285=ORIENTED_EDGE('',*,*,#224,.T.);
#286=ORIENTED_EDGE('',*,*,#225,.T.);
#287=ORIENTED_EDGE('',*,*,#226,.F.);
#288=ORIENTED_EDGE('',*,*,#211,.F.);
#289=ORIENTED_EDGE('',*,*,#227,.T.);
#290=ORIENTED_EDGE('',*,*,#228,.T.);
#291=ORIENTED_EDGE('',*,*,#204,.T.);
#292=ORIENTED_EDGE('',*,*,#229,.F.);
#293=ORIENTED_EDGE('',*,*,#230,.T.);
#294=ORIENTED_EDGE('',*,*,#231,.T.);
#295=ORIENTED_EDGE('',*,*,#199,.T.);
#296=ORIENTED_EDGE('',*,*,#232,.F.);
#297=ORIENTED_EDGE('',*,*,#233,.T.);
#298=ORIENTED_EDGE('',*,*,#220,.T.);
#299=ORIENTED_EDGE('',*,*,#234,.F.);
#300=ORIENTED_EDGE('',*,*,#235,.F.);
#301=ORIENTED_EDGE('',*,*,#236,.T.);
#302=ORIENTED_EDGE('',*,*,#237,.T.);
#303=ORIENTED_EDGE('',*,*,#201,.T.);
#304=ORIENTED_EDGE('',*,*,#208,.F.);
#305=ORIENTED_EDGE('',*,*,#238,.T.);
#306=ORIENTED_EDGE('',*,*,#223,.T.);
#307=ORIENTED_EDGE('',*,*,#198,.T.);
#308=ORIENTED_EDGE('',*,*,#225,.F.);
#309=ORIENTED_EDGE('',*,*,#239,.T.);
#310=ORIENTED_EDGE('',*,*,#206,.T.);
#311=ORIENTED_EDGE('',*,*,#196,.T.);
#312=ORIENTED_EDGE('',*,*,#217,.T.);
#313=ORIENTED_EDGE('',*,*,#240,.F.);
#314=ORIENTED_EDGE('',*,*,#222,.F.);
#315=ORIENTED_EDGE('',*,*,#241,.T.);
#316=ORIENTED_EDGE('',*,*,#218,.T.);
#317=ORIENTED_EDGE('',*,*,#193,.T.);
#318=ORIENTED_EDGE('',*,*,#228,.F.);
#319=ORIENTED_EDGE('',*,*,#242,.T.);
#320=ORIENTED_EDGE('',*,*,#232,.T.);
#321=ORIENTED_EDGE('',*,*,#205,.T.);
#322=ORIENTED_EDGE('',*,*,#231,.F.);
#323=ORIENTED_EDGE('',*,*,#243,.T.);
#324=ORIENTED_EDGE('',*,*,#235,.T.);
#325=ORIENTED_EDGE('',*,*,#200,.T.);
#326=ORIENTED_EDGE('',*,*,#237,.F.);
#327=ORIENTED_EDGE('',*,*,#244,.T.);
#328=ORIENTED_EDGE('',*,*,#229,.T.);
#329=ORIENTED_EDGE('',*,*,#245,.F.);
#330=ORIENTED_EDGE('',*,*,#212,.F.);
#331=ORIENTED_EDGE('',*,*,#202,.T.);
#332=ORIENTED_EDGE('',*,*,#230,.F.);
#333=ORIENTED_EDGE('',*,*,#244,.F.);
#334=ORIENTED_EDGE('',*,*,#236,.F.);
#335=ORIENTED_EDGE('',*,*,#243,.F.);
#336=ORIENTED_EDGE('',*,*,#215,.F.);
#337=ORIENTED_EDGE('',*,*,#219,.F.);
#338=ORIENTED_EDGE('',*,*,#241,.F.);
#339=ORIENTED_EDGE('',*,*,#221,.F.);
#340=ORIENTED_EDGE('',*,*,#233,.F.);
#341=ORIENTED_EDGE('',*,*,#242,.F.);
#342=ORIENTED_EDGE('',*,*,#227,.F.);
#343=ORIENTED_EDGE('',*,*,#210,.F.);
#344=ORIENTED_EDGE('',*,*,#207,.F.);
#345=ORIENTED_EDGE('',*,*,#239,.F.);
#346=ORIENTED_EDGE('',*,*,#224,.F.);
#347=ORIENTED_EDGE('',*,*,#238,.F.);
#348=ORIENTED_EDGE('',*,*,#234,.T.);
#349=ORIENTED_EDGE('',*,*,#226,.T.);
#350=ORIENTED_EDGE('',*,*,#240,.T.);
#351=ORIENTED_EDGE('',*,*,#216,.T.);
#352=ORIENTED_EDGE('',*,*,#213,.T.);
#353=ORIENTED_EDGE('',*,*,#245,.T.);
#354=PLANE('',#405);
#355=PLANE('',#406);
#356=PLANE('',#407);
#357=PLANE('',#409);
#358=PLANE('',#411);
#359=PLANE('',#413);
#360=PLANE('',#415);
#361=PLANE('',#418);
#362=PLANE('',#420);
#363=PLANE('',#423);
#364=PLANE('',#425);
#365=PLANE('',#426);
#366=PLANE('',#427);
#367=PLANE('',#428);
#368=PLANE('',#429);
#369=PLANE('',#430);
#370=PLANE('',#434);
#371=ADVANCED_FACE('',(#28),#354,.F.);
#372=ADVANCED_FACE('',(#29),#355,.F.);
#373=ADVANCED_FACE('',(#30),#356,.F.);
#374=ADVANCED_FACE('',(#31),#357,.F.);
#375=ADVANCED_FACE('',(#32),#358,.F.);
#376=ADVANCED_FACE('',(#33),#359,.F.);
#377=ADVANCED_FACE('',(#34),#360,.F.);
#378=ADVANCED_FACE('',(#35),#361,.F.);
#379=ADVANCED_FACE('',(#36),#362,.F.);
#380=ADVANCED_FACE('',(#37),#363,.F.);
#381=ADVANCED_FACE('',(#38),#364,.F.);
#382=ADVANCED_FACE('',(#39),#365,.F.);
#383=ADVANCED_FACE('',(#40),#366,.F.);
#384=ADVANCED_FACE('',(#41),#367,.F.);
#385=ADVANCED_FACE('',(#42),#368,.F.);
#386=ADVANCED_FACE('',(#43),#369,.F.);
#387=ADVANCED_FACE('',(#44),#15,.T.);
#388=ADVANCED_FACE('',(#45),#16,.T.);
#389=ADVANCED_FACE('',(#46),#17,.T.);
#390=ADVANCED_FACE('',(#47),#370,.T.);
#391=CLOSED_SHELL('',(#371,#372,#373,#374,#375,#376,#377,#378,#379,#380,
#381,#382,#383,#384,#385,#386,#387,#388,#389,#390));
#392=DERIVED_UNIT_ELEMENT(#394,1.);
#393=DERIVED_UNIT_ELEMENT(#657,-3.);
#394=(
MASS_UNIT()
NAMED_UNIT(*)
SI_UNIT(.KILO.,.GRAM.)
);
#395=DERIVED_UNIT((#392,#393));
#396=MEASURE_REPRESENTATION_ITEM('density measure',
POSITIVE_RATIO_MEASURE(8000.),#395);
#397=PROPERTY_DEFINITION_REPRESENTATION(#402,#399);
#398=PROPERTY_DEFINITION_REPRESENTATION(#403,#400);
#399=REPRESENTATION('material name',(#401),#654);
#400=REPRESENTATION('density',(#396),#654);
#401=DESCRIPTIVE_REPRESENTATION_ITEM('Stainless Steel',
'Stainless Steel');
#402=PROPERTY_DEFINITION('material property','material name',#664);
#403=PROPERTY_DEFINITION('material property','density of part',#664);
#404=AXIS2_PLACEMENT_3D('',#541,#435,#436);
#405=AXIS2_PLACEMENT_3D('',#542,#437,#438);
#406=AXIS2_PLACEMENT_3D('',#557,#446,#447);
#407=AXIS2_PLACEMENT_3D('',#572,#455,#456);
#408=AXIS2_PLACEMENT_3D('',#576,#458,#459);
#409=AXIS2_PLACEMENT_3D('',#578,#461,#462);
#410=AXIS2_PLACEMENT_3D('',#583,#464,#465);
#411=AXIS2_PLACEMENT_3D('',#588,#469,#470);
#412=AXIS2_PLACEMENT_3D('',#591,#472,#473);
#413=AXIS2_PLACEMENT_3D('',#595,#476,#477);
#414=AXIS2_PLACEMENT_3D('',#598,#479,#480);
#415=AXIS2_PLACEMENT_3D('',#599,#481,#482);
#416=AXIS2_PLACEMENT_3D('',#604,#484,#485);
#417=AXIS2_PLACEMENT_3D('',#609,#488,#489);
#418=AXIS2_PLACEMENT_3D('',#613,#492,#493);
#419=AXIS2_PLACEMENT_3D('',#615,#494,#495);
#420=AXIS2_PLACEMENT_3D('',#617,#497,#498);
#421=AXIS2_PLACEMENT_3D('',#622,#500,#501);
#422=AXIS2_PLACEMENT_3D('',#626,#504,#505);
#423=AXIS2_PLACEMENT_3D('',#628,#507,#508);
#424=AXIS2_PLACEMENT_3D('',#632,#510,#511);
#425=AXIS2_PLACEMENT_3D('',#634,#513,#514);
#426=AXIS2_PLACEMENT_3D('',#636,#516,#517);
#427=AXIS2_PLACEMENT_3D('',#639,#520,#521);
#428=AXIS2_PLACEMENT_3D('',#641,#523,#524);
#429=AXIS2_PLACEMENT_3D('',#643,#526,#527);
#430=AXIS2_PLACEMENT_3D('',#645,#529,#530);
#431=AXIS2_PLACEMENT_3D('',#648,#533,#534);
#432=AXIS2_PLACEMENT_3D('',#649,#535,#536);
#433=AXIS2_PLACEMENT_3D('',#650,#537,#538);
#434=AXIS2_PLACEMENT_3D('',#651,#539,#540);
#435=DIRECTION('axis',(0.,0.,1.));
#436=DIRECTION('refdir',(1.,0.,0.));
#437=DIRECTION('center_axis',(7.81041897823798E-14,1.,-9.01421284917378E-15));
#438=DIRECTION('ref_axis',(1.,-7.8220258553136E-14,3.05723202454229E-15));
#439=DIRECTION('',(-0.859902616284365,7.20443245139745E-14,0.510458118269565));
#440=DIRECTION('',(8.29087355348699E-15,-9.34185760203558E-15,-1.));
#441=DIRECTION('',(0.859902616284383,-7.21366027913458E-14,-0.510458118269533));
#442=DIRECTION('',(0.859902616284363,-6.3051073557816E-14,0.510458118269567));
#443=DIRECTION('',(-7.04297193362183E-15,9.01421284917434E-15,1.));
#444=DIRECTION('',(-0.859902616284368,7.2782550732946E-14,0.510458118269558));
#445=DIRECTION('',(1.54608363985879E-15,9.3418576020348E-15,1.));
#446=DIRECTION('center_axis',(7.81041897823798E-14,1.,-9.01421284917378E-15));
#447=DIRECTION('ref_axis',(1.,-7.8220258553136E-14,3.05723202454229E-15));
#448=DIRECTION('',(-0.859902616284178,6.30510735578145E-14,-0.510458118269879));
#449=DIRECTION('',(-1.54608363985873E-15,-9.3418576020348E-15,-1.));
#450=DIRECTION('',(-0.859902616284361,6.29587952804446E-14,-0.510458118269571));
#451=DIRECTION('',(-2.25708785423402E-15,-9.01421284917361E-15,-1.));
#452=DIRECTION('',(0.859902616284362,-7.20443245139745E-14,-0.510458118269569));
#453=DIRECTION('',(0.859902616284373,-6.31433518351875E-14,0.510458118269551));
#454=DIRECTION('',(-1.74497462291426E-14,9.34185760203633E-15,1.));
#455=DIRECTION('center_axis',(-0.510458118269558,3.29708774900042E-14,-0.859902616284369));
#456=DIRECTION('ref_axis',(-0.651996822160087,-0.651996822159867,0.38704042138591));
#457=DIRECTION('',(7.80674226562396E-14,1.,-9.01421284917378E-15));
#458=DIRECTION('center_axis',(0.510458118269256,-1.39837866432525E-12,0.859902616284548));
#459=DIRECTION('ref_axis',(-0.859902616284548,3.94741583121999E-9,0.510458118269256));
#460=DIRECTION('',(7.80674226562396E-14,1.,-9.01421284917378E-15));
#461=DIRECTION('center_axis',(-0.510458118269571,3.22492325239978E-14,-0.859902616284361));
#462=DIRECTION('ref_axis',(-0.651996822160084,-0.651996822159863,0.387040421385922));
#463=DIRECTION('',(7.80674226562396E-14,1.,-9.01421284917378E-15));
#464=DIRECTION('center_axis',(0.51045811826958,-2.54959971263804E-13,0.859902616284355));
#465=DIRECTION('ref_axis',(-0.859902616284355,-3.91964418825086E-11,0.51045811826958));
#466=DIRECTION('',(7.80674226562396E-14,1.,-9.01421284917378E-15));
#467=DIRECTION('',(7.95438750941827E-14,1.,-1.51184483808858E-14));
#468=DIRECTION('',(0.859902616284362,-7.47203945577463E-14,-0.510458118269569));
#469=DIRECTION('center_axis',(0.510458118269565,-4.8019892156401E-14,-0.859902616284365));
#470=DIRECTION('ref_axis',(-0.651996822160086,-0.651996822159871,-0.387040421385904));
#471=DIRECTION('',(7.80674226562396E-14,1.,-9.01421284917378E-15));
#472=DIRECTION('center_axis',(-0.510458118269629,-4.09447505140395E-13,
0.859902616284326));
#473=DIRECTION('ref_axis',(-0.859902616284326,-2.73967125612899E-11,-0.510458118269629));
#474=DIRECTION('',(0.859902616284364,-6.10209514556443E-14,0.510458118269566));
#475=DIRECTION('',(7.95438750941827E-14,1.,-1.51184483808858E-14));
#476=DIRECTION('center_axis',(0.510458118269533,-3.22492325239977E-14,0.859902616284383));
#477=DIRECTION('ref_axis',(0.651996822160093,0.651996822159873,-0.387040421385888));
#478=DIRECTION('',(7.80674226562396E-14,1.,-9.01421284917378E-15));
#479=DIRECTION('center_axis',(-0.510458118269538,1.38750414664514E-14,-0.859902616284381));
#480=DIRECTION('ref_axis',(0.859902616284381,-3.61460991024414E-10,-0.510458118269537));
#481=DIRECTION('center_axis',(0.51045811826957,-3.22492325239978E-14,0.859902616284361));
#482=DIRECTION('ref_axis',(0.651996822160084,0.651996822159864,-0.387040421385921));
#483=DIRECTION('',(7.80674226562396E-14,1.,-9.01421284917378E-15));
#484=DIRECTION('center_axis',(-0.510458118269583,-5.10816359971397E-13,
-0.859902616284354));
#485=DIRECTION('ref_axis',(0.859902616284354,1.51272212390817E-9,-0.510458118269583));
#486=DIRECTION('',(7.80674226562396E-14,1.,-9.01421284917378E-15));
#487=DIRECTION('',(7.80674226562396E-14,1.,-9.01421284917378E-15));
#488=DIRECTION('center_axis',(-0.510458118269706,-6.614181132618E-13,-0.85990261628428));
#489=DIRECTION('ref_axis',(0.85990261628428,4.27077302772996E-9,-0.510458118269706));
#490=DIRECTION('',(7.80674226562396E-14,1.,-9.01421284917378E-15));
#491=DIRECTION('',(-0.859902616284365,7.61968469956894E-14,0.510458118269565));
#492=DIRECTION('center_axis',(-0.510458118269551,4.80198921564011E-14,0.859902616284373));
#493=DIRECTION('ref_axis',(0.651996822160089,0.651996822159875,0.387040421385892));
#494=DIRECTION('center_axis',(0.510458118269459,3.65593695667701E-13,-0.859902616284427));
#495=DIRECTION('ref_axis',(0.859902616284427,-5.58248909511762E-10,0.510458118269459));
#496=DIRECTION('',(7.80674226562396E-14,1.,-9.01421284917378E-15));
#497=DIRECTION('center_axis',(-0.510458118269555,4.8019892156401E-14,0.85990261628437));
#498=DIRECTION('ref_axis',(0.651996822160088,0.651996822159874,0.387040421385896));
#499=DIRECTION('',(7.80674226562396E-14,1.,-9.01421284917378E-15));
#500=DIRECTION('center_axis',(0.510458118269968,-1.82709677796698E-12,-0.859902616284125));
#501=DIRECTION('ref_axis',(0.859902616284125,-8.97655944661416E-10,0.510458118269968));
#502=DIRECTION('',(7.80674226562396E-14,1.,-9.01421284917378E-15));
#503=DIRECTION('',(7.80674226562396E-14,1.,-9.01421284917378E-15));
#504=DIRECTION('center_axis',(0.510458118269681,-1.62842236771031E-12,-0.859902616284295));
#505=DIRECTION('ref_axis',(0.859902616284296,4.13749822636041E-10,0.510458118269681));
#506=DIRECTION('',(-0.859902616284178,6.11132297330142E-14,-0.510458118269879));
#507=DIRECTION('center_axis',(0.510458118269571,-4.72982471903946E-14,-0.859902616284361));
#508=DIRECTION('ref_axis',(-0.651996822160084,-0.65199682215987,-0.38704042138591));
#509=DIRECTION('',(7.80674226562396E-14,1.,-9.01421284917378E-15));
#510=DIRECTION('center_axis',(-0.510458118269486,-4.11612440038414E-13,
0.859902616284412));
#511=DIRECTION('ref_axis',(-0.859902616284411,4.27937066497976E-10,-0.510458118269486));
#512=DIRECTION('',(7.80674226562396E-14,1.,-9.01421284917378E-15));
#513=DIRECTION('center_axis',(-1.,7.82152120848423E-14,1.54608363985806E-15));
#514=DIRECTION('ref_axis',(7.81301430478905E-14,1.,-4.65116532299364E-15));
#515=DIRECTION('',(6.04789421673765E-15,-6.99652995599218E-15,-1.));
#516=DIRECTION('center_axis',(1.,-7.82152120848423E-14,7.66054768894182E-15));
#517=DIRECTION('ref_axis',(-7.81301430478905E-14,-1.,4.65116532299364E-15));
#518=DIRECTION('',(-6.04789421673765E-15,6.99652995599218E-15,1.));
#519=DIRECTION('',(-7.04297193362144E-15,1.39512251108503E-14,1.));
#520=DIRECTION('center_axis',(1.,-7.82152120848423E-14,8.29087355348772E-15));
#521=DIRECTION('ref_axis',(-7.81301430478905E-14,-1.,4.65116532299364E-15));
#522=DIRECTION('',(-6.04789421673765E-15,6.99652995599218E-15,1.));
#523=DIRECTION('center_axis',(-1.,7.82152120848422E-14,-1.74497462291433E-14));
#524=DIRECTION('ref_axis',(7.81301430478905E-14,1.,-4.65116532299365E-15));
#525=DIRECTION('',(6.04789421673765E-15,-6.99652995599218E-15,-1.));
#526=DIRECTION('center_axis',(1.,-7.82152120848423E-14,-1.546083639858E-15));
#527=DIRECTION('ref_axis',(-7.81301430478905E-14,-1.,4.65116532299364E-15));
#528=DIRECTION('',(-6.04789421673765E-15,6.99652995599218E-15,1.));
#529=DIRECTION('center_axis',(-1.,7.82152120848423E-14,-7.66054768894177E-15));
#530=DIRECTION('ref_axis',(7.81301430478905E-14,1.,-4.65116532299364E-15));
#531=DIRECTION('',(6.04789421673765E-15,-6.99652995599218E-15,-1.));
#532=DIRECTION('',(-2.2570878542345E-15,-1.52798050805423E-14,-1.));
#533=DIRECTION('center_axis',(-6.04789421673765E-15,6.99652995599218E-15,
1.));
#534=DIRECTION('ref_axis',(-0.70710678118643,0.707106781186665,-9.22380078921109E-15));
#535=DIRECTION('center_axis',(-6.04789421673765E-15,6.99652995599218E-15,
1.));
#536=DIRECTION('ref_axis',(-0.70710678118643,0.707106781186665,-9.22380078921109E-15));
#537=DIRECTION('center_axis',(-6.04789421673765E-15,6.99652995599218E-15,
1.));
#538=DIRECTION('ref_axis',(-0.70710678118643,0.707106781186665,-9.22380078921109E-15));
#539=DIRECTION('center_axis',(7.94919685631612E-14,1.,-1.51184483808858E-14));
#540=DIRECTION('ref_axis',(1.,-7.94818756265737E-14,3.0572320245423E-15));
#541=CARTESIAN_POINT('',(0.,0.,0.));
#542=CARTESIAN_POINT('Origin',(0.244775450296491,-94.9543035346804,10.383602642137));
#543=CARTESIAN_POINT('',(-0.833139754732208,-94.9543035346805,-7.07829317988763));
#544=CARTESIAN_POINT('',(-1.56463975473256,-94.9543035346804,-6.64405782992715));
#545=CARTESIAN_POINT('',(-7.70089334858129,-94.9543035346799,-3.00143551034908));
#546=CARTESIAN_POINT('',(-0.83313975473251,-94.9543035346802,-1.30329317988775));
#547=CARTESIAN_POINT('',(-0.833139754732546,-94.9543035346802,10.383602642137));
#548=CARTESIAN_POINT('',(-2.52281301165311,-94.9543035346802,-0.300263982296798));
#549=CARTESIAN_POINT('',(-5.16599018122564,-94.9543035346803,1.26878723197081));
#550=CARTESIAN_POINT('',(-2.59665790419985,-94.9543035346805,-0.344100021610246));
#551=CARTESIAN_POINT('',(4.21325392124464,-94.9543035346808,3.69842143392225));
#552=CARTESIAN_POINT('',(-2.59665790419984,-94.9543035346805,-1.10710566642212));
#553=CARTESIAN_POINT('',(-2.59665790419987,-94.9543035346804,10.383602642137));
#554=CARTESIAN_POINT('',(-1.56463975473258,-94.9543035346804,-1.71973555336623));
#555=CARTESIAN_POINT('',(-5.53939029473993,-94.95430353468,0.639768468159101));
#556=CARTESIAN_POINT('',(-1.56463975473262,-94.9543035346803,10.383602642137));
#557=CARTESIAN_POINT('Origin',(0.244775450296491,-94.9543035346804,10.383602642137));
#558=CARTESIAN_POINT('',(2.05436024526744,-94.9543035346807,-6.64405782992775));
#559=CARTESIAN_POINT('',(1.32286024526767,-94.9543035346806,-7.07829317988855));
#560=CARTESIAN_POINT('',(8.19048843880433,-94.9543035346812,-3.00150995087777));
#561=CARTESIAN_POINT('',(2.05436024526742,-94.9543035346807,-1.71973555336622));
#562=CARTESIAN_POINT('',(2.05436024526739,-94.9543035346807,10.383602642137));
#563=CARTESIAN_POINT('',(3.086378394735,-94.9543035346809,-1.1071056664221));
#564=CARTESIAN_POINT('',(6.02898538495875,-94.9543035346808,0.639694027625891));
#565=CARTESIAN_POINT('',(3.08637839473498,-94.9543035346809,-0.344100021610192));
#566=CARTESIAN_POINT('',(3.08637839473496,-94.9543035346808,10.383602642137));
#567=CARTESIAN_POINT('',(3.01253350218843,-94.9543035346808,-0.300263982296702));
#568=CARTESIAN_POINT('',(-3.72365883102578,-94.95430353468,3.69849587445574));
#569=CARTESIAN_POINT('',(1.32286024526765,-94.9543035346806,-1.3032931798877));
#570=CARTESIAN_POINT('',(5.65558527144443,-94.954303534681,1.26871279143764));
#571=CARTESIAN_POINT('',(1.32286024526733,-94.9543035346808,10.383602642137));
#572=CARTESIAN_POINT('Origin',(-5.53939029474035,-98.80430353468,0.639768468159119));
#573=CARTESIAN_POINT('',(-2.59665790419993,-95.5658232619119,-1.10710566642212));
#574=CARTESIAN_POINT('',(-2.59665790420026,-98.8043035346805,-1.1071056664221));
#575=CARTESIAN_POINT('',(-1.56463975473244,-95.8936678864475,-1.71973555336619));
#576=CARTESIAN_POINT('Origin',(0.244860235600957,-88.4093035644384,-2.79389667646455));
#577=CARTESIAN_POINT('',(-1.56463975473292,-98.8043035346804,-1.71973555336617));
#578=CARTESIAN_POINT('Origin',(-3.72365883102617,-98.80430353468,3.69849587445572));
#579=CARTESIAN_POINT('',(0.24486024526734,-96.1093035346803,1.34269099418342));
#580=CARTESIAN_POINT('',(0.244860245267855,-94.7618035346805,1.34269099418345));
#581=CARTESIAN_POINT('',(0.24486024526718,-98.8043035346807,1.34269099418343));
#582=CARTESIAN_POINT('',(3.01253350218811,-95.5947043406842,-0.300263982296737));
#583=CARTESIAN_POINT('Origin',(0.244860245359284,-88.4093035351548,1.34269099413118));
#584=CARTESIAN_POINT('',(3.01253350218783,-98.8043035346806,-0.300263982296684));
#585=CARTESIAN_POINT('',(3.08637839473498,-94.7618035346805,-0.344100021610194));
#586=CARTESIAN_POINT('',(3.08637839473475,-99.3121513479148,-0.344100021610134));
#587=CARTESIAN_POINT('',(0.244860245267855,-94.7618035346805,1.34269099418345));
#588=CARTESIAN_POINT('Origin',(4.21325392124425,-98.8043035346808,3.69842143392223));
#589=CARTESIAN_POINT('',(-2.52281301165347,-95.5947043406852,-0.300263982296754));
#590=CARTESIAN_POINT('',(-2.52281301165347,-98.8043035346802,-0.300263982296739));
#591=CARTESIAN_POINT('Origin',(0.244860245328802,-88.4093035343648,1.34269099422361));
#592=CARTESIAN_POINT('',(-2.59665790419982,-94.7618035346801,-0.344100021610211));
#593=CARTESIAN_POINT('',(-2.59665790419982,-94.7618035346801,-0.344100021610247));
#594=CARTESIAN_POINT('',(-2.59665790420001,-99.3121513479144,-0.34410002161019));
#595=CARTESIAN_POINT('Origin',(-5.16599018122571,-98.80430353468,1.26878723197087));
#596=CARTESIAN_POINT('',(-0.833139754732457,-96.0334701120841,-1.30329317988775));
#597=CARTESIAN_POINT('',(-0.833139754732652,-98.8043035346805,-1.30329317988773));
#598=CARTESIAN_POINT('Origin',(0.24486024439776,-88.4093035380444,-1.94321895826062));
#599=CARTESIAN_POINT('Origin',(-7.70089334858172,-98.80430353468,-3.00143551034899));
#600=CARTESIAN_POINT('',(0.244860245267375,-96.1093035346804,-7.71821895877695));
#601=CARTESIAN_POINT('',(0.244860245268974,-94.7618035346806,-7.71821895877753));
#602=CARTESIAN_POINT('',(0.244860245267216,-98.8043035346807,-7.71821895877689));
#603=CARTESIAN_POINT('',(-0.833139754732439,-96.0334701120842,-7.07829317988782));
#604=CARTESIAN_POINT('Origin',(0.244860248797103,-88.409303484177,-7.71821896087677));
#605=CARTESIAN_POINT('',(-0.833139754732635,-98.8043035346805,-7.07829317988777));
#606=CARTESIAN_POINT('',(-1.56463975473242,-95.8936678864475,-6.6440578299273));
#607=CARTESIAN_POINT('',(-1.56463975473262,-98.8043035346807,-6.64405782992728));
#608=CARTESIAN_POINT('',(-2.59665790419993,-95.565823261912,-6.03142794298327));
#609=CARTESIAN_POINT('Origin',(0.244860255684181,-88.4093035011417,-7.71821896496655));
#610=CARTESIAN_POINT('',(-2.59665790419952,-94.7618035346804,-6.03142794298316));
#611=CARTESIAN_POINT('',(-2.59665790420026,-98.8043035346805,-6.03142794298325));
#612=CARTESIAN_POINT('',(0.244860245268974,-94.7618035346806,-7.71821895877753));
#613=CARTESIAN_POINT('Origin',(5.65558527144409,-98.804303534681,1.26871279143769));
#614=CARTESIAN_POINT('',(1.32286024526747,-96.0334701120837,-1.30329317988766));
#615=CARTESIAN_POINT('Origin',(0.244860243925995,-88.4093035293657,-1.9432189595697));
#616=CARTESIAN_POINT('',(1.32286024526728,-98.8043035346806,-1.30329317988765));
#617=CARTESIAN_POINT('Origin',(8.1904884388001,-98.8043035346812,-3.00150995088264));
#618=CARTESIAN_POINT('',(3.08637839473485,-95.5658232619107,-6.03142794298329));
#619=CARTESIAN_POINT('',(3.086378394735,-94.7618035346811,-6.03142794298317));
#620=CARTESIAN_POINT('',(3.08637839473457,-98.8043035346809,-6.03142794298327));
#621=CARTESIAN_POINT('',(2.05436024526726,-95.893667886447,-6.64405782992729));
#622=CARTESIAN_POINT('Origin',(0.244860243096756,-88.4093035272281,-7.71821896008263));
#623=CARTESIAN_POINT('',(2.05436024526705,-98.8043035346807,-6.64405782992727));
#624=CARTESIAN_POINT('',(1.32286024526749,-96.0334701120837,-7.07829317988766));
#625=CARTESIAN_POINT('',(1.3228602452673,-98.8043035346806,-7.07829317988761));
#626=CARTESIAN_POINT('Origin',(0.24486024623867,-88.4093035513262,-7.718218958215));
#627=CARTESIAN_POINT('',(3.086378394735,-94.7618035346811,-6.03142794298317));
#628=CARTESIAN_POINT('Origin',(6.02898538495868,-98.8043035346811,0.639694027625909));
#629=CARTESIAN_POINT('',(2.05436024526724,-95.893667886447,-1.71973555336618));
#630=CARTESIAN_POINT('',(2.05436024526703,-98.8043035346807,-1.71973555336616));
#631=CARTESIAN_POINT('',(3.08637839473485,-95.5658232619107,-1.1071056664221));
#632=CARTESIAN_POINT('Origin',(0.24486024423549,-88.4093035307772,-2.79389668282463));
#633=CARTESIAN_POINT('',(3.08637839473457,-98.8043035346809,-1.10710566642209));
#634=CARTESIAN_POINT('Origin',(-1.56463975473295,-98.8043035346803,10.3836026421371));
#635=CARTESIAN_POINT('',(-1.5646397547324,-95.8936678864476,-14.8340236072969));
#636=CARTESIAN_POINT('Origin',(-2.5966579042003,-98.8043035346804,10.383602642137));
#637=CARTESIAN_POINT('',(-2.59665790419989,-95.565823261912,-14.8340236072969));
#638=CARTESIAN_POINT('',(-2.59665790419952,-94.7618035346804,-6.03142794298316));
#639=CARTESIAN_POINT('Origin',(-0.833139754732937,-98.8043035346802,10.383602642137));
#640=CARTESIAN_POINT('',(-0.833139754732422,-96.0334701120842,-14.8340236072969));
#641=CARTESIAN_POINT('Origin',(1.32286024526698,-98.8043035346808,10.3836026421371));
#642=CARTESIAN_POINT('',(1.32286024526779,-96.033470112084,-14.8340236072969));
#643=CARTESIAN_POINT('Origin',(2.05436024526728,-98.8043035346804,10.3836026421371));
#644=CARTESIAN_POINT('',(2.05436024526728,-95.8936678864471,-14.8340236072969));
#645=CARTESIAN_POINT('Origin',(3.08637839473453,-98.8043035346808,10.3836026421371));
#646=CARTESIAN_POINT('',(3.08637839473489,-95.5658232619108,-14.8340236072969));
#647=CARTESIAN_POINT('',(3.08637839473498,-94.7618035346805,-0.344100021610194));
#648=CARTESIAN_POINT('Origin',(0.244860245265954,-88.4093035346804,-14.8340236072969));
#649=CARTESIAN_POINT('Origin',(0.244860245265954,-88.4093035346804,-14.8340236072969));
#650=CARTESIAN_POINT('Origin',(0.244860245265954,-88.4093035346804,-14.8340236072969));
#651=CARTESIAN_POINT('Origin',(0.244775450296526,-94.7618035346805,10.3836026421378));
#652=UNCERTAINTY_MEASURE_WITH_UNIT(LENGTH_MEASURE(0.01),#656,
'DISTANCE_ACCURACY_VALUE',
'Maximum model space distance between geometric entities at asserted c
onnectivities');
#653=UNCERTAINTY_MEASURE_WITH_UNIT(LENGTH_MEASURE(0.01),#656,
'DISTANCE_ACCURACY_VALUE',
'Maximum model space distance between geometric entities at asserted c
onnectivities');
#654=(
GEOMETRIC_REPRESENTATION_CONTEXT(3)
GLOBAL_UNCERTAINTY_ASSIGNED_CONTEXT((#652))
GLOBAL_UNIT_ASSIGNED_CONTEXT((#656,#658,#659))
REPRESENTATION_CONTEXT('','3D')
);
#655=(
GEOMETRIC_REPRESENTATION_CONTEXT(3)
GLOBAL_UNCERTAINTY_ASSIGNED_CONTEXT((#653))
GLOBAL_UNIT_ASSIGNED_CONTEXT((#656,#658,#659))
REPRESENTATION_CONTEXT('','3D')
);
#656=(
LENGTH_UNIT()
NAMED_UNIT(*)
SI_UNIT(.MILLI.,.METRE.)
);
#657=(
LENGTH_UNIT()
NAMED_UNIT(*)
SI_UNIT($,.METRE.)
);
#658=(
NAMED_UNIT(*)
PLANE_ANGLE_UNIT()
SI_UNIT($,.RADIAN.)
);
#659=(
NAMED_UNIT(*)
SI_UNIT($,.STERADIAN.)
SOLID_ANGLE_UNIT()
);
#660=SHAPE_DEFINITION_REPRESENTATION(#661,#662);
#661=PRODUCT_DEFINITION_SHAPE('',$,#664);
#662=SHAPE_REPRESENTATION('',(#404),#654);
#663=PRODUCT_DEFINITION_CONTEXT('part definition',#668,'design');
#664=PRODUCT_DEFINITION('[c]_Arch_Diffuser (1)','[c]_Arch_Diffuser (1)',
#665,#663);
#665=PRODUCT_DEFINITION_FORMATION('',$,#670);
#666=PRODUCT_RELATED_PRODUCT_CATEGORY('[c]_Arch_Diffuser (1)',
'[c]_Arch_Diffuser (1)',(#670));
#667=APPLICATION_PROTOCOL_DEFINITION('international standard',
'automotive_design',2009,#668);
#668=APPLICATION_CONTEXT(
'Core Data for Automotive Mechanical Design Process');
#669=PRODUCT_CONTEXT('part definition',#668,'mechanical');
#670=PRODUCT('[c]_Arch_Diffuser (1)','[c]_Arch_Diffuser (1)',$,(#669));
#671=PRESENTATION_STYLE_ASSIGNMENT((#673));
#672=PRESENTATION_STYLE_ASSIGNMENT((#674));
#673=SURFACE_STYLE_USAGE(.BOTH.,#675);
#674=SURFACE_STYLE_USAGE(.BOTH.,#676);
#675=SURFACE_SIDE_STYLE('',(#677));
#676=SURFACE_SIDE_STYLE('',(#678));
#677=SURFACE_STYLE_FILL_AREA(#679);
#678=SURFACE_STYLE_FILL_AREA(#680);
#679=FILL_AREA_STYLE('Stainless Steel - Satin',(#681));
#680=FILL_AREA_STYLE('Glass - Frosted Medium',(#682));
#681=FILL_AREA_STYLE_COLOUR('Stainless Steel - Satin',#683);
#682=FILL_AREA_STYLE_COLOUR('Glass - Frosted Medium',#684);
#683=COLOUR_RGB('Stainless Steel - Satin',0.796078431372549,0.796078431372549,
0.796078431372549);
#684=COLOUR_RGB('Glass - Frosted Medium',0.964705882352941,0.964705882352941,
0.952941176470588);
ENDSEC;
END-ISO-10303-21;
