0
SECTION
2
HEADER
9
$INSUNITS
70
4
9
$ACADVER
1
AC1014
9
$HANDSEED
5
FFFF
0
ENDSEC
0
SECTION
2
TABLES
0
TABLE
2
VPORT
5
8
100
AcDbSymbolTable
0
ENDTAB
0
TABLE
2
LTYPE
5
5
100
AcDbSymbolTable
0
LTYPE
5
14
100
AcDbSymbolTableRecord
100
AcDbLinetypeTableRecord
2
BYBLOCK
70
0
0
LTYPE
5
15
100
AcDbSymbolTableRecord
100
AcDbLinetypeTableRecord
2
BYLAYER
70
0
0
LTYPE
5
16
100
AcDbSymbolTableRecord
100
AcDbLinetypeTableRecord
2
DASHED
70
0
3
Dashed __ __ __ __ __ __ __ __ __ __ __ __ __ _
72
65
73
2
40
0.75
49
0.5
74
0
49
-0.25
74
0
0
ENDTAB
0
TABLE
2
LAYER
5
2
100
AcDbSymbolTable
70
2
0
LAYER
5
50
100
AcDbSymbolTableRecord
100
AcDbLayerTableRecord
2
0
70
0
62
7
6
CONTINUOUS
0
ENDTAB
0
TABLE
2
STYLE
5
3
100
AcDbSymbolTable
70
1
0
STYLE
5
11
100
AcDbSymbolTableRecord
100
AcDbTextStyleTableRecord
2
STANDARD
70
0
0
ENDTAB
0
TABLE
2
VIEW
5
6
100
AcDbSymbolTable
70
0
0
ENDTAB
0
TABLE
2
UCS
5
7
100
AcDbSymbolTable
70
0
0
ENDTAB
0
TABLE
2
APPID
5
9
100
AcDbSymbolTable
70
2
0
APPID
5
12
100
AcDbSymbolTableRecord
100
AcDbRegAppTableRecord
2
ACAD
70
0
0
ENDTAB
0
TABLE
2
DIMSTYLE
5
A
100
AcDbSymbolTable
70
1
0
ENDTAB
0
TABLE
2
BLOCK_RECORD
5
1
100
AcDbSymbolTable
70
1
0
BLOCK_RECORD
5
1F
100
AcDbSymbolTableRecord
100
AcDbBlockTableRecord
2
*MODEL_SPACE
0
BLOCK_RECORD
5
1B
100
AcDbSymbolTableRecord
100
AcDbBlockTableRecord
2
*PAPER_SPACE
0
ENDTAB
0
ENDSEC
0
SECTION
2
BLOCKS
0
BLOCK
5
20
100
AcDbEntity
100
AcDbBlockBegin
2
*MODEL_SPACE
0
ENDBLK
5
21
100
AcDbEntity
100
AcDbBlockEnd
0
BLOCK
5
1C
100
AcDbEntity
100
AcDbBlockBegin
2
*PAPER_SPACE
0
ENDBLK
5
1D
100
AcDbEntity
100
AcDbBlockEnd
0
ENDSEC
0
SECTION
2
ENTITIES
0
LINE
5
100
100
AcDbEntity
8
0
100
AcDbLine
10
-355.00000381473518
20
15.000001907370617
30
1.2207072686010179e-05
11
-355.00000381472387
21
-298.99999809262943
31
1.2207072686010179e-05
0
ARC
5
101
100
AcDbEntity
8
0
100
AcDbCircle
10
-350.00000381472387
20
-298.99999809262926
30
1.2207072686010179e-05
40
5
210
0
220
0
230
1
100
AcDbArc
50
180
51
270.00000000000193
0
LINE
5
102
100
AcDbEntity
8
0
100
AcDbLine
10
-350.0000038147237
20
-303.99999809262926
30
1.2207072686010179e-05
11
-340.50000381472364
21
-303.99999809262891
31
1.2207072686010179e-05
0
ARC
5
103
100
AcDbEntity
8
0
100
AcDbCircle
10
-340.50000381472353
20
-308.99999809262891
30
1.2207072686010179e-05
40
5
210
0
220
-0
230
1
100
AcDbArc
50
0
51
90.000000000001307
0
LINE
5
104
100
AcDbEntity
8
0
100
AcDbLine
10
-335.50000381472353
20
-308.99999809262874
30
1.2207072686010179e-05
11
-335.50000381472228
21
-340.99999809262874
31
1.2207072686010179e-05
0
ARC
5
105
100
AcDbEntity
8
0
100
AcDbCircle
10
-330.50000381472228
20
-340.99999809262852
30
1.2207072686010179e-05
40
5
210
0
220
0
230
1
100
AcDbArc
50
180
51
270.00000000000131
0
LINE
5
106
100
AcDbEntity
8
0
100
AcDbLine
10
-330.50000381472216
20
-345.99999809262852
30
1.2207072686010179e-05
11
-163.50000381472216
21
-345.9999980926226
31
1.2207072686010179e-05
0
ARC
5
107
100
AcDbEntity
8
0
100
AcDbCircle
10
-163.50000381472225
20
-343.4999980926226
30
1.2207072686010179e-05
40
2.5
210
0
220
0
230
1
100
AcDbArc
50
-89.999999999998067
51
0
0
LINE
5
108
100
AcDbEntity
8
0
100
AcDbLine
10
-161.00000381472228
20
-343.49999809262243
30
1.2207072686010179e-05
11
-161.00000381472279
21
-328.49999809262243
31
1.2207072686010179e-05
0
ARC
5
109
100
AcDbEntity
8
0
100
AcDbCircle
10
-158.50000381472282
20
-328.49999809262238
30
1.2207072686010179e-05
40
2.4999999999999289
210
0
220
0
230
1
100
AcDbArc
50
90.000000000001961
51
180
0
LINE
5
110
100
AcDbEntity
8
0
100
AcDbLine
10
-158.5000038147229
20
-325.99999809262243
30
1.2207072686010179e-05
11
-143.50000381472287
21
-325.99999809262181
31
1.2207072686010179e-05
0
ARC
5
111
100
AcDbEntity
8
0
100
AcDbCircle
10
-143.50000381472279
20
-328.49999809262181
30
1.2207072686010179e-05
40
2.4999999999999822
210
0
220
-0
230
1
100
AcDbArc
50
0
51
90.000000000001961
0
LINE
5
112
100
AcDbEntity
8
0
100
AcDbLine
10
-141.00000381472279
20
-328.49999809262169
30
1.2207072686010179e-05
11
-141.00000381472225
21
-343.49999809262169
31
1.2207072686010179e-05
0
ARC
5
113
100
AcDbEntity
8
0
100
AcDbCircle
10
-138.50000381472225
20
-343.49999809262158
30
1.2207072686010179e-05
40
2.5
210
0
220
0
230
1
100
AcDbArc
50
180
51
270.00000000000193
0
LINE
5
114
100
AcDbEntity
8
0
100
AcDbLine
10
-138.50000381472216
20
-345.99999809262158
30
1.2207072686010179e-05
11
28.499996185277841
21
-345.99999809261561
31
1.2207072686010179e-05
0
ARC
5
115
100
AcDbEntity
8
0
100
AcDbCircle
10
28.499996185277663
20
-340.99999809261561
30
1.2207072686010179e-05
40
5
210
0
220
0
230
1
100
AcDbArc
50
-89.999999999997954
51
0
0
LINE
5
116
100
AcDbEntity
8
0
100
AcDbLine
10
33.499996185277666
20
-340.99999809261539
30
1.2207072686010179e-05
11
33.499996185276487
21
-308.99999809261539
31
1.2207072686010179e-05
0
ARC
5
117
100
AcDbEntity
8
0
100
AcDbCircle
10
38.499996185276487
20
-308.99999809261521
30
1.2207072686010179e-05
40
5
210
0
220
0
230
1
100
AcDbArc
50
90.000000000001961
51
180
0
LINE
5
118
100
AcDbEntity
8
0
100
AcDbLine
10
38.499996185276316
20
-303.99999809261521
30
1.2207072686010179e-05
11
47.999996185276345
21
-303.99999809261487
31
1.2207072686010179e-05
0
ARC
5
119
100
AcDbEntity
8
0
100
AcDbCircle
10
47.99999618527616
20
-298.99999809261487
30
1.2207072686010179e-05
40
5
210
0
220
0
230
1
100
AcDbArc
50
-89.999999999997868
51
0
0
LINE
5
120
100
AcDbEntity
8
0
100
AcDbLine
10
52.99999618527616
20
-298.9999980926147
30
1.2207072686010179e-05
11
52.999996185264862
21
15.000001907385361
31
1.2207072686010179e-05
0
ARC
5
121
100
AcDbEntity
8
0
100
AcDbCircle
10
47.999996185264862
20
15.000001907385183
30
1.2207072686010179e-05
40
5
210
0
220
-0
230
1
100
AcDbArc
50
0
51
90.000000000001961
0
LINE
5
122
100
AcDbEntity
8
0
100
AcDbLine
10
47.999996185264692
20
20.000001907385148
30
1.2207072686010179e-05
11
38.499996185264663
21
20.000001907384828
31
1.2207072686010179e-05
0
ARC
5
123
100
AcDbEntity
8
0
100
AcDbCircle
10
38.499996185264479
20
25.000001907384828
30
1.2207072686010179e-05
40
5
210
0
220
0
230
1
100
AcDbArc
50
180
51
270.0000000000021
0
LINE
5
124
100
AcDbEntity
8
0
100
AcDbLine
10
33.499996185264479
20
25.00000190738465
30
1.2207072686010179e-05
11
33.499996185263313
21
57.000001907384679
31
1.2207072686010179e-05
0
ARC
5
125
100
AcDbEntity
8
0
100
AcDbCircle
10
28.49999618526331
20
57.000001907384465
30
1.2207072686010179e-05
40
5
210
0
220
-0
230
1
100
AcDbArc
50
0
51
90.000000000002032
0
LINE
5
126
100
AcDbEntity
8
0
100
AcDbLine
10
28.499996185263132
20
62.000001907384465
30
1.2207072686010179e-05
11
-138.50000381473686
21
62.000001907378461
31
1.2207072686010179e-05
0
ARC
5
127
100
AcDbEntity
8
0
100
AcDbCircle
10
-138.50000381473677
20
59.500001907378461
30
1.2207072686010179e-05
40
2.5
210
0
220
0
230
1
100
AcDbArc
50
90.000000000001961
51
180
0
LINE
5
128
100
AcDbEntity
8
0
100
AcDbLine
10
-141.00000381473674
20
59.500001907378355
30
1.2207072686010179e-05
11
-141.00000381473623
21
44.500001907378355
31
1.2207072686010179e-05
0
ARC
5
129
100
AcDbEntity
8
0
100
AcDbCircle
10
-143.5000038147362
20
44.500001907378284
30
1.2207072686010179e-05
40
2.4999999999999645
210
0
220
0
230
1
100
AcDbArc
50
-89.999999999998067
51
0
0
LINE
5
130
100
AcDbEntity
8
0
100
AcDbLine
10
-143.50000381473612
20
42.000001907378319
30
1.2207072686010179e-05
11
-158.50000381473615
21
42.000001907377715
31
1.2207072686010179e-05
0
ARC
5
131
100
AcDbEntity
8
0
100
AcDbCircle
10
-158.50000381473623
20
44.500001907377715
30
1.2207072686010179e-05
40
2.5
210
0
220
0
230
1
100
AcDbArc
50
180
51
270.00000000000193
0
LINE
5
132
100
AcDbEntity
8
0
100
AcDbLine
10
-161.00000381473623
20
44.500001907377644
30
1.2207072686010179e-05
11
-161.00000381473677
21
59.500001907377644
31
1.2207072686010179e-05
0
ARC
5
133
100
AcDbEntity
8
0
100
AcDbCircle
10
-163.50000381473677
20
59.500001907377538
30
1.2207072686010179e-05
40
2.5
210
0
220
-0
230
1
100
AcDbArc
50
0
51
90.000000000001307
0
LINE
5
134
100
AcDbEntity
8
0
100
AcDbLine
10
-163.50000381473683
20
62.000001907377502
30
1.2207072686010179e-05
11
-330.50000381473689
21
62.000001907371534
31
1.2207072686010179e-05
0
ARC
5
135
100
AcDbEntity
8
0
100
AcDbCircle
10
-330.50000381473666
20
57.000001907371534
30
1.2207072686010179e-05
40
5
210
0
220
0
230
1
100
AcDbArc
50
90.000000000002615
51
180
0
LINE
5
136
100
AcDbEntity
8
0
100
AcDbLine
10
-335.50000381473666
20
57.00000190737132
30
1.2207072686010179e-05
11
-335.50000381473552
21
25.000001907371292
31
1.2207072686010179e-05
0
ARC
5
137
100
AcDbEntity
8
0
100
AcDbCircle
10
-340.50000381473552
20
25.000001907371114
30
1.2207072686010179e-05
40
5
210
0
220
0
230
1
100
AcDbArc
50
-89.999999999997399
51
0
0
LINE
5
138
100
AcDbEntity
8
0
100
AcDbLine
10
-340.50000381473529
20
20.000001907371114
30
1.2207072686010179e-05
11
-350.00000381473535
21
20.000001907370795
31
1.2207072686010179e-05
0
ARC
5
139
100
AcDbEntity
8
0
100
AcDbCircle
10
-350.00000381473518
20
15.000001907370795
30
1.2207072686010179e-05
40
5
210
0
220
0
230
1
100
AcDbArc
50
90.000000000001961
51
180
0
ENDSEC
0
SECTION
2
OBJECTS
0
DICTIONARY
5
C
100
AcDbDictionary
3
ACAD_GROUP
350
D
3
ACAD_MLINESTYLE
350
17
0
DICTIONARY
5
D
100
AcDbDictionary
0
DICTIONARY
5
1A
330
C
100
AcDbDictionary
0
DICTIONARY
5
17
100
AcDbDictionary
0
ENDSEC
0
EOF
