0
SECTION
2
HEADER
9
$INSUNITS
70
4
9
$ACADVER
1
AC1014
9
$HANDSEED
5
FFFF
0
ENDSEC
0
SECTION
2
TABLES
0
TABLE
2
VPORT
5
8
100
AcDbSymbolTable
0
ENDTAB
0
TABLE
2
LTYPE
5
5
100
AcDbSymbolTable
0
LTYPE
5
14
100
AcDbSymbolTableRecord
100
AcDbLinetypeTableRecord
2
BYBLOCK
70
0
0
LTYPE
5
15
100
AcDbSymbolTableRecord
100
AcDbLinetypeTableRecord
2
BYLAYER
70
0
0
LTYPE
5
16
100
AcDbSymbolTableRecord
100
AcDbLinetypeTableRecord
2
DASHED
70
0
3
Dashed __ __ __ __ __ __ __ __ __ __ __ __ __ _
72
65
73
2
40
0.75
49
0.5
74
0
49
-0.25
74
0
0
ENDTAB
0
TABLE
2
LAYER
5
2
100
AcDbSymbolTable
70
2
0
LAYER
5
50
100
AcDbSymbolTableRecord
100
AcDbLayerTableRecord
2
0
70
0
62
7
6
CONTINUOUS
0
ENDTAB
0
TABLE
2
STYLE
5
3
100
AcDbSymbolTable
70
1
0
STYLE
5
11
100
AcDbSymbolTableRecord
100
AcDbTextStyleTableRecord
2
STANDARD
70
0
0
ENDTAB
0
TABLE
2
VIEW
5
6
100
AcDbSymbolTable
70
0
0
ENDTAB
0
TABLE
2
UCS
5
7
100
AcDbSymbolTable
70
0
0
ENDTAB
0
TABLE
2
APPID
5
9
100
AcDbSymbolTable
70
2
0
APPID
5
12
100
AcDbSymbolTableRecord
100
AcDbRegAppTableRecord
2
ACAD
70
0
0
ENDTAB
0
TABLE
2
DIMSTYLE
5
A
100
AcDbSymbolTable
70
1
0
ENDTAB
0
TABLE
2
BLOCK_RECORD
5
1
100
AcDbSymbolTable
70
1
0
BLOCK_RECORD
5
1F
100
AcDbSymbolTableRecord
100
AcDbBlockTableRecord
2
*MODEL_SPACE
0
BLOCK_RECORD
5
1B
100
AcDbSymbolTableRecord
100
AcDbBlockTableRecord
2
*PAPER_SPACE
0
ENDTAB
0
ENDSEC
0
SECTION
2
BLOCKS
0
BLOCK
5
20
100
AcDbEntity
100
AcDbBlockBegin
2
*MODEL_SPACE
0
ENDBLK
5
21
100
AcDbEntity
100
AcDbBlockEnd
0
BLOCK
5
1C
100
AcDbEntity
100
AcDbBlockBegin
2
*PAPER_SPACE
0
ENDBLK
5
1D
100
AcDbEntity
100
AcDbBlockEnd
0
ENDSEC
0
SECTION
2
ENTITIES
0
LWPOLYLINE
5
100
100
AcDbEntity
8
0
100
AcDbPolyline
90
24
70
1
43
0.0
10
-355.70000076293991
20
-298.99999809267149
42
0.41421356237309709
10
-350.70000076293991
20
-303.9999980926716
10
-341.20000076293991
20
-303.9999980926716
42
-0.41421356237309509
10
-336.20000076293991
20
-308.9999980926716
10
-336.20000076294002
20
-340.9999980926716
42
0.41421356237309509
10
-331.20000076294002
20
-345.9999980926716
10
27.799999237059936
20
-345.99999809267268
42
0.41421356237309298
10
32.799999237059971
20
-340.99999809267274
10
32.799999237060042
20
-308.99999809267274
42
-0.41421356237309709
10
37.799999237060078
20
-303.99999809267274
10
47.299999237060106
20
-303.99999809267274
42
0.41421356237309298
10
52.299999237060106
20
-298.9999980926728
10
52.29999923706103
20
15.000001907327256
42
0.41421356237309603
10
47.29999923706103
20
20.000001907327292
10
37.799999237061002
20
20.000001907327292
42
-0.41421356237309298
10
32.799999237061037
20
25.000001907327292
10
32.799999237061108
20
57.000001907327317
42
0.41421356237309509
10
27.799999237061144
20
62.000001907327359
10
-331.20000076293883
20
62.000001907328425
42
0.41421356237309709
10
-336.20000076293888
20
57.000001907328453
10
-336.20000076293888
20
25.000001907328429
42
-0.4142135623730992
10
-341.200000762939
20
20.000001907328429
10
-350.700000762939
20
20.000001907328464
42
0.41421356237309404
10
-355.700000762939
20
15.0000019073285
0
CIRCLE
5
101
100
AcDbEntity
8
0
100
AcDbCircle
10
151.70000076293911
20
-22.503059867238999
30
6.1034716480889983e-06
40
12.050000000000001
210
-4.9180874467962938e-28
220
-7.5730646901217133e-29
230
-1
0
CIRCLE
5
102
100
AcDbEntity
8
0
100
AcDbCircle
10
155.99977691719704
20
-257.39962193705344
30
6.1034712572904937e-06
40
14.549999999999983
210
-4.920485229577072e-28
220
-7.5730646901217167e-29
230
-1
0
ENDSEC
0
SECTION
2
OBJECTS
0
DICTIONARY
5
C
100
AcDbDictionary
3
ACAD_GROUP
350
D
3
ACAD_MLINESTYLE
350
17
0
DICTIONARY
5
D
100
AcDbDictionary
0
DICTIONARY
5
1A
330
C
100
AcDbDictionary
0
DICTIONARY
5
17
100
AcDbDictionary
0
ENDSEC
0
EOF
